<svg xmlns="http://www.w3.org/2000/svg" xmlns:xlink="http://www.w3.org/1999/xlink" width="500" zoomAndPan="magnify" viewBox="0 0 375 374.999991" height="500" preserveAspectRatio="xMidYMid meet" version="1.0"><defs><clipPath id="fe22fab6a5"><path d="M 213 239 L 354.976562 239 L 354.976562 340 L 213 340 Z M 213 239 " clip-rule="nonzero"/></clipPath><clipPath id="fa6a70f51b"><path d="M 57 2.625 L 354.976562 2.625 L 354.976562 132 L 57 132 Z M 57 2.625 " clip-rule="nonzero"/></clipPath><clipPath id="b4e2e2e070"><path d="M 19.726562 86 L 127 86 L 127 217 L 19.726562 217 Z M 19.726562 86 " clip-rule="nonzero"/></clipPath><clipPath id="d20201fd10"><path d="M 24 221 L 268 221 L 268 372.375 L 24 372.375 Z M 24 221 " clip-rule="nonzero"/></clipPath></defs><g clip-path="url(#fe22fab6a5)"><path fill="#00a19a" d="M 289.800781 256.375 C 289.800781 260.617188 286.347656 264.070312 282.109375 264.070312 C 277.863281 264.070312 274.414062 260.617188 274.414062 256.375 C 274.414062 252.132812 277.863281 248.679688 282.109375 248.679688 C 286.347656 248.679688 289.800781 252.132812 289.800781 256.375 Z M 355.203125 256.375 C 355.203125 249.484375 349.613281 243.898438 342.722656 243.898438 C 337.070312 243.898438 332.304688 247.65625 330.769531 252.8125 L 298.328125 252.8125 C 296.695312 245.351562 290.054688 239.765625 282.109375 239.765625 C 272.933594 239.765625 265.496094 247.203125 265.496094 256.375 C 265.496094 260.589844 267.074219 264.4375 269.65625 267.367188 C 260.335938 276.070312 249.671875 282.996094 238.117188 287.925781 C 236.699219 282.59375 231.851562 278.660156 226.074219 278.660156 C 219.179688 278.660156 213.59375 284.25 213.59375 291.136719 C 213.59375 298.03125 219.179688 303.617188 226.074219 303.617188 C 231.308594 303.617188 235.78125 300.390625 237.636719 295.820312 C 251.636719 290.351562 264.492188 282.179688 275.53125 271.628906 C 276.492188 272.042969 277.496094 272.367188 278.542969 272.597656 L 278.542969 306.394531 C 275.058594 307.15625 271.984375 309.011719 269.695312 311.582031 L 245.089844 297.800781 L 241.601562 304.027344 L 266.210938 317.800781 C 265.75 319.324219 265.496094 320.941406 265.496094 322.613281 C 265.496094 331.789062 272.933594 339.226562 282.109375 339.226562 C 291.277344 339.226562 298.714844 331.789062 298.714844 322.613281 C 298.714844 314.667969 293.128906 308.027344 285.671875 306.394531 L 285.671875 272.597656 C 291.890625 271.238281 296.804688 266.390625 298.265625 260.210938 L 330.847656 260.210938 C 331.714844 262.894531 333.464844 265.183594 335.757812 266.730469 C 326.457031 283.121094 314.453125 297.550781 300.472656 309.550781 C 301.910156 311.566406 303.023438 313.828125 303.738281 316.257812 C 319.523438 302.972656 332.726562 286.921875 342.738281 268.855469 C 349.621094 268.847656 355.203125 263.261719 355.203125 256.375 " fill-opacity="1" fill-rule="nonzero"/></g><g clip-path="url(#fa6a70f51b)"><path fill="#1976d2" d="M 346.285156 114.910156 C 346.285156 119.152344 342.835938 122.605469 338.589844 122.605469 C 334.347656 122.605469 330.894531 119.152344 330.894531 114.910156 C 330.894531 110.667969 334.347656 107.214844 338.589844 107.214844 C 342.835938 107.214844 346.285156 110.667969 346.285156 114.910156 Z M 275.984375 52.808594 C 270.003906 52.808594 265.140625 47.941406 265.140625 41.960938 C 265.140625 35.984375 270.003906 31.121094 275.984375 31.121094 C 281.964844 31.121094 286.828125 35.984375 286.828125 41.960938 C 286.828125 47.941406 281.964844 52.808594 275.984375 52.808594 Z M 178.503906 19.234375 C 178.503906 23.476562 175.050781 26.929688 170.808594 26.929688 C 166.566406 26.929688 163.113281 23.476562 163.113281 19.234375 C 163.113281 14.992188 166.566406 11.539062 170.808594 11.539062 C 175.050781 11.539062 178.503906 14.992188 178.503906 19.234375 Z M 158.921875 83.128906 C 158.921875 89.109375 154.058594 93.972656 148.078125 93.972656 C 142.097656 93.972656 137.234375 89.109375 137.234375 83.128906 C 137.234375 77.152344 142.097656 72.289062 148.078125 72.289062 C 154.058594 72.289062 158.921875 77.152344 158.921875 83.128906 Z M 355.199219 114.910156 C 355.199219 105.738281 347.765625 98.300781 338.589844 98.300781 C 329.710938 98.300781 322.464844 105.269531 322.003906 114.03125 L 293.53125 114.03125 C 291.9375 110.402344 288.675781 107.683594 284.714844 106.839844 L 281.320312 64.058594 C 284.117188 63.382812 286.710938 62.195312 289 60.589844 L 319.417969 92.125 L 324.546875 87.175781 L 294.136719 55.644531 C 297.007812 51.839844 298.714844 47.101562 298.714844 41.960938 C 298.714844 29.410156 288.539062 19.234375 275.984375 19.234375 C 267.835938 19.234375 260.691406 23.523438 256.679688 29.96875 C 237.191406 22.320312 216.34375 18.351562 195.078125 18.351562 C 192.507812 18.351562 189.949219 18.410156 187.398438 18.519531 C 187.023438 9.679688 179.742188 2.625 170.808594 2.625 C 161.636719 2.625 154.199219 10.0625 154.199219 19.234375 C 154.199219 20.601562 154.367188 21.925781 154.679688 23.195312 C 128.929688 29.492188 105.027344 41.808594 84.691406 59.445312 C 86.207031 61.414062 87.335938 63.699219 87.957031 66.179688 C 107.625 48.738281 131.558594 36.011719 157.976562 29.78125 C 159.117188 31.167969 160.484375 32.363281 162.011719 33.320312 L 152.242188 60.789062 C 150.890625 60.539062 149.5 60.402344 148.078125 60.402344 C 137.992188 60.402344 129.449219 66.972656 126.476562 76.0625 L 82.445312 69.019531 C 81.644531 62.898438 76.421875 58.175781 70.085938 58.175781 C 63.195312 58.175781 57.609375 63.761719 57.609375 70.652344 C 57.609375 77.542969 63.195312 83.128906 70.085938 83.128906 C 75.039062 83.128906 79.304688 80.238281 81.320312 76.058594 L 125.351562 83.105469 L 125.347656 83.128906 C 125.347656 95.683594 135.527344 105.859375 148.078125 105.859375 C 160.632812 105.859375 170.808594 95.683594 170.808594 83.128906 C 170.808594 74.519531 166.019531 67.03125 158.960938 63.175781 L 168.730469 35.710938 C 169.414062 35.792969 170.105469 35.84375 170.808594 35.84375 C 174.511719 35.84375 177.933594 34.628906 180.695312 32.578125 L 215.707031 63.089844 L 220.390625 57.714844 L 185.382812 27.203125 C 185.640625 26.730469 185.878906 26.242188 186.09375 25.738281 C 189.070312 25.574219 192.0625 25.480469 195.078125 25.480469 C 215.523438 25.480469 235.429688 29.402344 253.886719 36.648438 C 253.476562 38.355469 253.253906 40.132812 253.253906 41.960938 C 253.253906 53.917969 262.488281 63.710938 274.207031 64.617188 L 277.367188 104.402344 C 268.25 95.296875 257.808594 87.867188 246.464844 82.300781 C 246.527344 81.789062 246.570312 81.269531 246.570312 80.738281 C 246.570312 73.847656 240.984375 68.257812 234.09375 68.257812 C 229.710938 68.257812 225.859375 70.523438 223.632812 73.945312 C 214.421875 71.636719 204.84375 70.441406 195.078125 70.441406 C 188.089844 70.441406 181.246094 71.058594 174.597656 72.242188 C 175.496094 74.425781 176.132812 76.746094 176.46875 79.160156 C 182.519531 78.121094 188.734375 77.570312 195.078125 77.570312 C 204.152344 77.570312 213.050781 78.679688 221.621094 80.800781 C 221.652344 87.664062 227.226562 93.21875 234.09375 93.21875 C 237.894531 93.21875 241.289062 91.511719 243.578125 88.832031 C 254.488281 94.222656 264.5 101.445312 273.1875 110.316406 C 270.988281 112.570312 269.625 115.644531 269.625 119.042969 C 269.625 125.933594 275.210938 131.519531 282.105469 131.519531 C 288.273438 131.519531 293.378906 127.039062 294.394531 121.164062 L 323.203125 121.164062 C 325.675781 127.234375 331.628906 131.519531 338.589844 131.519531 C 347.765625 131.519531 355.199219 124.082031 355.199219 114.910156 " fill-opacity="1" fill-rule="nonzero"/></g><g clip-path="url(#b4e2e2e070)"><path fill="#1976d2" d="M 38.832031 143.996094 C 38.832031 147.601562 35.898438 150.535156 32.296875 150.535156 C 28.691406 150.535156 25.757812 147.601562 25.757812 143.996094 C 25.757812 140.394531 28.691406 137.460938 32.296875 137.460938 C 35.898438 137.460938 38.832031 140.394531 38.832031 143.996094 Z M 80.335938 182.8125 C 86.316406 182.8125 91.179688 187.679688 91.179688 193.65625 C 91.179688 199.636719 86.316406 204.5 80.335938 204.5 C 74.359375 204.5 69.492188 199.636719 69.492188 193.65625 C 69.492188 187.679688 74.359375 182.8125 80.335938 182.8125 Z M 126.390625 101.847656 C 124.832031 100.046875 123.492188 98.046875 122.417969 95.894531 C 114.691406 102.058594 107.769531 109.1875 101.820312 117.089844 C 99.816406 115.714844 97.394531 114.910156 94.78125 114.910156 C 88.015625 114.910156 82.523438 120.292969 82.320312 127.011719 L 42.925781 137.480469 C 42.582031 136.921875 42.199219 136.390625 41.777344 135.898438 C 47.527344 118.738281 56.074219 102.851562 66.886719 88.789062 C 64.347656 88.34375 61.988281 87.375 59.917969 86 C 49.367188 100.046875 41.171875 115.527344 35.511719 131.953125 C 34.484375 131.679688 33.410156 131.519531 32.296875 131.519531 C 25.402344 131.519531 19.816406 137.105469 19.816406 143.996094 C 19.816406 149.648438 23.578125 154.417969 28.730469 155.949219 L 28.730469 216.386719 L 35.863281 216.386719 L 35.863281 155.949219 C 40.898438 154.453125 44.589844 149.859375 44.753906 144.375 L 84.152344 133.902344 C 85.335938 135.832031 87.023438 137.414062 89.039062 138.457031 C 84.367188 148.59375 81.117188 159.507812 79.523438 170.949219 C 67.347656 171.378906 57.609375 181.378906 57.609375 193.65625 C 57.609375 206.210938 67.785156 216.386719 80.335938 216.386719 C 92.890625 216.386719 103.066406 206.210938 103.066406 193.65625 C 103.066406 183.277344 96.105469 174.527344 86.601562 171.808594 C 88.191406 160.484375 91.523438 149.710938 96.3125 139.765625 C 102.480469 139.003906 107.261719 133.761719 107.261719 127.386719 C 107.261719 125.796875 106.949219 124.28125 106.40625 122.878906 C 112.117188 115.019531 118.839844 107.945312 126.390625 101.847656 " fill-opacity="1" fill-rule="nonzero"/></g><g clip-path="url(#d20201fd10)"><path fill="#00a19a" d="M 214.1875 349.644531 C 214.1875 355.625 209.324219 360.488281 203.34375 360.488281 C 197.363281 360.488281 192.5 355.625 192.5 349.644531 C 192.5 343.664062 197.363281 338.800781 203.34375 338.800781 C 209.324219 338.800781 214.1875 343.664062 214.1875 349.644531 Z M 177.34375 293.527344 C 177.34375 297.132812 174.414062 300.0625 170.808594 300.0625 C 167.203125 300.0625 164.273438 297.132812 164.273438 293.527344 C 164.273438 289.925781 167.203125 286.992188 170.808594 286.992188 C 174.414062 286.992188 177.34375 289.925781 177.34375 293.527344 Z M 41 247.460938 C 36.757812 247.460938 33.304688 244.011719 33.304688 239.765625 C 33.304688 235.527344 36.757812 232.074219 41 232.074219 C 45.242188 232.074219 48.695312 235.527344 48.695312 239.765625 C 48.695312 244.011719 45.242188 247.460938 41 247.460938 Z M 99.566406 256.375 C 99.566406 252.132812 103.019531 248.679688 107.261719 248.679688 C 111.503906 248.679688 114.953125 252.132812 114.953125 256.375 C 114.953125 260.617188 111.503906 264.070312 107.261719 264.070312 C 103.019531 264.070312 99.566406 260.617188 99.566406 256.375 Z M 267.363281 339.660156 C 265.46875 338.015625 263.851562 336.070312 262.585938 333.886719 C 250.894531 339.28125 238.53125 343.304688 225.742188 345.796875 C 223.914062 335.078125 214.585938 326.914062 203.34375 326.914062 C 200.460938 326.914062 197.707031 327.457031 195.171875 328.4375 L 179.886719 302.074219 C 181.988281 299.839844 183.289062 296.839844 183.289062 293.527344 C 183.289062 286.636719 177.699219 281.050781 170.808594 281.050781 C 164.566406 281.050781 159.40625 285.640625 158.488281 291.625 L 102.089844 299.40625 C 99.261719 290.074219 90.59375 283.277344 80.335938 283.277344 C 75.792969 283.277344 71.5625 284.617188 68.011719 286.914062 C 60.242188 277.035156 53.59375 266.234375 48.265625 254.703125 C 51.554688 253.101562 54.234375 250.441406 55.867188 247.167969 L 90.664062 255.890625 C 90.660156 256.050781 90.652344 256.210938 90.652344 256.375 C 90.652344 265.546875 98.085938 272.984375 107.261719 272.984375 C 116.433594 272.984375 123.867188 265.546875 123.867188 256.375 C 123.867188 247.203125 116.433594 239.765625 107.261719 239.765625 C 106.457031 239.765625 105.667969 239.828125 104.894531 239.9375 L 98.117188 221.902344 L 91.445312 224.410156 L 98.21875 242.445312 C 95.742188 244.058594 93.71875 246.3125 92.390625 248.972656 L 57.59375 240.25 C 57.601562 240.089844 57.609375 239.929688 57.609375 239.765625 C 57.609375 230.59375 50.171875 223.160156 41 223.160156 C 31.824219 223.160156 24.390625 230.59375 24.390625 239.765625 C 24.390625 248.941406 31.824219 256.375 41 256.375 C 41.03125 256.375 41.0625 256.375 41.09375 256.371094 C 46.746094 268.929688 53.949219 280.8125 62.632812 291.761719 C 59.492188 295.660156 57.609375 300.613281 57.609375 306.007812 C 57.609375 318.558594 67.785156 328.738281 80.335938 328.738281 C 87.460938 328.738281 93.820312 325.453125 97.988281 320.324219 L 125.699219 336.335938 C 125.480469 337.261719 125.351562 338.226562 125.351562 339.226562 C 125.351562 346.117188 130.9375 351.703125 137.828125 351.703125 C 144.722656 351.703125 150.308594 346.117188 150.308594 339.226562 C 150.308594 332.332031 144.722656 326.746094 137.828125 326.746094 C 134.511719 326.746094 131.503906 328.050781 129.269531 330.160156 L 101.558594 314.148438 C 102.476562 311.761719 103 309.171875 103.054688 306.472656 L 159.460938 298.691406 C 161.425781 303.003906 165.761719 306.007812 170.808594 306.007812 C 171.8125 306.007812 172.78125 305.875 173.714844 305.652344 L 189 332.015625 C 184.253906 335.878906 181.101562 341.625 180.671875 348.117188 C 172.125 347.355469 163.769531 345.929688 155.652344 343.886719 C 155.019531 346.308594 153.898438 348.539062 152.40625 350.46875 C 161.824219 352.910156 171.492188 354.550781 181.335938 355.339844 C 183.863281 365.136719 192.757812 372.375 203.34375 372.375 C 214.730469 372.375 224.160156 364 225.8125 353.074219 C 240.195312 350.421875 254.152344 345.929688 267.363281 339.660156 " fill-opacity="1" fill-rule="nonzero"/></g></svg>