<svg xmlns="http://www.w3.org/2000/svg" xmlns:xlink="http://www.w3.org/1999/xlink" width="500" zoomAndPan="magnify" viewBox="0 0 375 374.999991" height="500" preserveAspectRatio="xMidYMid meet" version="1.0"><defs><g/><clipPath id="b2dfc041b7"><path d="M 34 47 L 60.65625 47 L 60.65625 66 L 34 66 Z M 34 47 " clip-rule="nonzero"/></clipPath><clipPath id="86dc97f40f"><path d="M 6 5.078125 L 60.65625 5.078125 L 60.65625 29 L 6 29 Z M 6 5.078125 " clip-rule="nonzero"/></clipPath><clipPath id="0d243a599f"><path d="M 0.121094 20 L 20 20 L 20 44 L 0.121094 44 Z M 0.121094 20 " clip-rule="nonzero"/></clipPath><clipPath id="986e7a7fb1"><path d="M 0.121094 44 L 45 44 L 45 71.570312 L 0.121094 71.570312 Z M 0.121094 44 " clip-rule="nonzero"/></clipPath></defs><g fill="#00a19a" fill-opacity="1"><g transform="translate(188.299357, 59.37788)"><g><path d="M 4.730469 0 L 35.9375 0 L 35.9375 -11.957031 L 17.648438 -11.957031 L 17.648438 -44.761719 L 4.730469 -44.761719 Z M 4.730469 0 "/></g></g></g><g fill="#00a19a" fill-opacity="1"><g transform="translate(225.836225, 59.37788)"><g><path d="M 21.679688 0.960938 C 33.378906 0.960938 41.308594 -6.265625 41.308594 -16.945312 C 41.308594 -27.5625 33.378906 -34.789062 21.679688 -34.789062 C 9.910156 -34.789062 1.980469 -27.5625 1.980469 -16.945312 C 1.980469 -6.265625 9.910156 0.960938 21.679688 0.960938 Z M 14.003906 -16.945312 C 14.003906 -21.421875 17.203125 -24.621094 21.679688 -24.621094 C 26.152344 -24.621094 29.289062 -21.421875 29.289062 -16.945312 C 29.289062 -12.40625 26.152344 -9.207031 21.679688 -9.207031 C 17.203125 -9.207031 14.003906 -12.40625 14.003906 -16.945312 Z M 14.003906 -16.945312 "/></g></g></g><g fill="#00a19a" fill-opacity="1"><g transform="translate(269.128338, 59.37788)"><g><path d="M 21.679688 0.960938 C 33.378906 0.960938 41.308594 -6.265625 41.308594 -16.945312 C 41.308594 -27.5625 33.378906 -34.789062 21.679688 -34.789062 C 9.910156 -34.789062 1.980469 -27.5625 1.980469 -16.945312 C 1.980469 -6.265625 9.910156 0.960938 21.679688 0.960938 Z M 14.003906 -16.945312 C 14.003906 -21.421875 17.203125 -24.621094 21.679688 -24.621094 C 26.152344 -24.621094 29.289062 -21.421875 29.289062 -16.945312 C 29.289062 -12.40625 26.152344 -9.207031 21.679688 -9.207031 C 17.203125 -9.207031 14.003906 -12.40625 14.003906 -16.945312 Z M 14.003906 -16.945312 "/></g></g></g><g fill="#00a19a" fill-opacity="1"><g transform="translate(312.420451, 59.37788)"><g><path d="M 4.285156 0 L 16.5625 0 L 16.5625 -18.609375 C 16.5625 -22.382812 18.542969 -24.621094 21.804688 -24.621094 C 24.9375 -24.621094 26.859375 -22.382812 26.859375 -18.738281 L 26.859375 0 L 38.945312 0 L 38.945312 -18.609375 C 38.945312 -22.382812 40.925781 -24.621094 44.1875 -24.621094 C 47.320312 -24.621094 49.238281 -22.382812 49.238281 -18.738281 L 49.238281 0 L 61.515625 0 L 61.515625 -19.953125 C 61.515625 -29.097656 55.953125 -34.789062 47.320312 -34.789062 C 42.203125 -34.789062 38.046875 -32.867188 35.425781 -29.542969 C 32.996094 -32.933594 29.160156 -34.789062 24.554688 -34.789062 C 20.335938 -34.789062 16.753906 -33.253906 14.324219 -30.503906 L 13.109375 -33.828125 L 4.285156 -33.828125 Z M 4.285156 0 "/></g></g></g><g fill="#38b6ff" fill-opacity="1"><g transform="translate(61.486728, 59.37788)"><g><path d="M 21.679688 0.960938 C 33.378906 0.960938 41.308594 -6.265625 41.308594 -16.945312 C 41.308594 -27.5625 33.378906 -34.789062 21.679688 -34.789062 C 9.910156 -34.789062 1.980469 -27.5625 1.980469 -16.945312 C 1.980469 -6.265625 9.910156 0.960938 21.679688 0.960938 Z M 14.003906 -16.945312 C 14.003906 -21.421875 17.203125 -24.621094 21.679688 -24.621094 C 26.152344 -24.621094 29.289062 -21.421875 29.289062 -16.945312 C 29.289062 -12.40625 26.152344 -9.207031 21.679688 -9.207031 C 17.203125 -9.207031 14.003906 -12.40625 14.003906 -16.945312 Z M 14.003906 -16.945312 "/></g></g></g><g fill="#38b6ff" fill-opacity="1"><g transform="translate(104.778841, 59.37788)"><g><path d="M 19.246094 0.960938 C 24.042969 0.960938 28.074219 -0.640625 31.078125 -3.390625 L 32.292969 0 L 41.117188 0 L 41.117188 -47.320312 L 28.839844 -47.320312 L 28.839844 -32.101562 C 26.152344 -33.828125 22.894531 -34.789062 19.246094 -34.789062 C 9.082031 -34.789062 1.980469 -27.433594 1.980469 -16.945312 C 1.980469 -6.332031 9.082031 0.960938 19.246094 0.960938 Z M 14.003906 -16.945312 C 14.003906 -21.421875 17.136719 -24.621094 21.679688 -24.621094 C 26.152344 -24.621094 29.289062 -21.421875 29.289062 -16.945312 C 29.289062 -12.40625 26.152344 -9.207031 21.679688 -9.207031 C 17.136719 -9.207031 14.003906 -12.40625 14.003906 -16.945312 Z M 14.003906 -16.945312 "/></g></g></g><g fill="#38b6ff" fill-opacity="1"><g transform="translate(150.181189, 59.37788)"><g><path d="M 21.101562 0.960938 C 29.863281 0.960938 36.578125 -3.390625 39.582031 -10.933594 L 27.6875 -10.933594 C 26.347656 -9.335938 23.980469 -8.3125 21.359375 -8.3125 C 17.90625 -8.3125 15.027344 -10.167969 14.132812 -13.875 L 40.222656 -13.875 C 40.863281 -26.472656 33.253906 -34.789062 21.167969 -34.789062 C 9.847656 -34.789062 1.980469 -27.496094 1.980469 -16.945312 C 1.980469 -6.332031 9.785156 0.960938 21.101562 0.960938 Z M 14.195312 -20.527344 C 15.21875 -23.789062 17.90625 -25.578125 21.292969 -25.578125 C 25.003906 -25.578125 27.496094 -23.660156 28.519531 -20.527344 Z M 14.195312 -20.527344 "/></g></g></g><g fill="#737373" fill-opacity="1"><g transform="translate(46.057113, 101.202174)"><g><path d="M 4.84375 0 L 2.546875 0 L 0.5 -15 L 2.125 -15 L 3.875 -2.234375 L 5.546875 -14.96875 L 7.203125 -14.96875 L 8.84375 -2.203125 L 10.546875 -15 L 12 -15 L 9.96875 0 L 7.75 0 L 6.3125 -10.171875 Z M 4.84375 0 "/></g></g></g><g fill="#737373" fill-opacity="1"><g transform="translate(67.121373, 101.202174)"><g><path d="M 6.1875 -8.359375 L 6.1875 -6.859375 L 2.53125 -6.859375 L 2.53125 -1.515625 L 7.03125 -1.515625 L 7.03125 0 L 0.859375 0 L 0.859375 -15 L 7.03125 -15 L 7.03125 -13.46875 L 2.53125 -13.46875 L 2.53125 -8.359375 Z M 6.1875 -8.359375 "/></g></g></g><g fill="#737373" fill-opacity="1"><g transform="translate(83.408461, 101.202174)"><g><path d="M 2.546875 -3.015625 L 1.96875 0 L 0.421875 0 L 3.296875 -15 L 5.71875 -15 L 8.59375 0 L 6.921875 0 L 6.34375 -3.015625 Z M 2.765625 -4.453125 L 6.109375 -4.453125 L 4.40625 -13.109375 Z M 2.765625 -4.453125 "/></g></g></g><g fill="#737373" fill-opacity="1"><g transform="translate(101.023729, 101.202174)"><g><path d="M 2.125 -15 L 4.5625 -1.953125 L 6.984375 -15 L 8.53125 -15 L 5.71875 0 L 3.25 0 L 0.421875 -15 Z M 2.125 -15 "/></g></g></g><g fill="#737373" fill-opacity="1"><g transform="translate(118.553315, 101.202174)"><g><path d="M 2.53125 -15 L 2.53125 0 L 0.859375 0 L 0.859375 -15 Z M 2.53125 -15 "/></g></g></g><g fill="#737373" fill-opacity="1"><g transform="translate(130.513083, 101.202174)"><g><path d="M 2.328125 0 L 0.828125 0 L 0.828125 -15 L 2.953125 -15 L 6.421875 -4.15625 L 6.421875 -15 L 7.90625 -15 L 7.90625 0 L 6.171875 0 L 2.328125 -12.125 Z M 2.328125 0 "/></g></g></g><g fill="#737373" fill-opacity="1"><g transform="translate(147.84986, 101.202174)"><g><path d="M 4.09375 -15.140625 C 5.25 -15.140625 6.097656 -14.796875 6.640625 -14.109375 C 7.191406 -13.429688 7.46875 -12.519531 7.46875 -11.375 L 7.46875 -10.09375 L 5.890625 -10.09375 L 5.890625 -11.453125 C 5.890625 -12.140625 5.75 -12.671875 5.46875 -13.046875 C 5.195312 -13.429688 4.753906 -13.625 4.140625 -13.625 C 3.535156 -13.625 3.085938 -13.429688 2.796875 -13.046875 C 2.515625 -12.671875 2.375 -12.140625 2.375 -11.453125 L 2.375 -3.53125 C 2.375 -2.84375 2.515625 -2.3125 2.796875 -1.9375 C 3.085938 -1.5625 3.535156 -1.375 4.140625 -1.375 C 4.753906 -1.375 5.195312 -1.5625 5.46875 -1.9375 C 5.75 -2.3125 5.890625 -2.84375 5.890625 -3.53125 L 5.890625 -6.53125 L 4.34375 -6.53125 L 4.34375 -8.03125 L 7.46875 -8.03125 L 7.46875 -3.625 C 7.46875 -2.476562 7.191406 -1.5625 6.640625 -0.875 C 6.097656 -0.1875 5.25 0.15625 4.09375 0.15625 C 2.945312 0.15625 2.097656 -0.1875 1.546875 -0.875 C 1.003906 -1.5625 0.734375 -2.476562 0.734375 -3.625 L 0.734375 -11.375 C 0.734375 -11.945312 0.800781 -12.460938 0.9375 -12.921875 C 1.070312 -13.390625 1.273438 -13.785156 1.546875 -14.109375 C 1.828125 -14.441406 2.175781 -14.695312 2.59375 -14.875 C 3.019531 -15.050781 3.519531 -15.140625 4.09375 -15.140625 Z M 4.09375 -15.140625 "/></g></g></g><g fill="#737373" fill-opacity="1"><g transform="translate(164.629644, 101.202174)"><g/></g></g><g fill="#737373" fill-opacity="1"><g transform="translate(176.525158, 101.202174)"><g><path d="M 3.015625 0 L 3.015625 -13.46875 L 0.25 -13.46875 L 0.25 -15 L 7.4375 -15 L 7.4375 -13.46875 L 4.671875 -13.46875 L 4.671875 0 Z M 3.015625 0 "/></g></g></g><g fill="#737373" fill-opacity="1"><g transform="translate(192.812249, 101.202174)"><g><path d="M 2.53125 -6.75 L 2.53125 0 L 0.859375 0 L 0.859375 -15 L 2.53125 -15 L 2.53125 -8.25 L 6.21875 -8.25 L 6.21875 -15 L 7.890625 -15 L 7.890625 0 L 6.21875 0 L 6.21875 -6.75 Z M 2.53125 -6.75 "/></g></g></g><g fill="#737373" fill-opacity="1"><g transform="translate(210.127593, 101.202174)"><g><path d="M 6.1875 -8.359375 L 6.1875 -6.859375 L 2.53125 -6.859375 L 2.53125 -1.515625 L 7.03125 -1.515625 L 7.03125 0 L 0.859375 0 L 0.859375 -15 L 7.03125 -15 L 7.03125 -13.46875 L 2.53125 -13.46875 L 2.53125 -8.359375 Z M 6.1875 -8.359375 "/></g></g></g><g fill="#737373" fill-opacity="1"><g transform="translate(226.414683, 101.202174)"><g/></g></g><g fill="#737373" fill-opacity="1"><g transform="translate(238.310186, 101.202174)"><g><path d="M 5.984375 -8.015625 L 5.984375 -6.484375 L 2.53125 -6.484375 L 2.53125 0 L 0.859375 0 L 0.859375 -15 L 6.8125 -15 L 6.8125 -13.46875 L 2.53125 -13.46875 L 2.53125 -8.015625 Z M 5.984375 -8.015625 "/></g></g></g><g fill="#737373" fill-opacity="1"><g transform="translate(254.168804, 101.202174)"><g><path d="M 2.4375 -3.53125 C 2.4375 -2.84375 2.578125 -2.3125 2.859375 -1.9375 C 3.140625 -1.5625 3.585938 -1.375 4.203125 -1.375 C 4.796875 -1.375 5.234375 -1.5625 5.515625 -1.9375 C 5.796875 -2.3125 5.9375 -2.84375 5.9375 -3.53125 L 5.9375 -15 L 7.5 -15 L 7.5 -3.625 C 7.5 -2.476562 7.226562 -1.554688 6.6875 -0.859375 C 6.144531 -0.171875 5.296875 0.171875 4.140625 0.171875 C 2.992188 0.171875 2.148438 -0.171875 1.609375 -0.859375 C 1.066406 -1.554688 0.796875 -2.476562 0.796875 -3.625 L 0.796875 -15 L 2.4375 -15 Z M 2.4375 -3.53125 "/></g></g></g><g fill="#737373" fill-opacity="1"><g transform="translate(271.034287, 101.202174)"><g><path d="M 3.015625 0 L 3.015625 -13.46875 L 0.25 -13.46875 L 0.25 -15 L 7.4375 -15 L 7.4375 -13.46875 L 4.671875 -13.46875 L 4.671875 0 Z M 3.015625 0 "/></g></g></g><g fill="#737373" fill-opacity="1"><g transform="translate(287.321367, 101.202174)"><g><path d="M 2.4375 -3.53125 C 2.4375 -2.84375 2.578125 -2.3125 2.859375 -1.9375 C 3.140625 -1.5625 3.585938 -1.375 4.203125 -1.375 C 4.796875 -1.375 5.234375 -1.5625 5.515625 -1.9375 C 5.796875 -2.3125 5.9375 -2.84375 5.9375 -3.53125 L 5.9375 -15 L 7.5 -15 L 7.5 -3.625 C 7.5 -2.476562 7.226562 -1.554688 6.6875 -0.859375 C 6.144531 -0.171875 5.296875 0.171875 4.140625 0.171875 C 2.992188 0.171875 2.148438 -0.171875 1.609375 -0.859375 C 1.066406 -1.554688 0.796875 -2.476562 0.796875 -3.625 L 0.796875 -15 L 2.4375 -15 Z M 2.4375 -3.53125 "/></g></g></g><g fill="#737373" fill-opacity="1"><g transform="translate(304.18685, 101.202174)"><g><path d="M 4.203125 -15 C 5.390625 -15 6.242188 -14.703125 6.765625 -14.109375 C 7.285156 -13.523438 7.546875 -12.675781 7.546875 -11.5625 L 7.546875 -10.34375 C 7.546875 -9.519531 7.394531 -8.847656 7.09375 -8.328125 C 6.789062 -7.816406 6.316406 -7.460938 5.671875 -7.265625 C 6.359375 -7.066406 6.84375 -6.695312 7.125 -6.15625 C 7.414062 -5.625 7.5625 -4.953125 7.5625 -4.140625 L 7.5625 -1.796875 C 7.5625 -1.472656 7.570312 -1.15625 7.59375 -0.84375 C 7.625 -0.539062 7.710938 -0.257812 7.859375 0 L 6.171875 0 C 6.066406 -0.21875 5.992188 -0.453125 5.953125 -0.703125 C 5.910156 -0.953125 5.890625 -1.328125 5.890625 -1.828125 L 5.890625 -4.171875 C 5.890625 -5.015625 5.695312 -5.597656 5.3125 -5.921875 C 4.9375 -6.242188 4.398438 -6.40625 3.703125 -6.40625 L 2.53125 -6.40625 L 2.53125 0 L 0.859375 0 L 0.859375 -15 Z M 3.765625 -7.921875 C 4.441406 -7.921875 4.960938 -8.0625 5.328125 -8.34375 C 5.703125 -8.625 5.890625 -9.171875 5.890625 -9.984375 L 5.890625 -11.421875 C 5.890625 -12.109375 5.753906 -12.617188 5.484375 -12.953125 C 5.222656 -13.296875 4.78125 -13.46875 4.15625 -13.46875 L 2.53125 -13.46875 L 2.53125 -7.921875 Z M 3.765625 -7.921875 "/></g></g></g><g fill="#737373" fill-opacity="1"><g transform="translate(321.202275, 101.202174)"><g><path d="M 6.1875 -8.359375 L 6.1875 -6.859375 L 2.53125 -6.859375 L 2.53125 -1.515625 L 7.03125 -1.515625 L 7.03125 0 L 0.859375 0 L 0.859375 -15 L 7.03125 -15 L 7.03125 -13.46875 L 2.53125 -13.46875 L 2.53125 -8.359375 Z M 6.1875 -8.359375 "/></g></g></g><g clip-path="url(#b2dfc041b7)"><path fill="#00a19a" d="M 48.472656 50.507812 C 48.472656 51.265625 47.851562 51.886719 47.09375 51.886719 C 46.332031 51.886719 45.714844 51.265625 45.714844 50.507812 C 45.714844 49.746094 46.332031 49.128906 47.09375 49.128906 C 47.851562 49.128906 48.472656 49.746094 48.472656 50.507812 Z M 60.179688 50.507812 C 60.179688 49.273438 59.179688 48.273438 57.945312 48.273438 C 56.933594 48.273438 56.078125 48.945312 55.804688 49.871094 L 49.996094 49.871094 C 49.707031 48.535156 48.515625 47.535156 47.09375 47.535156 C 45.453125 47.535156 44.121094 48.867188 44.121094 50.507812 C 44.121094 51.261719 44.402344 51.949219 44.863281 52.476562 C 43.195312 54.03125 41.285156 55.273438 39.21875 56.15625 C 38.964844 55.199219 38.097656 54.496094 37.0625 54.496094 C 35.828125 54.496094 34.828125 55.496094 34.828125 56.730469 C 34.828125 57.964844 35.828125 58.964844 37.0625 58.964844 C 38 58.964844 38.800781 58.386719 39.132812 57.570312 C 41.636719 56.589844 43.941406 55.128906 45.917969 53.238281 C 46.089844 53.3125 46.269531 53.371094 46.457031 53.410156 L 46.457031 59.460938 C 45.832031 59.597656 45.28125 59.929688 44.871094 60.390625 L 40.464844 57.921875 L 39.84375 59.039062 L 44.246094 61.503906 C 44.164062 61.777344 44.121094 62.066406 44.121094 62.367188 C 44.121094 64.007812 45.453125 65.339844 47.09375 65.339844 C 48.734375 65.339844 50.066406 64.007812 50.066406 62.367188 C 50.066406 60.941406 49.066406 59.753906 47.730469 59.460938 L 47.730469 53.410156 C 48.84375 53.167969 49.726562 52.300781 49.984375 51.195312 L 55.820312 51.195312 C 55.976562 51.675781 56.289062 52.085938 56.699219 52.359375 C 55.03125 55.296875 52.882812 57.878906 50.382812 60.027344 C 50.640625 60.386719 50.839844 60.792969 50.964844 61.226562 C 53.792969 58.847656 56.15625 55.976562 57.949219 52.742188 C 59.179688 52.738281 60.179688 51.742188 60.179688 50.507812 " fill-opacity="1" fill-rule="nonzero"/></g><g clip-path="url(#86dc97f40f)"><path fill="#1976d2" d="M 58.582031 25.183594 C 58.582031 25.941406 57.964844 26.558594 57.207031 26.558594 C 56.445312 26.558594 55.828125 25.941406 55.828125 25.183594 C 55.828125 24.421875 56.445312 23.804688 57.207031 23.804688 C 57.964844 23.804688 58.582031 24.421875 58.582031 25.183594 Z M 45.996094 14.0625 C 44.925781 14.0625 44.054688 13.191406 44.054688 12.121094 C 44.054688 11.050781 44.925781 10.179688 45.996094 10.179688 C 47.066406 10.179688 47.9375 11.050781 47.9375 12.121094 C 47.9375 13.191406 47.066406 14.0625 45.996094 14.0625 Z M 28.546875 8.054688 C 28.546875 8.8125 27.929688 9.429688 27.167969 9.429688 C 26.410156 9.429688 25.789062 8.8125 25.789062 8.054688 C 25.789062 7.292969 26.410156 6.675781 27.167969 6.675781 C 27.929688 6.675781 28.546875 7.292969 28.546875 8.054688 Z M 25.039062 19.492188 C 25.039062 20.5625 24.171875 21.433594 23.097656 21.433594 C 22.027344 21.433594 21.15625 20.5625 21.15625 19.492188 C 21.15625 18.421875 22.027344 17.550781 23.097656 17.550781 C 24.171875 17.550781 25.039062 18.421875 25.039062 19.492188 Z M 60.179688 25.183594 C 60.179688 23.539062 58.847656 22.207031 57.207031 22.207031 C 55.617188 22.207031 54.320312 23.457031 54.234375 25.023438 L 49.140625 25.023438 C 48.855469 24.375 48.269531 23.886719 47.558594 23.738281 L 46.953125 16.078125 C 47.453125 15.957031 47.917969 15.746094 48.328125 15.457031 L 53.773438 21.101562 L 54.691406 20.214844 L 49.246094 14.570312 C 49.761719 13.890625 50.066406 13.042969 50.066406 12.121094 C 50.066406 9.875 48.246094 8.054688 45.996094 8.054688 C 44.539062 8.054688 43.261719 8.820312 42.542969 9.976562 C 39.050781 8.605469 35.320312 7.894531 31.511719 7.894531 C 31.054688 7.894531 30.59375 7.90625 30.136719 7.925781 C 30.070312 6.34375 28.769531 5.082031 27.167969 5.082031 C 25.527344 5.082031 24.195312 6.410156 24.195312 8.054688 C 24.195312 8.296875 24.226562 8.535156 24.28125 8.761719 C 19.671875 9.890625 15.390625 12.09375 11.75 15.253906 C 12.023438 15.605469 12.226562 16.015625 12.335938 16.457031 C 15.855469 13.335938 20.140625 11.058594 24.871094 9.941406 C 25.074219 10.191406 25.320312 10.402344 25.59375 10.574219 L 23.84375 15.492188 C 23.601562 15.449219 23.355469 15.421875 23.097656 15.421875 C 21.292969 15.421875 19.765625 16.601562 19.230469 18.226562 L 11.351562 16.964844 C 11.207031 15.871094 10.269531 15.023438 9.136719 15.023438 C 7.902344 15.023438 6.902344 16.023438 6.902344 17.257812 C 6.902344 18.492188 7.902344 19.492188 9.136719 19.492188 C 10.023438 19.492188 10.785156 18.976562 11.148438 18.226562 L 19.03125 19.488281 L 19.03125 19.492188 C 19.03125 21.738281 20.851562 23.5625 23.097656 23.5625 C 25.347656 23.5625 27.167969 21.738281 27.167969 19.492188 C 27.167969 17.949219 26.3125 16.609375 25.046875 15.921875 L 26.796875 11.003906 C 26.917969 11.019531 27.042969 11.027344 27.167969 11.027344 C 27.832031 11.027344 28.445312 10.808594 28.9375 10.441406 L 35.207031 15.90625 L 36.046875 14.941406 L 29.777344 9.480469 C 29.824219 9.394531 29.867188 9.308594 29.90625 9.21875 C 30.4375 9.1875 30.972656 9.171875 31.511719 9.171875 C 35.171875 9.171875 38.738281 9.875 42.042969 11.171875 C 41.96875 11.476562 41.929688 11.792969 41.929688 12.121094 C 41.929688 14.261719 43.582031 16.015625 45.679688 16.179688 L 46.246094 23.300781 C 44.613281 21.671875 42.742188 20.339844 40.710938 19.34375 C 40.722656 19.253906 40.730469 19.160156 40.730469 19.0625 C 40.730469 17.832031 39.730469 16.832031 38.5 16.832031 C 37.714844 16.832031 37.023438 17.234375 36.625 17.847656 C 34.976562 17.433594 33.261719 17.21875 31.511719 17.21875 C 30.261719 17.21875 29.039062 17.332031 27.847656 17.542969 C 28.007812 17.933594 28.121094 18.351562 28.183594 18.78125 C 29.265625 18.59375 30.378906 18.496094 31.511719 18.496094 C 33.136719 18.496094 34.730469 18.695312 36.265625 19.074219 C 36.269531 20.304688 37.269531 21.296875 38.5 21.296875 C 39.179688 21.296875 39.785156 20.992188 40.195312 20.511719 C 42.148438 21.476562 43.941406 22.773438 45.496094 24.359375 C 45.101562 24.761719 44.859375 25.3125 44.859375 25.921875 C 44.859375 27.15625 45.859375 28.15625 47.09375 28.15625 C 48.199219 28.15625 49.113281 27.351562 49.292969 26.300781 L 54.449219 26.300781 C 54.894531 27.386719 55.960938 28.15625 57.207031 28.15625 C 58.847656 28.15625 60.179688 26.824219 60.179688 25.183594 " fill-opacity="1" fill-rule="nonzero"/></g><g clip-path="url(#0d243a599f)"><path fill="#1976d2" d="M 3.542969 30.390625 C 3.542969 31.035156 3.015625 31.558594 2.371094 31.558594 C 1.726562 31.558594 1.203125 31.035156 1.203125 30.390625 C 1.203125 29.742188 1.726562 29.21875 2.371094 29.21875 C 3.015625 29.21875 3.542969 29.742188 3.542969 30.390625 Z M 10.972656 37.339844 C 12.042969 37.339844 12.914062 38.210938 12.914062 39.277344 C 12.914062 40.351562 12.042969 41.222656 10.972656 41.222656 C 9.902344 41.222656 9.03125 40.351562 9.03125 39.277344 C 9.03125 38.210938 9.902344 37.339844 10.972656 37.339844 Z M 19.214844 22.84375 C 18.9375 22.519531 18.699219 22.164062 18.503906 21.777344 C 17.121094 22.882812 15.882812 24.15625 14.816406 25.570312 C 14.460938 25.324219 14.027344 25.183594 13.558594 25.183594 C 12.347656 25.183594 11.363281 26.144531 11.328125 27.347656 L 4.273438 29.222656 C 4.214844 29.121094 4.144531 29.027344 4.070312 28.9375 C 5.097656 25.867188 6.628906 23.023438 8.5625 20.503906 C 8.109375 20.425781 7.6875 20.253906 7.316406 20.007812 C 5.425781 22.519531 3.960938 25.292969 2.949219 28.234375 C 2.761719 28.183594 2.570312 28.15625 2.371094 28.15625 C 1.136719 28.15625 0.136719 29.15625 0.136719 30.390625 C 0.136719 31.402344 0.8125 32.253906 1.734375 32.527344 L 1.734375 43.347656 L 3.011719 43.347656 L 3.011719 32.527344 C 3.910156 32.261719 4.574219 31.4375 4.601562 30.457031 L 11.65625 28.582031 C 11.867188 28.925781 12.167969 29.210938 12.53125 29.398438 C 11.695312 31.210938 11.113281 33.167969 10.828125 35.214844 C 8.648438 35.289062 6.902344 37.082031 6.902344 39.277344 C 6.902344 41.527344 8.726562 43.347656 10.972656 43.347656 C 13.21875 43.347656 15.042969 41.527344 15.042969 39.277344 C 15.042969 37.421875 13.796875 35.855469 12.09375 35.367188 C 12.378906 33.339844 12.976562 31.410156 13.832031 29.632812 C 14.9375 29.496094 15.792969 28.554688 15.792969 27.414062 C 15.792969 27.128906 15.738281 26.859375 15.640625 26.609375 C 16.660156 25.203125 17.863281 23.933594 19.214844 22.84375 " fill-opacity="1" fill-rule="nonzero"/></g><g clip-path="url(#986e7a7fb1)"><path fill="#00a19a" d="M 34.933594 67.203125 C 34.933594 68.273438 34.0625 69.144531 32.992188 69.144531 C 31.921875 69.144531 31.050781 68.273438 31.050781 67.203125 C 31.050781 66.132812 31.921875 65.261719 32.992188 65.261719 C 34.0625 65.261719 34.933594 66.132812 34.933594 67.203125 Z M 28.339844 57.160156 C 28.339844 57.804688 27.8125 58.328125 27.167969 58.328125 C 26.523438 58.328125 26 57.804688 26 57.160156 C 26 56.511719 26.523438 55.988281 27.167969 55.988281 C 27.8125 55.988281 28.339844 56.511719 28.339844 57.160156 Z M 3.929688 48.910156 C 3.171875 48.910156 2.550781 48.292969 2.550781 47.535156 C 2.550781 46.773438 3.171875 46.15625 3.929688 46.15625 C 4.6875 46.15625 5.308594 46.773438 5.308594 47.535156 C 5.308594 48.292969 4.6875 48.910156 3.929688 48.910156 Z M 14.414062 50.507812 C 14.414062 49.746094 15.03125 49.128906 15.792969 49.128906 C 16.550781 49.128906 17.167969 49.746094 17.167969 50.507812 C 17.167969 51.265625 16.550781 51.886719 15.792969 51.886719 C 15.03125 51.886719 14.414062 51.265625 14.414062 50.507812 Z M 44.453125 65.417969 C 44.113281 65.121094 43.824219 64.773438 43.597656 64.382812 C 41.507812 65.351562 39.292969 66.070312 37.003906 66.515625 C 36.675781 64.597656 35.003906 63.136719 32.992188 63.136719 C 32.476562 63.136719 31.984375 63.234375 31.53125 63.410156 L 28.792969 58.6875 C 29.171875 58.289062 29.402344 57.75 29.402344 57.160156 C 29.402344 55.925781 28.402344 54.925781 27.167969 54.925781 C 26.050781 54.925781 25.128906 55.746094 24.964844 56.816406 L 14.867188 58.210938 C 14.359375 56.539062 12.808594 55.324219 10.972656 55.324219 C 10.160156 55.324219 9.402344 55.5625 8.765625 55.972656 C 7.375 54.207031 6.183594 52.273438 5.230469 50.207031 C 5.820312 49.921875 6.300781 49.445312 6.589844 48.859375 L 12.820312 50.421875 C 12.820312 50.449219 12.820312 50.476562 12.820312 50.507812 C 12.820312 52.148438 14.148438 53.480469 15.792969 53.480469 C 17.433594 53.480469 18.765625 52.148438 18.765625 50.507812 C 18.765625 48.867188 17.433594 47.535156 15.792969 47.535156 C 15.648438 47.535156 15.507812 47.542969 15.367188 47.566406 L 14.15625 44.335938 L 12.960938 44.785156 L 14.171875 48.015625 C 13.730469 48.300781 13.367188 48.707031 13.128906 49.183594 L 6.902344 47.621094 C 6.902344 47.59375 6.902344 47.5625 6.902344 47.535156 C 6.902344 45.890625 5.570312 44.5625 3.929688 44.5625 C 2.289062 44.5625 0.957031 45.890625 0.957031 47.535156 C 0.957031 49.175781 2.289062 50.507812 3.929688 50.507812 C 3.933594 50.507812 3.941406 50.507812 3.945312 50.507812 C 4.957031 52.753906 6.246094 54.882812 7.800781 56.84375 C 7.238281 57.539062 6.902344 58.425781 6.902344 59.394531 C 6.902344 61.640625 8.726562 63.460938 10.972656 63.460938 C 12.246094 63.460938 13.386719 62.875 14.132812 61.957031 L 19.09375 64.820312 C 19.054688 64.988281 19.03125 65.160156 19.03125 65.339844 C 19.03125 66.574219 20.03125 67.574219 21.265625 67.574219 C 22.5 67.574219 23.5 66.574219 23.5 65.339844 C 23.5 64.105469 22.5 63.105469 21.265625 63.105469 C 20.671875 63.105469 20.132812 63.339844 19.730469 63.71875 L 14.769531 60.851562 C 14.933594 60.421875 15.027344 59.960938 15.039062 59.476562 L 25.136719 58.082031 C 25.488281 58.855469 26.265625 59.394531 27.167969 59.394531 C 27.347656 59.394531 27.523438 59.371094 27.6875 59.328125 L 30.425781 64.050781 C 29.574219 64.742188 29.011719 65.769531 28.933594 66.929688 C 27.402344 66.792969 25.90625 66.539062 24.457031 66.171875 C 24.339844 66.609375 24.140625 67.007812 23.875 67.351562 C 25.558594 67.789062 27.292969 68.082031 29.054688 68.222656 C 29.503906 69.976562 31.097656 71.273438 32.992188 71.273438 C 35.03125 71.273438 36.71875 69.773438 37.015625 67.820312 C 39.589844 67.34375 42.089844 66.539062 44.453125 65.417969 " fill-opacity="1" fill-rule="nonzero"/></g></svg>