<svg xmlns="http://www.w3.org/2000/svg" xmlns:xlink="http://www.w3.org/1999/xlink" width="500" zoomAndPan="magnify" viewBox="0 0 375 374.999991" height="500" preserveAspectRatio="xMidYMid meet" version="1.0"><defs><g/><clipPath id="e55f9ec0a4"><path d="M 34 47 L 60.121094 47 L 60.121094 66 L 34 66 Z M 34 47 " clip-rule="nonzero"/></clipPath><clipPath id="5b7ce41a53"><path d="M 6 5.078125 L 60.121094 5.078125 L 60.121094 29 L 6 29 Z M 6 5.078125 " clip-rule="nonzero"/></clipPath><clipPath id="f9feed9ca2"><path d="M 0.121094 20 L 20 20 L 20 44 L 0.121094 44 Z M 0.121094 20 " clip-rule="nonzero"/></clipPath><clipPath id="3825c5e609"><path d="M 0.121094 44 L 45 44 L 45 71.078125 L 0.121094 71.078125 Z M 0.121094 44 " clip-rule="nonzero"/></clipPath></defs><g fill="#00a19a" fill-opacity="1"><g transform="translate(188.299328, 59.377877)"><g><path d="M 4.730469 0 L 35.9375 0 L 35.9375 -11.957031 L 17.648438 -11.957031 L 17.648438 -44.761719 L 4.730469 -44.761719 Z M 4.730469 0 "/></g></g></g><g fill="#00a19a" fill-opacity="1"><g transform="translate(225.836194, 59.377877)"><g><path d="M 21.679688 0.960938 C 33.378906 0.960938 41.308594 -6.265625 41.308594 -16.945312 C 41.308594 -27.5625 33.378906 -34.789062 21.679688 -34.789062 C 9.910156 -34.789062 1.980469 -27.5625 1.980469 -16.945312 C 1.980469 -6.265625 9.910156 0.960938 21.679688 0.960938 Z M 14.003906 -16.945312 C 14.003906 -21.421875 17.203125 -24.621094 21.679688 -24.621094 C 26.152344 -24.621094 29.289062 -21.421875 29.289062 -16.945312 C 29.289062 -12.40625 26.152344 -9.207031 21.679688 -9.207031 C 17.203125 -9.207031 14.003906 -12.40625 14.003906 -16.945312 Z M 14.003906 -16.945312 "/></g></g></g><g fill="#00a19a" fill-opacity="1"><g transform="translate(269.128304, 59.377877)"><g><path d="M 21.679688 0.960938 C 33.378906 0.960938 41.308594 -6.265625 41.308594 -16.945312 C 41.308594 -27.5625 33.378906 -34.789062 21.679688 -34.789062 C 9.910156 -34.789062 1.980469 -27.5625 1.980469 -16.945312 C 1.980469 -6.265625 9.910156 0.960938 21.679688 0.960938 Z M 14.003906 -16.945312 C 14.003906 -21.421875 17.203125 -24.621094 21.679688 -24.621094 C 26.152344 -24.621094 29.289062 -21.421875 29.289062 -16.945312 C 29.289062 -12.40625 26.152344 -9.207031 21.679688 -9.207031 C 17.203125 -9.207031 14.003906 -12.40625 14.003906 -16.945312 Z M 14.003906 -16.945312 "/></g></g></g><g fill="#00a19a" fill-opacity="1"><g transform="translate(312.420414, 59.377877)"><g><path d="M 4.285156 0 L 16.5625 0 L 16.5625 -18.609375 C 16.5625 -22.382812 18.542969 -24.621094 21.804688 -24.621094 C 24.9375 -24.621094 26.859375 -22.382812 26.859375 -18.738281 L 26.859375 0 L 38.945312 0 L 38.945312 -18.609375 C 38.945312 -22.382812 40.925781 -24.621094 44.1875 -24.621094 C 47.320312 -24.621094 49.238281 -22.382812 49.238281 -18.738281 L 49.238281 0 L 61.515625 0 L 61.515625 -19.953125 C 61.515625 -29.097656 55.953125 -34.789062 47.320312 -34.789062 C 42.203125 -34.789062 38.046875 -32.867188 35.425781 -29.542969 C 32.996094 -32.933594 29.160156 -34.789062 24.554688 -34.789062 C 20.335938 -34.789062 16.753906 -33.253906 14.324219 -30.503906 L 13.109375 -33.828125 L 4.285156 -33.828125 Z M 4.285156 0 "/></g></g></g><g fill="#38b6ff" fill-opacity="1"><g transform="translate(61.486727, 59.377877)"><g><path d="M 21.679688 0.960938 C 33.378906 0.960938 41.308594 -6.265625 41.308594 -16.945312 C 41.308594 -27.5625 33.378906 -34.789062 21.679688 -34.789062 C 9.910156 -34.789062 1.980469 -27.5625 1.980469 -16.945312 C 1.980469 -6.265625 9.910156 0.960938 21.679688 0.960938 Z M 14.003906 -16.945312 C 14.003906 -21.421875 17.203125 -24.621094 21.679688 -24.621094 C 26.152344 -24.621094 29.289062 -21.421875 29.289062 -16.945312 C 29.289062 -12.40625 26.152344 -9.207031 21.679688 -9.207031 C 17.203125 -9.207031 14.003906 -12.40625 14.003906 -16.945312 Z M 14.003906 -16.945312 "/></g></g></g><g fill="#38b6ff" fill-opacity="1"><g transform="translate(104.778837, 59.377877)"><g><path d="M 19.246094 0.960938 C 24.042969 0.960938 28.074219 -0.640625 31.078125 -3.390625 L 32.292969 0 L 41.117188 0 L 41.117188 -47.320312 L 28.839844 -47.320312 L 28.839844 -32.101562 C 26.152344 -33.828125 22.894531 -34.789062 19.246094 -34.789062 C 9.082031 -34.789062 1.980469 -27.433594 1.980469 -16.945312 C 1.980469 -6.332031 9.082031 0.960938 19.246094 0.960938 Z M 14.003906 -16.945312 C 14.003906 -21.421875 17.136719 -24.621094 21.679688 -24.621094 C 26.152344 -24.621094 29.289062 -21.421875 29.289062 -16.945312 C 29.289062 -12.40625 26.152344 -9.207031 21.679688 -9.207031 C 17.136719 -9.207031 14.003906 -12.40625 14.003906 -16.945312 Z M 14.003906 -16.945312 "/></g></g></g><g fill="#38b6ff" fill-opacity="1"><g transform="translate(150.181182, 59.377877)"><g><path d="M 21.101562 0.960938 C 29.863281 0.960938 36.578125 -3.390625 39.582031 -10.933594 L 27.6875 -10.933594 C 26.347656 -9.335938 23.980469 -8.3125 21.359375 -8.3125 C 17.90625 -8.3125 15.027344 -10.167969 14.132812 -13.875 L 40.222656 -13.875 C 40.863281 -26.472656 33.253906 -34.789062 21.167969 -34.789062 C 9.847656 -34.789062 1.980469 -27.496094 1.980469 -16.945312 C 1.980469 -6.332031 9.785156 0.960938 21.101562 0.960938 Z M 14.195312 -20.527344 C 15.21875 -23.789062 17.90625 -25.578125 21.292969 -25.578125 C 25.003906 -25.578125 27.496094 -23.660156 28.519531 -20.527344 Z M 14.195312 -20.527344 "/></g></g></g><g fill="#737373" fill-opacity="1"><g transform="translate(125.727549, 108.050815)"><g><path d="M 1.140625 -2.359375 L 15.359375 -3.609375 L 14.21875 -8.78125 L 3.203125 -7.5 L 1.875 -8.71875 L 2.234375 -17.203125 L 3.53125 -18.34375 L 16.9375 -17.09375 L 16.734375 -14.703125 L 4.578125 -15.828125 L 4.328125 -10.046875 L 15.015625 -11.25 L 16.3125 -10.328125 L 18.015625 -2.796875 L 16.921875 -1.328125 L 1.375 0 Z M 1.140625 -2.359375 "/></g></g></g><g fill="#737373" fill-opacity="1"><g transform="translate(155.051099, 108.050815)"><g><path d="M 2.234375 -1.53125 L 1.265625 -2.875 L 2.5 -11.9375 L 3.5625 -12.953125 L 11.015625 -13.5625 L 12.1875 -12.921875 L 14.34375 -8.65625 L 13.5 -6.9375 L 5.59375 -5.296875 L 5.09375 -7.609375 L 11.46875 -8.984375 L 10.40625 -11.09375 L 4.703125 -10.65625 L 3.796875 -3.65625 L 12.546875 -2.03125 L 12.078125 0.3125 Z M 2.234375 -1.53125 "/></g></g></g><g fill="#737373" fill-opacity="1"><g transform="translate(179.822737, 108.050815)"><g><path d="M 1.265625 -0.109375 L 3.453125 -15.46875 L 5.828125 -15.15625 L 3.65625 0.234375 Z M 1.265625 -0.109375 "/></g></g></g><g fill="#737373" fill-opacity="1"><g transform="translate(196.329729, 108.050815)"><g><path d="M 1.265625 -0.109375 L 3.453125 -15.46875 L 5.828125 -15.15625 L 3.65625 0.234375 Z M 1.265625 -0.109375 "/></g></g></g><g fill="#737373" fill-opacity="1"><g transform="translate(212.83672, 108.050815)"><g><path d="M 12.109375 -7.8125 L 12.546875 -5.421875 L 5.265625 -4.203125 L 3.078125 0.609375 L 0.890625 -0.359375 L 9.359375 -18.875 L 11.546875 -18.90625 L 19.28125 -2.640625 L 17.125 -1.609375 L 10.453125 -15.546875 L 6.484375 -6.84375 Z M 12.109375 -7.8125 "/></g></g></g><g fill="#737373" fill-opacity="1"><g transform="translate(243.177454, 108.050815)"><g><path d="M 1.65625 -0.484375 L 2.515625 -17.953125 L 4.9375 -17.828125 L 4.046875 -0.359375 Z M 1.65625 -0.484375 "/></g></g></g><g clip-path="url(#e55f9ec0a4)"><path fill="#00a19a" d="M 48.480469 50.511719 C 48.480469 51.269531 47.859375 51.890625 47.101562 51.890625 C 46.339844 51.890625 45.722656 51.269531 45.722656 50.511719 C 45.722656 49.75 46.339844 49.132812 47.101562 49.132812 C 47.859375 49.132812 48.480469 49.75 48.480469 50.511719 Z M 60.1875 50.511719 C 60.1875 49.277344 59.1875 48.277344 57.953125 48.277344 C 56.941406 48.277344 56.089844 48.949219 55.8125 49.871094 L 50.003906 49.871094 C 49.714844 48.539062 48.523438 47.539062 47.101562 47.539062 C 45.460938 47.539062 44.128906 48.867188 44.128906 50.511719 C 44.128906 51.265625 44.410156 51.953125 44.871094 52.480469 C 43.203125 54.035156 41.292969 55.277344 39.226562 56.160156 C 38.972656 55.203125 38.105469 54.5 37.070312 54.5 C 35.835938 54.5 34.835938 55.5 34.835938 56.734375 C 34.835938 57.96875 35.835938 58.96875 37.070312 58.96875 C 38.007812 58.96875 38.808594 58.390625 39.140625 57.574219 C 41.644531 56.59375 43.949219 55.132812 45.925781 53.242188 C 46.097656 53.316406 46.277344 53.375 46.464844 53.414062 L 46.464844 59.464844 C 45.839844 59.601562 45.289062 59.933594 44.878906 60.394531 L 40.472656 57.929688 L 39.851562 59.042969 L 44.253906 61.507812 C 44.171875 61.78125 44.128906 62.070312 44.128906 62.371094 C 44.128906 64.011719 45.460938 65.34375 47.101562 65.34375 C 48.742188 65.34375 50.074219 64.011719 50.074219 62.371094 C 50.074219 60.949219 49.074219 59.757812 47.738281 59.464844 L 47.738281 53.414062 C 48.851562 53.171875 49.734375 52.304688 49.996094 51.199219 L 55.828125 51.199219 C 55.984375 51.679688 56.296875 52.089844 56.707031 52.363281 C 55.042969 55.300781 52.890625 57.882812 50.390625 60.03125 C 50.648438 60.390625 50.847656 60.796875 50.972656 61.230469 C 53.800781 58.855469 56.164062 55.980469 57.957031 52.746094 C 59.1875 52.742188 60.1875 51.742188 60.1875 50.511719 " fill-opacity="1" fill-rule="nonzero"/></g><g clip-path="url(#5b7ce41a53)"><path fill="#1976d2" d="M 58.59375 25.183594 C 58.59375 25.941406 57.972656 26.5625 57.214844 26.5625 C 56.453125 26.5625 55.835938 25.941406 55.835938 25.183594 C 55.835938 24.425781 56.453125 23.804688 57.214844 23.804688 C 57.972656 23.804688 58.59375 24.425781 58.59375 25.183594 Z M 46.003906 14.066406 C 44.933594 14.066406 44.0625 13.195312 44.0625 12.121094 C 44.0625 11.050781 44.933594 10.183594 46.003906 10.183594 C 47.074219 10.183594 47.945312 11.050781 47.945312 12.121094 C 47.945312 13.195312 47.074219 14.066406 46.003906 14.066406 Z M 28.550781 8.054688 C 28.550781 8.8125 27.933594 9.429688 27.175781 9.429688 C 26.414062 9.429688 25.796875 8.8125 25.796875 8.054688 C 25.796875 7.292969 26.414062 6.675781 27.175781 6.675781 C 27.933594 6.675781 28.550781 7.292969 28.550781 8.054688 Z M 25.046875 19.492188 C 25.046875 20.5625 24.175781 21.433594 23.105469 21.433594 C 22.035156 21.433594 21.164062 20.5625 21.164062 19.492188 C 21.164062 18.421875 22.035156 17.550781 23.105469 17.550781 C 24.175781 17.550781 25.046875 18.421875 25.046875 19.492188 Z M 60.1875 25.183594 C 60.1875 23.542969 58.855469 22.210938 57.214844 22.210938 C 55.625 22.210938 54.328125 23.457031 54.246094 25.027344 L 49.148438 25.027344 C 48.863281 24.375 48.277344 23.890625 47.566406 23.738281 L 46.960938 16.078125 C 47.460938 15.957031 47.925781 15.746094 48.335938 15.457031 L 53.78125 21.105469 L 54.699219 20.21875 L 49.253906 14.574219 C 49.769531 13.890625 50.074219 13.042969 50.074219 12.121094 C 50.074219 9.875 48.253906 8.054688 46.003906 8.054688 C 44.546875 8.054688 43.265625 8.820312 42.550781 9.976562 C 39.058594 8.605469 35.328125 7.894531 31.519531 7.894531 C 31.058594 7.894531 30.601562 7.90625 30.144531 7.925781 C 30.078125 6.34375 28.773438 5.082031 27.175781 5.082031 C 25.53125 5.082031 24.199219 6.410156 24.199219 8.054688 C 24.199219 8.296875 24.230469 8.535156 24.285156 8.761719 C 19.675781 9.890625 15.398438 12.097656 11.757812 15.253906 C 12.027344 15.605469 12.230469 16.015625 12.339844 16.460938 C 15.863281 13.335938 20.148438 11.058594 24.878906 9.941406 C 25.082031 10.191406 25.324219 10.40625 25.601562 10.574219 L 23.851562 15.492188 C 23.609375 15.449219 23.359375 15.425781 23.105469 15.425781 C 21.300781 15.425781 19.769531 16.601562 19.238281 18.226562 L 11.355469 16.96875 C 11.210938 15.871094 10.277344 15.027344 9.140625 15.027344 C 7.90625 15.027344 6.90625 16.027344 6.90625 17.257812 C 6.90625 18.492188 7.90625 19.492188 9.140625 19.492188 C 10.027344 19.492188 10.792969 18.976562 11.152344 18.226562 L 19.035156 19.488281 L 19.035156 19.492188 C 19.035156 21.742188 20.859375 23.5625 23.105469 23.5625 C 25.351562 23.5625 27.175781 21.742188 27.175781 19.492188 C 27.175781 17.953125 26.316406 16.613281 25.054688 15.921875 L 26.804688 11.003906 C 26.925781 11.019531 27.046875 11.027344 27.175781 11.027344 C 27.835938 11.027344 28.449219 10.808594 28.945312 10.441406 L 35.214844 15.90625 L 36.050781 14.941406 L 29.785156 9.480469 C 29.832031 9.394531 29.871094 9.308594 29.910156 9.21875 C 30.445312 9.1875 30.980469 9.171875 31.519531 9.171875 C 35.179688 9.171875 38.742188 9.875 42.050781 11.171875 C 41.976562 11.476562 41.9375 11.796875 41.9375 12.121094 C 41.9375 14.261719 43.589844 16.015625 45.6875 16.179688 L 46.253906 23.300781 C 44.621094 21.671875 42.75 20.34375 40.71875 19.34375 C 40.730469 19.253906 40.738281 19.160156 40.738281 19.066406 C 40.738281 17.832031 39.738281 16.832031 38.503906 16.832031 C 37.71875 16.832031 37.03125 17.238281 36.632812 17.847656 C 34.984375 17.4375 33.269531 17.222656 31.519531 17.222656 C 30.269531 17.222656 29.042969 17.332031 27.851562 17.542969 C 28.015625 17.933594 28.128906 18.351562 28.1875 18.78125 C 29.269531 18.597656 30.382812 18.5 31.519531 18.5 C 33.144531 18.5 34.738281 18.695312 36.273438 19.078125 C 36.277344 20.304688 37.277344 21.300781 38.503906 21.300781 C 39.183594 21.300781 39.792969 20.996094 40.203125 20.515625 C 42.15625 21.480469 43.949219 22.773438 45.503906 24.359375 C 45.109375 24.765625 44.867188 25.316406 44.867188 25.921875 C 44.867188 27.15625 45.867188 28.15625 47.101562 28.15625 C 48.207031 28.15625 49.121094 27.355469 49.300781 26.304688 L 54.457031 26.304688 C 54.902344 27.390625 55.96875 28.15625 57.214844 28.15625 C 58.855469 28.15625 60.1875 26.824219 60.1875 25.183594 " fill-opacity="1" fill-rule="nonzero"/></g><g clip-path="url(#f9feed9ca2)"><path fill="#1976d2" d="M 3.546875 30.390625 C 3.546875 31.035156 3.019531 31.5625 2.375 31.5625 C 1.730469 31.5625 1.207031 31.035156 1.207031 30.390625 C 1.207031 29.746094 1.730469 29.222656 2.375 29.222656 C 3.019531 29.222656 3.546875 29.746094 3.546875 30.390625 Z M 10.976562 37.339844 C 12.046875 37.339844 12.917969 38.210938 12.917969 39.28125 C 12.917969 40.351562 12.046875 41.222656 10.976562 41.222656 C 9.90625 41.222656 9.035156 40.351562 9.035156 39.28125 C 9.035156 38.210938 9.90625 37.339844 10.976562 37.339844 Z M 19.222656 22.84375 C 18.941406 22.523438 18.703125 22.164062 18.511719 21.777344 C 17.128906 22.882812 15.886719 24.160156 14.824219 25.574219 C 14.464844 25.328125 14.03125 25.183594 13.5625 25.183594 C 12.351562 25.183594 11.367188 26.148438 11.332031 27.351562 L 4.277344 29.222656 C 4.21875 29.125 4.148438 29.027344 4.074219 28.941406 C 5.101562 25.867188 6.632812 23.023438 8.570312 20.507812 C 8.113281 20.425781 7.691406 20.253906 7.320312 20.007812 C 5.433594 22.523438 3.964844 25.292969 2.953125 28.234375 C 2.765625 28.183594 2.574219 28.15625 2.375 28.15625 C 1.140625 28.15625 0.140625 29.15625 0.140625 30.390625 C 0.140625 31.402344 0.816406 32.257812 1.738281 32.53125 L 1.738281 43.351562 L 3.015625 43.351562 L 3.015625 32.53125 C 3.914062 32.261719 4.578125 31.441406 4.605469 30.457031 L 11.660156 28.582031 C 11.871094 28.929688 12.175781 29.210938 12.535156 29.398438 C 11.699219 31.214844 11.117188 33.167969 10.832031 35.214844 C 8.652344 35.292969 6.90625 37.082031 6.90625 39.28125 C 6.90625 41.53125 8.730469 43.351562 10.976562 43.351562 C 13.222656 43.351562 15.046875 41.53125 15.046875 39.28125 C 15.046875 37.421875 13.800781 35.855469 12.097656 35.371094 C 12.382812 33.34375 12.980469 31.414062 13.835938 29.632812 C 14.941406 29.496094 15.796875 28.558594 15.796875 27.417969 C 15.796875 27.132812 15.742188 26.859375 15.644531 26.609375 C 16.667969 25.203125 17.871094 23.9375 19.222656 22.84375 " fill-opacity="1" fill-rule="nonzero"/></g><g clip-path="url(#3825c5e609)"><path fill="#00a19a" d="M 34.941406 67.210938 C 34.941406 68.28125 34.070312 69.152344 33 69.152344 C 31.929688 69.152344 31.058594 68.28125 31.058594 67.210938 C 31.058594 66.140625 31.929688 65.269531 33 65.269531 C 34.070312 65.269531 34.941406 66.140625 34.941406 67.210938 Z M 28.34375 57.164062 C 28.34375 57.808594 27.820312 58.332031 27.175781 58.332031 C 26.53125 58.332031 26.003906 57.808594 26.003906 57.164062 C 26.003906 56.519531 26.53125 55.992188 27.175781 55.992188 C 27.820312 55.992188 28.34375 56.519531 28.34375 57.164062 Z M 3.933594 48.914062 C 3.175781 48.914062 2.554688 48.296875 2.554688 47.539062 C 2.554688 46.777344 3.175781 46.160156 3.933594 46.160156 C 4.695312 46.160156 5.3125 46.777344 5.3125 47.539062 C 5.3125 48.296875 4.695312 48.914062 3.933594 48.914062 Z M 14.417969 50.511719 C 14.417969 49.75 15.039062 49.132812 15.796875 49.132812 C 16.558594 49.132812 17.175781 49.75 17.175781 50.511719 C 17.175781 51.269531 16.558594 51.890625 15.796875 51.890625 C 15.039062 51.890625 14.417969 51.269531 14.417969 50.511719 Z M 44.460938 65.421875 C 44.121094 65.128906 43.832031 64.777344 43.605469 64.386719 C 41.511719 65.355469 39.300781 66.074219 37.011719 66.519531 C 36.683594 64.601562 35.011719 63.140625 33 63.140625 C 32.484375 63.140625 31.992188 63.238281 31.535156 63.414062 L 28.800781 58.691406 C 29.175781 58.292969 29.410156 57.753906 29.410156 57.164062 C 29.410156 55.929688 28.410156 54.929688 27.175781 54.929688 C 26.058594 54.929688 25.132812 55.75 24.96875 56.824219 L 14.871094 58.214844 C 14.363281 56.542969 12.8125 55.328125 10.976562 55.328125 C 10.164062 55.328125 9.40625 55.566406 8.769531 55.976562 C 7.378906 54.210938 6.1875 52.277344 5.234375 50.210938 C 5.824219 49.925781 6.304688 49.449219 6.59375 48.863281 L 12.824219 50.425781 C 12.824219 50.453125 12.824219 50.480469 12.824219 50.511719 C 12.824219 52.152344 14.15625 53.484375 15.796875 53.484375 C 17.4375 53.484375 18.769531 52.152344 18.769531 50.511719 C 18.769531 48.867188 17.4375 47.539062 15.796875 47.539062 C 15.652344 47.539062 15.511719 47.546875 15.375 47.566406 L 14.160156 44.339844 L 12.964844 44.789062 L 14.179688 48.015625 C 13.734375 48.304688 13.371094 48.710938 13.136719 49.183594 L 6.90625 47.625 C 6.90625 47.59375 6.90625 47.566406 6.90625 47.539062 C 6.90625 45.894531 5.574219 44.5625 3.933594 44.5625 C 2.292969 44.5625 0.960938 45.894531 0.960938 47.539062 C 0.960938 49.179688 2.292969 50.511719 3.933594 50.511719 C 3.941406 50.511719 3.945312 50.511719 3.953125 50.511719 C 4.964844 52.757812 6.253906 54.886719 7.808594 56.847656 C 7.246094 57.542969 6.90625 58.429688 6.90625 59.398438 C 6.90625 61.644531 8.730469 63.464844 10.976562 63.464844 C 12.253906 63.464844 13.390625 62.878906 14.136719 61.960938 L 19.097656 64.828125 C 19.058594 64.992188 19.035156 65.164062 19.035156 65.34375 C 19.035156 66.578125 20.035156 67.578125 21.269531 67.578125 C 22.503906 67.578125 23.503906 66.578125 23.503906 65.34375 C 23.503906 64.109375 22.503906 63.109375 21.269531 63.109375 C 20.675781 63.109375 20.136719 63.34375 19.738281 63.722656 L 14.777344 60.855469 C 14.941406 60.425781 15.035156 59.964844 15.042969 59.480469 L 25.144531 58.085938 C 25.496094 58.859375 26.269531 59.398438 27.175781 59.398438 C 27.355469 59.398438 27.527344 59.375 27.695312 59.332031 L 30.433594 64.054688 C 29.582031 64.746094 29.019531 65.773438 28.941406 66.9375 C 27.410156 66.800781 25.914062 66.542969 24.460938 66.179688 C 24.347656 66.613281 24.148438 67.011719 23.878906 67.355469 C 25.566406 67.792969 27.296875 68.085938 29.058594 68.230469 C 29.511719 69.984375 31.105469 71.277344 33 71.277344 C 35.039062 71.277344 36.726562 69.78125 37.023438 67.824219 C 39.597656 67.347656 42.097656 66.542969 44.460938 65.421875 " fill-opacity="1" fill-rule="nonzero"/></g></svg>