<?xml version="1.0" encoding="UTF-8" standalone="no" ?>
<!DOCTYPE svg PUBLIC "-//W3C//DTD SVG 1.1//EN" "http://www.w3.org/Graphics/SVG/1.1/DTD/svg11.dtd">
<svg xmlns="http://www.w3.org/2000/svg" xmlns:xlink="http://www.w3.org/1999/xlink" version="1.1" width="1080" height="240" viewBox="0 0 1080 240" xml:space="preserve">
<desc>Created with Fabric.js 5.2.4</desc>
<defs>
</defs>
<rect x="0" y="0" width="100%" height="100%" fill="transparent"></rect>
<g transform="matrix(Infinity NaN NaN Infinity 0 0)" id="18bbbf35-e619-4077-8c9f-b6a3027b5a8d"  >
</g>
<g transform="matrix(1 0 0 1 540 120)" id="7bf088d1-e1cd-405f-b23b-798db35e6260"  >
<rect style="stroke: none; stroke-width: 1; stroke-dasharray: none; stroke-linecap: butt; stroke-dashoffset: 0; stroke-linejoin: miter; stroke-miterlimit: 4; fill: rgb(255,255,255); fill-rule: nonzero; opacity: 1; visibility: hidden;" vector-effect="non-scaling-stroke"  x="-540" y="-120" rx="0" ry="0" width="1080" height="240" />
</g>
<g transform="matrix(1 0 0 1 540 120)"  >
<g style="" vector-effect="non-scaling-stroke"   >
		<g transform="matrix(1 0 0 1 0 0)"  >
<rect style="stroke: none; stroke-width: 1; stroke-dasharray: none; stroke-linecap: butt; stroke-dashoffset: 0; stroke-linejoin: miter; stroke-miterlimit: 4; fill: rgb(255,255,255); fill-rule: nonzero; opacity: 1; visibility: hidden;" vector-effect="non-scaling-stroke"  x="-540" y="-540" rx="0" ry="0" width="1080" height="1080" />
</g>
		<g transform="matrix(1 0 0 1 0 0)"  >
<rect style="stroke: none; stroke-width: 1; stroke-dasharray: none; stroke-linecap: butt; stroke-dashoffset: 0; stroke-linejoin: miter; stroke-miterlimit: 4; fill: rgb(255,255,255); fill-rule: nonzero; opacity: 1; visibility: hidden;" vector-effect="non-scaling-stroke"  x="-540" y="-540" rx="0" ry="0" width="1080" height="1080" />
</g>
		<g transform="matrix(3.35 0 0 3.35 -44.12 63.22)"  >
<linearGradient id="SVGID_9" gradientUnits="objectBoundingBox" gradientTransform="matrix(1 0 0 1 0 0)"  x1="0" y1="0" x2="1" y2="0">
<stop offset="0%" style="stop-color:rgb(81,80,79);stop-opacity: 1"/>
<stop offset="50%" style="stop-color:rgb(147,149,152);stop-opacity: 1"/>
<stop offset="100%" style="stop-color:rgb(81,80,79);stop-opacity: 1"/>
</linearGradient>
<path style="stroke: none; stroke-width: 1; stroke-dasharray: none; stroke-linecap: butt; stroke-dashoffset: 0; stroke-linejoin: miter; stroke-miterlimit: 4; fill: url(#SVGID_9); fill-rule: nonzero; opacity: 1;" vector-effect="non-scaling-stroke"  transform=" translate(-56.87, -13.03)" d="M 0.66 18.76 L 0.66 16.92 L 1.7600000000000002 16.92 L 2.7 17.98 C 3.54 18.92 4.640000000000001 19.1 5.96 19.12 C 7.54 19.12 9.02 18.6 9.02 17.28 C 9.02 15.66 6.22 14.080000000000002 4.619999999999999 13.180000000000001 C 3.2399999999999993 12.400000000000002 0.919999999999999 11.3 0.919999999999999 9.64 C 0.919999999999999 6.5600000000000005 4.799999999999999 6 5.879999999999999 6 C 7.219999999999999 6 8.579999999999998 6.3 10.02 6.9 L 10.059999999999999 8.72 L 8.919999999999998 8.72 L 8.259999999999998 7.920000000000001 C 7.619999999999998 7.160000000000001 6.639999999999998 6.720000000000001 5.679999999999998 6.720000000000001 C 3.9799999999999978 6.720000000000001 3.039999999999998 7.920000000000001 3.039999999999998 8.600000000000001 C 3.039999999999998 10.020000000000001 5.919999999999998 11.040000000000001 8.719999999999997 12.880000000000003 C 10.299999999999997 13.920000000000002 11.019999999999996 15.160000000000002 11.019999999999996 16.320000000000004 C 11.019999999999996 18.280000000000005 9.039999999999996 20.060000000000002 6.019999999999996 20.060000000000002 C 2.359999999999996 20.060000000000002 0.6599999999999957 18.76 0.6599999999999957 18.76 z M 26.448000000000004 20 L 26.448000000000004 19.46 C 27.108000000000004 18.740000000000002 27.448000000000004 17.8 27.448000000000004 16.82 L 27.448000000000004 9.18 C 27.448000000000004 8.219999999999999 27.108000000000004 7.26 26.448000000000004 6.56 L 26.448000000000004 6 L 36.348000000000006 6 L 36.468 8.58 L 35.528000000000006 8.58 C 34.168000000000006 7.5 32.528000000000006 6.94 30.848000000000006 6.94 L 29.648000000000007 6.94 L 29.648000000000007 12.74 L 32.64800000000001 12.74 L 32.64800000000001 13.66 L 29.64800000000001 13.66 L 29.64800000000001 19.060000000000002 L 30.82800000000001 19.060000000000002 C 32.44800000000001 19.060000000000002 34.00800000000001 18.520000000000003 35.34800000000001 17.560000000000002 L 35.52800000000001 17.42 L 36.46800000000001 17.42 L 36.34800000000001 19.96 L 36.34800000000001 20 L 26.448000000000015 20 z M 51.85600000000001 20 L 51.85600000000001 19.44 C 52.476000000000006 18.740000000000002 52.89600000000001 17.8 52.89600000000001 16.82 L 52.89600000000001 9.18 C 52.89600000000001 8.2 52.516000000000005 7.26 51.85600000000001 6.56 L 51.85600000000001 6 L 56.09600000000001 6 L 56.09600000000001 6.5600000000000005 C 55.39600000000001 7.260000000000001 55.05600000000001 8.200000000000001 55.05600000000001 9.18 L 55.05600000000001 19.08 L 58.23600000000001 19.08 C 59.256000000000014 19.08 60.296000000000014 18.759999999999998 61.15600000000001 18.139999999999997 L 61.756000000000014 18.139999999999997 L 61.756000000000014 19.999999999999996 L 51.856000000000016 19.999999999999996 z M 57.11600000000001 16.7 L 57.11600000000001 16.12 C 57.776 15.360000000000001 58.156000000000006 14.48 58.156000000000006 13.48 L 58.156000000000006 9.18 C 58.156000000000006 8.2 57.776 7.26 57.11600000000001 6.56 L 57.11600000000001 6 L 61.376000000000005 6 L 61.376000000000005 6.5600000000000005 C 60.71600000000001 7.260000000000001 60.356 8.200000000000001 60.356 9.18 L 60.356 15.719999999999999 L 61.696000000000005 15.719999999999999 C 62.75600000000001 15.719999999999999 63.75600000000001 15.419999999999998 64.63600000000001 14.78 L 65.236 14.78 L 65.236 16.7 L 57.11600000000001 16.7 z M 79.70400000000001 20 L 79.70400000000001 19.46 L 80.60400000000001 18.5 C 80.70400000000001 18.38 80.76400000000001 18.28 80.84400000000001 18.1 L 85.584 6.000000000000002 L 87.744 6.000000000000002 L 92.504 18.060000000000002 C 92.584 18.26 92.70400000000001 18.380000000000003 92.864 18.520000000000003 L 93.964 19.460000000000004 L 93.964 20.000000000000004 L 89.704 20.000000000000004 L 89.704 19.460000000000004 L 89.80399999999999 19.400000000000006 C 90.30399999999999 19.060000000000006 90.484 18.480000000000004 90.26399999999998 17.920000000000005 L 89.34399999999998 15.580000000000005 L 82.76399999999998 15.580000000000005 L 81.76399999999998 18.100000000000005 C 81.58399999999997 18.580000000000005 81.72399999999998 19.120000000000005 82.10399999999998 19.460000000000004 L 82.10399999999998 20.000000000000004 L 79.70399999999998 20.000000000000004 z M 83.084 14.780000000000001 L 89.044 14.780000000000001 L 86.064 7.1800000000000015 z M 108.83200000000001 20 L 108.83200000000001 19.46 C 109.45200000000001 18.720000000000002 109.852 17.78 109.852 16.84 L 109.852 9.18 C 109.852 8.219999999999999 109.452 7.26 108.83200000000001 6.56 L 108.83200000000001 6 L 113.072 6 L 113.072 6.5600000000000005 C 112.392 7.260000000000001 112.012 8.22 112.012 9.18 L 112.012 16.84 C 112.012 17.78 112.392 18.72 113.072 19.46 L 113.072 20 L 108.83200000000001 20 z" stroke-linecap="round" />
</g>
		<g transform="matrix(6.5 0 0 6.5 -53.06 -39.57)"  >
<linearGradient id="SVGID_10" gradientUnits="objectBoundingBox" gradientTransform="matrix(1 0 0 1 0 0)"  x1="0" y1="0" x2="1" y2="0">
<stop offset="0%" style="stop-color:rgb(45,56,138);stop-opacity: 1"/>
<stop offset="100%" style="stop-color:rgb(0,174,239);stop-opacity: 1"/>
</linearGradient>
<path style="stroke: none; stroke-width: 1; stroke-dasharray: none; stroke-linecap: butt; stroke-dashoffset: 0; stroke-linejoin: miter; stroke-miterlimit: 4; fill: url(#SVGID_10); fill-rule: nonzero; opacity: 1;" vector-effect="non-scaling-stroke"  transform=" translate(-28.46, -12.94)" d="M 8.0762 20.19531 C 3.9257999999999997 20.19531 0.8593999999999999 17.37301 0.8593999999999999 12.939409999999999 C 0.8593999999999999 8.505809999999997 3.9257999999999997 5.6933099999999985 8.0762 5.6933099999999985 C 11.2207 5.6933099999999985 13.740300000000001 7.3046099999999985 14.7461 9.98041 L 12.011700000000001 10.9765 C 11.386700000000001 9.335899999999999 9.892600000000002 8.3886 8.0762 8.3886 C 5.6446000000000005 8.3886 3.7793 10.0878 3.7793 12.9394 C 3.7793 15.790999999999999 5.6445 17.4999 8.0762 17.4999 C 9.8926 17.4999 11.386700000000001 16.54287 12.011700000000001 14.9022 L 14.746100000000002 15.898290000000001 C 13.740200000000002 18.57409 11.220700000000003 20.19519 8.076200000000002 20.19519 z M 23.398465625 20.19531 C 19.248065625 20.19531 16.181665625 17.36331 16.181665625 12.939409999999999 C 16.181665625 8.505809999999999 19.248065625000002 5.6933099999999985 23.398465625 5.6933099999999985 C 27.539065625 5.6933099999999985 30.605465625 8.505809999999999 30.605465625 12.939409999999999 C 30.605465625 17.36321 27.539065625 20.19531 23.398465625 20.19531 z M 23.398465625 17.5098 C 25.830065625 17.5098 27.695365625 15.800799999999999 27.695365625 12.939499999999999 C 27.695365625 10.0879 25.830165625 8.3887 23.398465625 8.3887 C 20.966765625 8.3887 19.101565625 10.0879 19.101565625 12.939499999999999 C 19.101565625 15.800799999999999 20.966765625 17.5098 23.398465625 17.5098 z M 33.300809375 20 L 33.300809375 5.888999999999999 L 38.408209375 5.888999999999999 C 42.910209375 5.888999999999999 45.136709374999995 8.721 45.136709374999995 12.939799999999998 C 45.136709374999995 17.1683 42.910109375 20.0003 38.408209375 20.0003 L 33.300809375 20.0003 z M 36.230509375 17.4121 L 38.261809375 17.4121 C 40.859509375 17.4121 42.050909374999996 15.790999999999999 42.050909374999996 12.9394 C 42.050909374999996 10.0878 40.859509374999995 8.4667 38.261809375 8.4667 L 36.230509375 8.4667 L 36.230509375 17.412 z M 56.0646875 8.467 L 50.8302875 8.467 L 50.8302875 11.670100000000001 L 55.4689875 11.670100000000001 L 55.4689875 14.218900000000001 L 50.8302875 14.218900000000001 L 50.8302875 17.412300000000002 L 56.0646875 17.412300000000002 L 56.0646875 20.000200000000003 L 47.8810875 20.000200000000003 L 47.8810875 5.889200000000002 L 56.0646875 5.889200000000002 L 56.0646875 8.467300000000002 z" stroke-linecap="round" />
</g>
		<g transform="matrix(6.6 0 0 6.6 343.94 -39.61)"  >
<path style="stroke: none; stroke-width: 1; stroke-dasharray: none; stroke-linecap: butt; stroke-dashoffset: 0; stroke-linejoin: miter; stroke-miterlimit: 4; fill: rgb(15,112,173); fill-rule: nonzero; opacity: 1;" vector-effect="non-scaling-stroke"  transform=" translate(-30.49, -13.03)" d="M 4.3262 17.9102 L 8.925799999999999 17.9102 L 8.925799999999999 20 L 1.9921999999999986 20 L 1.9921999999999986 6.074 L 4.326199999999998 6.074 L 4.326199999999998 17.91 z M 17.4706625 20.18555 C 13.4667625 20.18555 10.4393625 17.44145 10.4393625 13.027349999999998 C 10.4393625 8.62305 13.4666625 5.878949999999999 17.4706625 5.878949999999999 C 21.4647625 5.878949999999999 24.4921625 8.62305 24.4921625 13.027349999999998 C 24.4921625 17.44145 21.4648625 20.18555 17.4706625 20.18555 z M 17.4706625 18.0176 C 20.1073625 18.0176 22.1679625 16.1914 22.1679625 13.027400000000002 C 22.1679625 9.892600000000002 20.1074625 8.056700000000003 17.470662500000003 8.056700000000003 C 14.833862500000006 8.056700000000003 12.773362500000003 9.892600000000003 12.773362500000003 13.027400000000004 C 12.773362500000003 16.191500000000005 14.833862500000002 18.0176 17.470662500000003 18.0176 z M 33.58394375 20.18555 C 29.58004375 20.18555 26.55264375 17.44145 26.55264375 13.027349999999998 C 26.55264375 8.62305 29.57994375 5.878949999999999 33.58394375 5.878949999999999 C 37.578043750000006 5.878949999999999 40.605443750000006 8.62305 40.605443750000006 13.027349999999998 C 40.605443750000006 17.44145 37.57814375000001 20.18555 33.58394375 20.18555 z M 33.58394375 18.0176 C 36.22064375 18.0176 38.28124375 16.1914 38.28124375 13.027400000000002 C 38.28124375 9.892600000000002 36.220743750000004 8.056700000000003 33.58394375 8.056700000000003 C 30.947143750000002 8.056700000000003 28.886643750000005 9.892600000000003 28.886643750000005 13.027400000000004 C 28.886643750000005 16.191500000000005 30.947143750000006 18.0176 33.58394375 18.0176 z M 58.994625 20 L 56.680125 20 L 55.762155 9.004 L 51.768055 20 L 50.303255 20 L 46.328655 9.023 L 45.400925 20 L 43.076725 20 L 44.190025000000006 6.074 L 47.44202500000001 6.074 L 51.02602500000001 15.9178 L 54.639325000000014 6.074 L 57.891325000000016 6.074 z" stroke-linecap="round" />
</g>
		<g transform="matrix(0.26 0 0 0.26 -390.06 0)"  >
<rect style="stroke: none; stroke-width: 1; stroke-dasharray: none; stroke-linecap: butt; stroke-dashoffset: 0; stroke-linejoin: miter; stroke-miterlimit: 4; fill: rgb(255,255,255); fill-rule: nonzero; opacity: 1; visibility: hidden;" vector-effect="non-scaling-stroke"  x="-540" y="-540" rx="0" ry="0" width="1080" height="1080" />
</g>
		<g transform="matrix(0.26 0 0 0.26 -393.86 0)"  >
<rect style="stroke: none; stroke-width: 1; stroke-dasharray: none; stroke-linecap: butt; stroke-dashoffset: 0; stroke-linejoin: miter; stroke-miterlimit: 4; fill: rgb(255,255,255); fill-rule: nonzero; opacity: 1; visibility: hidden;" vector-effect="non-scaling-stroke"  x="-540" y="-540" rx="0" ry="0" width="1080" height="1080" />
</g>
		<g transform="matrix(0.26 0 0 0.26 -393.86 0)"  >
<rect style="stroke: none; stroke-width: 1; stroke-dasharray: none; stroke-linecap: butt; stroke-dashoffset: 0; stroke-linejoin: miter; stroke-miterlimit: 4; fill: rgb(255,255,255); fill-rule: nonzero; opacity: 1; visibility: hidden;" vector-effect="non-scaling-stroke"  x="-540" y="-540" rx="0" ry="0" width="1080" height="1080" />
</g>
		<g transform="matrix(0.23 0 0 0.23 -271.69 -46.6)"  >
<path style="stroke: none; stroke-width: 1; stroke-dasharray: none; stroke-linecap: butt; stroke-dashoffset: 0; stroke-linejoin: miter; stroke-miterlimit: 4; fill: rgb(0,0,0); fill-rule: nonzero; opacity: 0.4;" vector-effect="non-scaling-stroke"  transform=" translate(-224.85, -190.9)" d="M 244 148.1 C 244.1493461538544 148.96023274156923 244.1493461538544 149.83976725843075 244 150.7 C 246.08489546217686 151.67055650841436 247.60005523283834 153.5552674426518 248.1 155.79999999999998 C 249.29999999999998 159.79999999999998 246.7 165.39999999999998 242.2 166.1 C 237.7 166.8 235.39999999999998 169.2 232.5 172.5 C 229.65865677596963 175.94081996233848 226.54890790033534 179.15088331783195 223.2 182.1 C 219.62736950109192 185.17278175286933 216.43774437846645 188.66458188711195 213.69999999999996 192.50000000000003 C 211 195.9 207.1 198.1 204.5 201.5 C 201.9 204.9 197.3 207.1 193 204.5 C 188.7 201.9 187.2 196.7 190 193 C 192.8 189.3 197.9 185.4 201.4 181 C 204.6487531597819 176.63522709143237 208.3715027231878 172.64417125318644 212.5 169.10000000000002 C 217.5 164.9 221.2 159.7 225.9 155.7 C 224.4930587829368 155.21333109039278 223.24745528055305 154.34832865818186 222.3 153.2 L 220.4 151.2 C 218.3912535538045 151.15303155477096 216.46966717147401 150.37016302863634 215 149 C 205.91970056764288 140.57910394486558 198.07542384745275 130.91684034531806 191.7 120.29999999999997 C 187.7 113.89999999999999 193.39999999999998 107.89999999999999 199.2 107.8 L 174 82.8 L 173.4 82.8 C 173.8187292856713 83.51473984387167 174.12244004035716 84.2908895502911 174.3 85.1 C 175.46730821079512 86.288353760046 176.0208343126085 87.94893206548612 175.8 89.6 C 175 103.39999999999999 172 117 168.9 130.39999999999998 C 167.8 134.7 166.70000000000002 139.09999999999997 165.8 143.39999999999998 L 164.3 153.49999999999997 C 163.9 156.89999999999998 163.70000000000002 160.39999999999998 163.3 163.79999999999998 L 163.3 163.79999999999998 C 163.10000000000002 166.29999999999998 162.8 168.89999999999998 162.4 171.39999999999998 C 162.3270632190413 171.88184735255246 162.19263340996847 172.35235168430742 162 172.79999999999998 C 161.4797930052751 175.61134100873477 161.11258605987044 178.4488492232252 160.9 181.29999999999998 C 160.70000000000002 186.49999999999997 160.8 191.7 160.1 196.89999999999998 C 159.39999999999998 202.09999999999997 159.6 206.79999999999998 158.1 211.29999999999998 C 158.18343751363108 212.00625763824502 158.1152535619536 212.72218913085823 157.9 213.39999999999998 C 156.3 218.79999999999998 153.9 231.49999999999997 147.20000000000002 232.7 L 213.7 299 C 256.59999999999997 284 290.4 249 302.5 204.9 Z" stroke-linecap="round" />
</g>
		<g transform="matrix(0.15 0 0 0.15 -337.26 64.34)"  >
<path style="stroke: none; stroke-width: 1; stroke-dasharray: none; stroke-linecap: butt; stroke-dashoffset: 0; stroke-linejoin: miter; stroke-miterlimit: 4; fill: rgb(0,0,0); fill-rule: nonzero; opacity: 0.4;" vector-effect="non-scaling-stroke"  transform=" translate(-224.85, -190.9)" d="M 244 148.1 C 244.1493461538544 148.96023274156923 244.1493461538544 149.83976725843075 244 150.7 C 246.08489546217686 151.67055650841436 247.60005523283834 153.5552674426518 248.1 155.79999999999998 C 249.29999999999998 159.79999999999998 246.7 165.39999999999998 242.2 166.1 C 237.7 166.8 235.39999999999998 169.2 232.5 172.5 C 229.65865677596963 175.94081996233848 226.54890790033534 179.15088331783195 223.2 182.1 C 219.62736950109192 185.17278175286933 216.43774437846645 188.66458188711195 213.69999999999996 192.50000000000003 C 211 195.9 207.1 198.1 204.5 201.5 C 201.9 204.9 197.3 207.1 193 204.5 C 188.7 201.9 187.2 196.7 190 193 C 192.8 189.3 197.9 185.4 201.4 181 C 204.6487531597819 176.63522709143237 208.3715027231878 172.64417125318644 212.5 169.10000000000002 C 217.5 164.9 221.2 159.7 225.9 155.7 C 224.4930587829368 155.21333109039278 223.24745528055305 154.34832865818186 222.3 153.2 L 220.4 151.2 C 218.3912535538045 151.15303155477096 216.46966717147401 150.37016302863634 215 149 C 205.91970056764288 140.57910394486558 198.07542384745275 130.91684034531806 191.7 120.29999999999997 C 187.7 113.89999999999999 193.39999999999998 107.89999999999999 199.2 107.8 L 174 82.8 L 173.4 82.8 C 173.8187292856713 83.51473984387167 174.12244004035716 84.2908895502911 174.3 85.1 C 175.46730821079512 86.288353760046 176.0208343126085 87.94893206548612 175.8 89.6 C 175 103.39999999999999 172 117 168.9 130.39999999999998 C 167.8 134.7 166.70000000000002 139.09999999999997 165.8 143.39999999999998 L 164.3 153.49999999999997 C 163.9 156.89999999999998 163.70000000000002 160.39999999999998 163.3 163.79999999999998 L 163.3 163.79999999999998 C 163.10000000000002 166.29999999999998 162.8 168.89999999999998 162.4 171.39999999999998 C 162.3270632190413 171.88184735255246 162.19263340996847 172.35235168430742 162 172.79999999999998 C 161.4797930052751 175.61134100873477 161.11258605987044 178.4488492232252 160.9 181.29999999999998 C 160.70000000000002 186.49999999999997 160.8 191.7 160.1 196.89999999999998 C 159.39999999999998 202.09999999999997 159.6 206.79999999999998 158.1 211.29999999999998 C 158.18343751363108 212.00625763824502 158.1152535619536 212.72218913085823 157.9 213.39999999999998 C 156.3 218.79999999999998 153.9 231.49999999999997 147.20000000000002 232.7 L 213.7 299 C 256.59999999999997 284 290.4 249 302.5 204.9 Z" stroke-linecap="round" />
</g>
		<g transform="matrix(2.94 0 0 2.94 -390.24 -0.1)"  >
<path style="stroke: none; stroke-width: 1; stroke-dasharray: none; stroke-linecap: butt; stroke-dashoffset: 0; stroke-linejoin: miter; stroke-miterlimit: 4; fill: rgb(15,112,173); fill-rule: nonzero; opacity: 1;" vector-effect="non-scaling-stroke"  transform=" translate(-48.75, -54.77)" d="M 96.4 36.2 C 96.4 41.900000000000006 92.9 47.800000000000004 87.80000000000001 48.800000000000004 C 82.10000000000001 49.900000000000006 79.50000000000001 53.7 76.9 58.10000000000001 C 73.80000000000001 63.30000000000001 71.5 68.7 71.80000000000001 75 C 72.00000000000001 80.2 68.4 84.3 63.70000000000001 84.7 C 59 85 55 81.1 54.5 75.6 C 53.5 64.69999999999999 46.1 59.49999999999999 37 56.099999999999994 C 28.5 52.8 21.8 56.49999999999999 16.3 62.89999999999999 C 14.5 64.99999999999999 12.9 67.39999999999999 11.3 69.69999999999999 C 9.600000000000001 72.19999999999999 7.4 73.19999999999999 4.4 72.19999999999999 C 2.0000000000000004 71.39999999999999 1.0000000000000004 69.49999999999999 1.1000000000000005 67.19999999999999 C 1.2000000000000006 64.39999999999999 2.8000000000000007 62.499999999999986 5.500000000000001 61.89999999999999 C 15.8 59.39999999999999 23.5 53.69999999999999 28.3 44.19999999999999 C 29.7 41.499999999999986 32.3 40.19999999999999 35.4 40.59999999999999 C 38.8 40.999999999999986 40.9 43.19999999999999 41.5 46.399999999999984 C 43.2 55.19999999999999 49.7 60.29999999999998 56.3 64.99999999999999 C 60.599999999999994 68.09999999999998 65.1 67.39999999999999 69 63.69999999999999 C 72.9 59.999999999999986 74.5 55.09999999999999 75.8 50.09999999999999 C 76.5 47.59999999999999 74.5 46.19999999999999 73.39999999999999 44.399999999999984 C 69.8 38.79999999999998 71.19999999999999 30.699999999999985 76.39999999999999 26.899999999999984 C 81.39999999999999 23.199999999999985 89.69999999999999 24.599999999999984 93.89999999999999 29.799999999999983 C 95.6 31.7 96.2 34.1 96.4 36.2 z M 84 27 C 78.9 26.9 74.5 31.4 74.4 36.9 C 74.30000000000001 42.1 78.60000000000001 46.5 83.7 46.5 C 89 46.5 93.8 41.9 93.8 36.9 C 93.9 31.8 89.2 27.1 84 27 z M 56.8 74.7 C 56.699999999999996 78.2 59.9 81.4 63.5 81.3 C 67.5 81.1 69.4 78.3 69.6 74.8 C 69.8 70.7 66.89999999999999 69.6 62.699999999999996 69.7 C 59.8 69.7 57 70.5 56.8 74.7 z M 39.6 48.4 C 39.6 45.3 37.5 43.699999999999996 34.4 43.699999999999996 C 31.299999999999997 43.699999999999996 29.4 45.8 29.299999999999997 48.699999999999996 C 29.199999999999996 52.199999999999996 32.4 52.3 34.8 53.099999999999994 C 37.8 52.8 39.6 51.2 39.6 48.4 z M 3.9 67.2 C 3.8 68.8 5.3 69.5 6.6 69.60000000000001 C 8.5 69.60000000000001 9.6 68.30000000000001 9.6 66.4 C 9.6 64.80000000000001 8.2 64.80000000000001 7.1 64.80000000000001 C 5.5 64.9 4 65.4 3.9 67.2 z" stroke-linecap="round" />
</g>
		<g transform="matrix(0.23 0 0 0.23 -295.1 -52.19)"  >
<path style="stroke: none; stroke-width: 1; stroke-dasharray: none; stroke-linecap: butt; stroke-dashoffset: 0; stroke-linejoin: miter; stroke-miterlimit: 4; fill: rgb(0,0,0); fill-rule: nonzero; opacity: 0.4;" vector-effect="non-scaling-stroke"  transform=" translate(-122.05, -166.05)" d="M 146.6 170.6 C 149.6 159.7 150.9 148.5 152.6 137.39999999999998 L 125.8 110.59999999999998 C 127.13884467552167 113.04685120560173 126.94404003906504 116.04684260703374 125.3 118.29999999999998 C 119.3 127.59999999999998 112.39999999999999 135.6 103.3 142.1 C 100.3 144.2 97.2 146.2 94.3 148.29999999999998 L 93.3 148.99999999999997 C 93.08922809298659 151.2241219772693 92.47948991003935 153.3920799610817 91.5 155.39999999999998 L 91.5 155.59999999999997 C 91.72603028268084 156.04328692391212 91.89407696375892 156.51381763093076 92 156.99999999999997 C 92.8 159.89999999999998 95.7 161.69999999999996 97.8 163.69999999999996 C 99.89999999999999 165.69999999999996 102.7 169.89999999999995 105.1 173.09999999999997 C 109.3 178.59999999999997 114.8 185.49999999999997 120.39999999999999 189.69999999999996 C 123.99999999999999 192.49999999999997 125.89999999999999 196.89999999999995 123.39999999999999 201.29999999999995 C 122.39847900245476 202.81281189033183 120.9720190602596 203.99572989117658 119.3 204.69999999999996 L 136.2 221.49999999999997 C 135.7 213.09999999999997 141.29999999999998 202.59999999999997 144.1 196.49999999999997 L 144.29999999999998 196.29999999999998 C 144.6 193.49999999999997 144.6 190.7 144.89999999999998 187.89999999999998 C 145.19999999999996 185.09999999999997 146.39999999999998 179.49999999999997 147.29999999999998 175.29999999999998 C 146.4061516068938 173.90519736715666 146.15140283582883 172.19474133286334 146.6 170.6 Z" stroke-linecap="round" />
</g>
		<g transform="matrix(0.23 0 0 0.23 -287.14 -54.18)"  >
<path style="stroke: none; stroke-width: 1; stroke-dasharray: none; stroke-linecap: butt; stroke-dashoffset: 0; stroke-linejoin: miter; stroke-miterlimit: 4; fill: rgb(15,112,173); fill-rule: nonzero; opacity: 1;" vector-effect="non-scaling-stroke"  transform=" translate(-157.5, -157.5)" d="M 147.4 239.4 L 145.20000000000002 239.4 C 141.22093324664596 238.82364463212986 137.62864249729122 236.70419309001056 135.20000000000002 233.5 C 132.9072481528079 230.50577257526257 131.83517990130198 226.75353369499177 132.20000000000002 223 C 132.08198263620798 222.23420472718217 132.115962734657 221.45266246285541 132.3 220.7 L 152.60000000000002 88.69999999999999 C 153.69056892853618 81.1942137678792 160.1154265634326 75.6203306541611 167.70000000000002 75.6 L 167.8 75.6 C 175.92559850853934 75.70254780705838 182.53333635851226 82.17813090003183 182.8 90.3 C 182.9161882677901 91.19933818037968 182.88239632971465 92.11172050841678 182.70000000000002 93 L 162.5 224.5 C 162.52307807168228 225.13958941601533 162.45574703344587 225.77923427926132 162.3 226.4 C 161.7657210292878 230.34192754141142 159.6773598291754 233.90654407263773 156.5 236.3 C 153.8819317108324 238.2906271809857 150.68883125209135 239.37838667791945 147.4 239.4 Z M 142.20000000000002 222.1 L 142.20000000000002 222.5 L 142.00000000000003 223.5 C 141.86341066503297 224.84587280658027 142.2186273321265 226.19569614153568 143.00000000000003 227.3 C 143.87150718293867 228.38559316236504 145.12226224416284 229.10031034020741 146.50000000000003 229.3 C 147.83590627325097 229.51603780005573 149.20290465888337 229.19227502451122 150.30000000000004 228.4 C 151.41538701982265 227.53906666943823 152.16524095295028 226.2893101142255 152.40000000000003 224.9 L 152.40000000000003 223.70000000000002 L 172.8 91.4 L 172.8 91.4 L 172.8 90.80000000000001 C 172.74892170363046 87.98807485822935 170.510403371805 85.7056640100936 167.70000000000002 85.60000000000001 C 165.04699773554069 85.58228677925477 162.8060633368168 87.56465182427974 162.50000000000003 90.2 Z M 117.90000000000002 213.5 C 113.2238429778523 213.50203775598072 108.80349602190785 211.36553672727422 105.90000000000002 207.7 L 67 168.8 L 66.9 168.8 L 65.4 167.3 C 62.62597340287728 164.43067492321757 61.08292029058309 160.59098462053203 61.10000000000001 156.60000000000002 C 61.068666734074675 152.56704153520354 62.69568986833379 148.69834208263185 65.6 145.90000000000003 L 106.30000000000001 105.20000000000003 C 109.1558559085507 102.46760815947451 112.94765736096325 100.92942455142037 116.9 100.90000000000003 L 117.10000000000001 100.90000000000003 C 121.08518068327214 101.04974310704502 124.8685782945368 102.6915949006127 127.69999999999999 105.50000000000003 L 128 105.70000000000003 C 130.70725665130476 108.63719777659483 132.17603744027366 112.50618131826897 132.1 116.50000000000003 C 131.9801677887077 120.4830518054545 130.29075718188625 124.25726699090667 127.39999999999999 127.00000000000003 L 97.7 156.7 L 128.1 187 C 128.78407363511323 187.5859094772921 129.38913642626838 188.25820146746446 129.9 189 L 130 189 C 135.00186274122967 195.72349264643617 133.6643772344593 205.21963974450594 127 210.3 C 124.41295660168635 212.35988083924343 121.20692315414465 213.48727721640094 117.9 213.5 Z M 72.1 159.7 L 113.69999999999999 201.39999999999998 C 114.53379018094982 202.50292556977098 115.77249256142379 203.22838430520514 117.1423243163276 203.4160324908084 C 118.5121560712314 203.60368067641167 119.90032046637458 203.23806670476068 120.99999999999999 202.39999999999998 C 122.09649468648078 201.58444608254757 122.81982516472591 200.3629654287642 123.00781770678452 199.0094191259423 C 123.19581024884313 197.65587282312035 122.83273681773974 196.28350273748302 121.99999999999999 195.2 C 121.91743955957094 194.97044933013422 121.78013891048029 194.76449835649825 121.59999999999998 194.6 L 121.19999999999997 194.2 L 120.49999999999997 193.5 L 83.49999999999997 156.7 L 120.49999999999997 119.69999999999999 C 121.47893209599819 118.79352533485942 122.05498553414233 117.53340843891911 122.09999999999997 116.19999999999999 C 122.09315711484074 114.86843146604664 121.59456696283496 113.58634250374608 120.69999999999996 112.6 L 120.69999999999996 112.6 C 119.61384072309812 111.64822592969517 118.24164632809295 111.08527438302639 116.79999999999995 111 C 115.45706126734032 111.0434770043089 114.17649082664826 111.57704802126392 113.19999999999996 112.5 L 72.6 153 C 70.8192637831101 154.81144183793117 70.60785546283061 157.64431332967635 72.1 159.7 Z M 197.89999999999998 212.79999999999998 C 193.59789154889117 212.79614382053472 189.4961900918458 210.9812316713996 186.59999999999997 207.79999999999998 C 181.03235455024011 201.61071181136174 181.5244047974787 192.08282975119647 187.69999999999996 186.49999999999997 L 217.29999999999995 156.69999999999996 L 187.79999999999995 127.19999999999996 C 187.2510058331028 126.71480909897538 186.74880002768808 126.17912290653302 186.29999999999995 125.59999999999997 C 181.97419179476051 119.75557779438454 182.3933380082434 111.66605587416484 187.29999999999995 106.29999999999998 C 190.00913040461907 103.33535246700784 193.7876535286813 101.57204167577879 197.79999999999995 101.39999999999996 C 201.83633661672988 101.20644505878754 205.78702711454488 102.60714441710377 208.79999999999995 105.29999999999995 L 208.79999999999995 105.49999999999997 L 248.79999999999995 145.59999999999997 C 251.9271435948339 148.37699491880073 253.7719281213114 152.31976969107612 253.89999999999995 156.49999999999994 L 253.89999999999995 156.89999999999998 C 253.81189002321616 160.8497182935031 252.19937533199612 164.61225257301646 249.39999999999995 167.39999999999998 L 207.99999999999994 208.89999999999998 C 205.2261322331729 211.39559994272201 201.6312326023565 212.78372950313627 197.9 212.8 Z M 194.2 119.49999999999999 L 194.29999999999998 119.49999999999999 L 231.5 156.7 L 194.4 193.89999999999998 C 192.33132213884159 195.80649042457742 192.19709145617614 199.02802680854825 194.1 201.09999999999997 C 195.97480946983347 203.17621030097905 199.15620781885661 203.39714074188345 201.29999999999998 201.59999999999997 L 242.5 160.39999999999998 C 243.42971058657383 159.38783425885293 243.96241213197442 158.07383711353145 244 156.7 C 243.9462168052416 155.2686165352506 243.29297066540084 153.92583280335575 242.2 153 L 242 152.7 L 202 112.6 C 200.95502483849276 111.75019715717359 199.64686640351607 111.29057392326287 198.3 111.3 C 196.90082797231827 111.36918925232781 195.59485461847132 112.02217592925129 194.70000000000002 113.1 C 193.04319973550264 114.8477171249835 192.83472581490432 117.51618330864203 194.2 119.5 Z" stroke-linecap="round" />
</g>
		<g transform="matrix(0.15 0 0 0.15 -353.5 60.61)"  >
<path style="stroke: none; stroke-width: 1; stroke-dasharray: none; stroke-linecap: butt; stroke-dashoffset: 0; stroke-linejoin: miter; stroke-miterlimit: 4; fill: rgb(0,0,0); fill-rule: nonzero; opacity: 0.4;" vector-effect="non-scaling-stroke"  transform=" translate(-122.05, -166.05)" d="M 146.6 170.6 C 149.6 159.7 150.9 148.5 152.6 137.39999999999998 L 125.8 110.59999999999998 C 127.13884467552167 113.04685120560173 126.94404003906504 116.04684260703374 125.3 118.29999999999998 C 119.3 127.59999999999998 112.39999999999999 135.6 103.3 142.1 C 100.3 144.2 97.2 146.2 94.3 148.29999999999998 L 93.3 148.99999999999997 C 93.08922809298659 151.2241219772693 92.47948991003935 153.3920799610817 91.5 155.39999999999998 L 91.5 155.59999999999997 C 91.72603028268084 156.04328692391212 91.89407696375892 156.51381763093076 92 156.99999999999997 C 92.8 159.89999999999998 95.7 161.69999999999996 97.8 163.69999999999996 C 99.89999999999999 165.69999999999996 102.7 169.89999999999995 105.1 173.09999999999997 C 109.3 178.59999999999997 114.8 185.49999999999997 120.39999999999999 189.69999999999996 C 123.99999999999999 192.49999999999997 125.89999999999999 196.89999999999995 123.39999999999999 201.29999999999995 C 122.39847900245476 202.81281189033183 120.9720190602596 203.99572989117658 119.3 204.69999999999996 L 136.2 221.49999999999997 C 135.7 213.09999999999997 141.29999999999998 202.59999999999997 144.1 196.49999999999997 L 144.29999999999998 196.29999999999998 C 144.6 193.49999999999997 144.6 190.7 144.89999999999998 187.89999999999998 C 145.19999999999996 185.09999999999997 146.39999999999998 179.49999999999997 147.29999999999998 175.29999999999998 C 146.4061516068938 173.90519736715666 146.15140283582883 172.19474133286334 146.6 170.6 Z" stroke-linecap="round" />
</g>
		<g transform="matrix(0.15 0 0 0.15 -348.13 59.13)"  >
<path style="stroke: none; stroke-width: 1; stroke-dasharray: none; stroke-linecap: butt; stroke-dashoffset: 0; stroke-linejoin: miter; stroke-miterlimit: 4; fill: rgb(15,112,173); fill-rule: nonzero; opacity: 1;" vector-effect="non-scaling-stroke"  transform=" translate(-157.5, -157.5)" d="M 147.4 239.4 L 145.20000000000002 239.4 C 141.22093324664596 238.82364463212986 137.62864249729122 236.70419309001056 135.20000000000002 233.5 C 132.9072481528079 230.50577257526257 131.83517990130198 226.75353369499177 132.20000000000002 223 C 132.08198263620798 222.23420472718217 132.115962734657 221.45266246285541 132.3 220.7 L 152.60000000000002 88.69999999999999 C 153.69056892853618 81.1942137678792 160.1154265634326 75.6203306541611 167.70000000000002 75.6 L 167.8 75.6 C 175.92559850853934 75.70254780705838 182.53333635851226 82.17813090003183 182.8 90.3 C 182.9161882677901 91.19933818037968 182.88239632971465 92.11172050841678 182.70000000000002 93 L 162.5 224.5 C 162.52307807168228 225.13958941601533 162.45574703344587 225.77923427926132 162.3 226.4 C 161.7657210292878 230.34192754141142 159.6773598291754 233.90654407263773 156.5 236.3 C 153.8819317108324 238.2906271809857 150.68883125209135 239.37838667791945 147.4 239.4 Z M 142.20000000000002 222.1 L 142.20000000000002 222.5 L 142.00000000000003 223.5 C 141.86341066503297 224.84587280658027 142.2186273321265 226.19569614153568 143.00000000000003 227.3 C 143.87150718293867 228.38559316236504 145.12226224416284 229.10031034020741 146.50000000000003 229.3 C 147.83590627325097 229.51603780005573 149.20290465888337 229.19227502451122 150.30000000000004 228.4 C 151.41538701982265 227.53906666943823 152.16524095295028 226.2893101142255 152.40000000000003 224.9 L 152.40000000000003 223.70000000000002 L 172.8 91.4 L 172.8 91.4 L 172.8 90.80000000000001 C 172.74892170363046 87.98807485822935 170.510403371805 85.7056640100936 167.70000000000002 85.60000000000001 C 165.04699773554069 85.58228677925477 162.8060633368168 87.56465182427974 162.50000000000003 90.2 Z M 117.90000000000002 213.5 C 113.2238429778523 213.50203775598072 108.80349602190785 211.36553672727422 105.90000000000002 207.7 L 67 168.8 L 66.9 168.8 L 65.4 167.3 C 62.62597340287728 164.43067492321757 61.08292029058309 160.59098462053203 61.10000000000001 156.60000000000002 C 61.068666734074675 152.56704153520354 62.69568986833379 148.69834208263185 65.6 145.90000000000003 L 106.30000000000001 105.20000000000003 C 109.1558559085507 102.46760815947451 112.94765736096325 100.92942455142037 116.9 100.90000000000003 L 117.10000000000001 100.90000000000003 C 121.08518068327214 101.04974310704502 124.8685782945368 102.6915949006127 127.69999999999999 105.50000000000003 L 128 105.70000000000003 C 130.70725665130476 108.63719777659483 132.17603744027366 112.50618131826897 132.1 116.50000000000003 C 131.9801677887077 120.4830518054545 130.29075718188625 124.25726699090667 127.39999999999999 127.00000000000003 L 97.7 156.7 L 128.1 187 C 128.78407363511323 187.5859094772921 129.38913642626838 188.25820146746446 129.9 189 L 130 189 C 135.00186274122967 195.72349264643617 133.6643772344593 205.21963974450594 127 210.3 C 124.41295660168635 212.35988083924343 121.20692315414465 213.48727721640094 117.9 213.5 Z M 72.1 159.7 L 113.69999999999999 201.39999999999998 C 114.53379018094982 202.50292556977098 115.77249256142379 203.22838430520514 117.1423243163276 203.4160324908084 C 118.5121560712314 203.60368067641167 119.90032046637458 203.23806670476068 120.99999999999999 202.39999999999998 C 122.09649468648078 201.58444608254757 122.81982516472591 200.3629654287642 123.00781770678452 199.0094191259423 C 123.19581024884313 197.65587282312035 122.83273681773974 196.28350273748302 121.99999999999999 195.2 C 121.91743955957094 194.97044933013422 121.78013891048029 194.76449835649825 121.59999999999998 194.6 L 121.19999999999997 194.2 L 120.49999999999997 193.5 L 83.49999999999997 156.7 L 120.49999999999997 119.69999999999999 C 121.47893209599819 118.79352533485942 122.05498553414233 117.53340843891911 122.09999999999997 116.19999999999999 C 122.09315711484074 114.86843146604664 121.59456696283496 113.58634250374608 120.69999999999996 112.6 L 120.69999999999996 112.6 C 119.61384072309812 111.64822592969517 118.24164632809295 111.08527438302639 116.79999999999995 111 C 115.45706126734032 111.0434770043089 114.17649082664826 111.57704802126392 113.19999999999996 112.5 L 72.6 153 C 70.8192637831101 154.81144183793117 70.60785546283061 157.64431332967635 72.1 159.7 Z M 197.89999999999998 212.79999999999998 C 193.59789154889117 212.79614382053472 189.4961900918458 210.9812316713996 186.59999999999997 207.79999999999998 C 181.03235455024011 201.61071181136174 181.5244047974787 192.08282975119647 187.69999999999996 186.49999999999997 L 217.29999999999995 156.69999999999996 L 187.79999999999995 127.19999999999996 C 187.2510058331028 126.71480909897538 186.74880002768808 126.17912290653302 186.29999999999995 125.59999999999997 C 181.97419179476051 119.75557779438454 182.3933380082434 111.66605587416484 187.29999999999995 106.29999999999998 C 190.00913040461907 103.33535246700784 193.7876535286813 101.57204167577879 197.79999999999995 101.39999999999996 C 201.83633661672988 101.20644505878754 205.78702711454488 102.60714441710377 208.79999999999995 105.29999999999995 L 208.79999999999995 105.49999999999997 L 248.79999999999995 145.59999999999997 C 251.9271435948339 148.37699491880073 253.7719281213114 152.31976969107612 253.89999999999995 156.49999999999994 L 253.89999999999995 156.89999999999998 C 253.81189002321616 160.8497182935031 252.19937533199612 164.61225257301646 249.39999999999995 167.39999999999998 L 207.99999999999994 208.89999999999998 C 205.2261322331729 211.39559994272201 201.6312326023565 212.78372950313627 197.9 212.8 Z M 194.2 119.49999999999999 L 194.29999999999998 119.49999999999999 L 231.5 156.7 L 194.4 193.89999999999998 C 192.33132213884159 195.80649042457742 192.19709145617614 199.02802680854825 194.1 201.09999999999997 C 195.97480946983347 203.17621030097905 199.15620781885661 203.39714074188345 201.29999999999998 201.59999999999997 L 242.5 160.39999999999998 C 243.42971058657383 159.38783425885293 243.96241213197442 158.07383711353145 244 156.7 C 243.9462168052416 155.2686165352506 243.29297066540084 153.92583280335575 242.2 153 L 242 152.7 L 202 112.6 C 200.95502483849276 111.75019715717359 199.64686640351607 111.29057392326287 198.3 111.3 C 196.90082797231827 111.36918925232781 195.59485461847132 112.02217592925129 194.70000000000002 113.1 C 193.04319973550264 114.8477171249835 192.83472581490432 117.51618330864203 194.2 119.5 Z" stroke-linecap="round" />
</g>
		<g transform="matrix(0.1 0 0 0.1 -425 -17.67)"  >
<path style="stroke: none; stroke-width: 1; stroke-dasharray: none; stroke-linecap: butt; stroke-dashoffset: 0; stroke-linejoin: miter; stroke-miterlimit: 4; fill: rgb(0,0,0); fill-rule: nonzero; opacity: 0.4;" vector-effect="non-scaling-stroke"  transform=" translate(-224.85, -190.9)" d="M 244 148.1 C 244.1493461538544 148.96023274156923 244.1493461538544 149.83976725843075 244 150.7 C 246.08489546217686 151.67055650841436 247.60005523283834 153.5552674426518 248.1 155.79999999999998 C 249.29999999999998 159.79999999999998 246.7 165.39999999999998 242.2 166.1 C 237.7 166.8 235.39999999999998 169.2 232.5 172.5 C 229.65865677596963 175.94081996233848 226.54890790033534 179.15088331783195 223.2 182.1 C 219.62736950109192 185.17278175286933 216.43774437846645 188.66458188711195 213.69999999999996 192.50000000000003 C 211 195.9 207.1 198.1 204.5 201.5 C 201.9 204.9 197.3 207.1 193 204.5 C 188.7 201.9 187.2 196.7 190 193 C 192.8 189.3 197.9 185.4 201.4 181 C 204.6487531597819 176.63522709143237 208.3715027231878 172.64417125318644 212.5 169.10000000000002 C 217.5 164.9 221.2 159.7 225.9 155.7 C 224.4930587829368 155.21333109039278 223.24745528055305 154.34832865818186 222.3 153.2 L 220.4 151.2 C 218.3912535538045 151.15303155477096 216.46966717147401 150.37016302863634 215 149 C 205.91970056764288 140.57910394486558 198.07542384745275 130.91684034531806 191.7 120.29999999999997 C 187.7 113.89999999999999 193.39999999999998 107.89999999999999 199.2 107.8 L 174 82.8 L 173.4 82.8 C 173.8187292856713 83.51473984387167 174.12244004035716 84.2908895502911 174.3 85.1 C 175.46730821079512 86.288353760046 176.0208343126085 87.94893206548612 175.8 89.6 C 175 103.39999999999999 172 117 168.9 130.39999999999998 C 167.8 134.7 166.70000000000002 139.09999999999997 165.8 143.39999999999998 L 164.3 153.49999999999997 C 163.9 156.89999999999998 163.70000000000002 160.39999999999998 163.3 163.79999999999998 L 163.3 163.79999999999998 C 163.10000000000002 166.29999999999998 162.8 168.89999999999998 162.4 171.39999999999998 C 162.3270632190413 171.88184735255246 162.19263340996847 172.35235168430742 162 172.79999999999998 C 161.4797930052751 175.61134100873477 161.11258605987044 178.4488492232252 160.9 181.29999999999998 C 160.70000000000002 186.49999999999997 160.8 191.7 160.1 196.89999999999998 C 159.39999999999998 202.09999999999997 159.6 206.79999999999998 158.1 211.29999999999998 C 158.18343751363108 212.00625763824502 158.1152535619536 212.72218913085823 157.9 213.39999999999998 C 156.3 218.79999999999998 153.9 231.49999999999997 147.20000000000002 232.7 L 213.7 299 C 256.59999999999997 284 290.4 249 302.5 204.9 Z" stroke-linecap="round" />
</g>
		<g transform="matrix(0.1 0 0 0.1 -435.78 -20.2)"  >
<path style="stroke: none; stroke-width: 1; stroke-dasharray: none; stroke-linecap: butt; stroke-dashoffset: 0; stroke-linejoin: miter; stroke-miterlimit: 4; fill: rgb(0,0,0); fill-rule: nonzero; opacity: 0.4;" vector-effect="non-scaling-stroke"  transform=" translate(-122.05, -166.05)" d="M 146.6 170.6 C 149.6 159.7 150.9 148.5 152.6 137.39999999999998 L 125.8 110.59999999999998 C 127.13884467552167 113.04685120560173 126.94404003906504 116.04684260703374 125.3 118.29999999999998 C 119.3 127.59999999999998 112.39999999999999 135.6 103.3 142.1 C 100.3 144.2 97.2 146.2 94.3 148.29999999999998 L 93.3 148.99999999999997 C 93.08922809298659 151.2241219772693 92.47948991003935 153.3920799610817 91.5 155.39999999999998 L 91.5 155.59999999999997 C 91.72603028268084 156.04328692391212 91.89407696375892 156.51381763093076 92 156.99999999999997 C 92.8 159.89999999999998 95.7 161.69999999999996 97.8 163.69999999999996 C 99.89999999999999 165.69999999999996 102.7 169.89999999999995 105.1 173.09999999999997 C 109.3 178.59999999999997 114.8 185.49999999999997 120.39999999999999 189.69999999999996 C 123.99999999999999 192.49999999999997 125.89999999999999 196.89999999999995 123.39999999999999 201.29999999999995 C 122.39847900245476 202.81281189033183 120.9720190602596 203.99572989117658 119.3 204.69999999999996 L 136.2 221.49999999999997 C 135.7 213.09999999999997 141.29999999999998 202.59999999999997 144.1 196.49999999999997 L 144.29999999999998 196.29999999999998 C 144.6 193.49999999999997 144.6 190.7 144.89999999999998 187.89999999999998 C 145.19999999999996 185.09999999999997 146.39999999999998 179.49999999999997 147.29999999999998 175.29999999999998 C 146.4061516068938 173.90519736715666 146.15140283582883 172.19474133286334 146.6 170.6 Z" stroke-linecap="round" />
</g>
		<g transform="matrix(0.1 0 0 0.1 -432.14 -21.15)"  >
<path style="stroke: none; stroke-width: 1; stroke-dasharray: none; stroke-linecap: butt; stroke-dashoffset: 0; stroke-linejoin: miter; stroke-miterlimit: 4; fill: rgb(15,112,173); fill-rule: nonzero; opacity: 1;" vector-effect="non-scaling-stroke"  transform=" translate(-157.5, -157.5)" d="M 147.4 239.4 L 145.20000000000002 239.4 C 141.22093324664596 238.82364463212986 137.62864249729122 236.70419309001056 135.20000000000002 233.5 C 132.9072481528079 230.50577257526257 131.83517990130198 226.75353369499177 132.20000000000002 223 C 132.08198263620798 222.23420472718217 132.115962734657 221.45266246285541 132.3 220.7 L 152.60000000000002 88.69999999999999 C 153.69056892853618 81.1942137678792 160.1154265634326 75.6203306541611 167.70000000000002 75.6 L 167.8 75.6 C 175.92559850853934 75.70254780705838 182.53333635851226 82.17813090003183 182.8 90.3 C 182.9161882677901 91.19933818037968 182.88239632971465 92.11172050841678 182.70000000000002 93 L 162.5 224.5 C 162.52307807168228 225.13958941601533 162.45574703344587 225.77923427926132 162.3 226.4 C 161.7657210292878 230.34192754141142 159.6773598291754 233.90654407263773 156.5 236.3 C 153.8819317108324 238.2906271809857 150.68883125209135 239.37838667791945 147.4 239.4 Z M 142.20000000000002 222.1 L 142.20000000000002 222.5 L 142.00000000000003 223.5 C 141.86341066503297 224.84587280658027 142.2186273321265 226.19569614153568 143.00000000000003 227.3 C 143.87150718293867 228.38559316236504 145.12226224416284 229.10031034020741 146.50000000000003 229.3 C 147.83590627325097 229.51603780005573 149.20290465888337 229.19227502451122 150.30000000000004 228.4 C 151.41538701982265 227.53906666943823 152.16524095295028 226.2893101142255 152.40000000000003 224.9 L 152.40000000000003 223.70000000000002 L 172.8 91.4 L 172.8 91.4 L 172.8 90.80000000000001 C 172.74892170363046 87.98807485822935 170.510403371805 85.7056640100936 167.70000000000002 85.60000000000001 C 165.04699773554069 85.58228677925477 162.8060633368168 87.56465182427974 162.50000000000003 90.2 Z M 117.90000000000002 213.5 C 113.2238429778523 213.50203775598072 108.80349602190785 211.36553672727422 105.90000000000002 207.7 L 67 168.8 L 66.9 168.8 L 65.4 167.3 C 62.62597340287728 164.43067492321757 61.08292029058309 160.59098462053203 61.10000000000001 156.60000000000002 C 61.068666734074675 152.56704153520354 62.69568986833379 148.69834208263185 65.6 145.90000000000003 L 106.30000000000001 105.20000000000003 C 109.1558559085507 102.46760815947451 112.94765736096325 100.92942455142037 116.9 100.90000000000003 L 117.10000000000001 100.90000000000003 C 121.08518068327214 101.04974310704502 124.8685782945368 102.6915949006127 127.69999999999999 105.50000000000003 L 128 105.70000000000003 C 130.70725665130476 108.63719777659483 132.17603744027366 112.50618131826897 132.1 116.50000000000003 C 131.9801677887077 120.4830518054545 130.29075718188625 124.25726699090667 127.39999999999999 127.00000000000003 L 97.7 156.7 L 128.1 187 C 128.78407363511323 187.5859094772921 129.38913642626838 188.25820146746446 129.9 189 L 130 189 C 135.00186274122967 195.72349264643617 133.6643772344593 205.21963974450594 127 210.3 C 124.41295660168635 212.35988083924343 121.20692315414465 213.48727721640094 117.9 213.5 Z M 72.1 159.7 L 113.69999999999999 201.39999999999998 C 114.53379018094982 202.50292556977098 115.77249256142379 203.22838430520514 117.1423243163276 203.4160324908084 C 118.5121560712314 203.60368067641167 119.90032046637458 203.23806670476068 120.99999999999999 202.39999999999998 C 122.09649468648078 201.58444608254757 122.81982516472591 200.3629654287642 123.00781770678452 199.0094191259423 C 123.19581024884313 197.65587282312035 122.83273681773974 196.28350273748302 121.99999999999999 195.2 C 121.91743955957094 194.97044933013422 121.78013891048029 194.76449835649825 121.59999999999998 194.6 L 121.19999999999997 194.2 L 120.49999999999997 193.5 L 83.49999999999997 156.7 L 120.49999999999997 119.69999999999999 C 121.47893209599819 118.79352533485942 122.05498553414233 117.53340843891911 122.09999999999997 116.19999999999999 C 122.09315711484074 114.86843146604664 121.59456696283496 113.58634250374608 120.69999999999996 112.6 L 120.69999999999996 112.6 C 119.61384072309812 111.64822592969517 118.24164632809295 111.08527438302639 116.79999999999995 111 C 115.45706126734032 111.0434770043089 114.17649082664826 111.57704802126392 113.19999999999996 112.5 L 72.6 153 C 70.8192637831101 154.81144183793117 70.60785546283061 157.64431332967635 72.1 159.7 Z M 197.89999999999998 212.79999999999998 C 193.59789154889117 212.79614382053472 189.4961900918458 210.9812316713996 186.59999999999997 207.79999999999998 C 181.03235455024011 201.61071181136174 181.5244047974787 192.08282975119647 187.69999999999996 186.49999999999997 L 217.29999999999995 156.69999999999996 L 187.79999999999995 127.19999999999996 C 187.2510058331028 126.71480909897538 186.74880002768808 126.17912290653302 186.29999999999995 125.59999999999997 C 181.97419179476051 119.75557779438454 182.3933380082434 111.66605587416484 187.29999999999995 106.29999999999998 C 190.00913040461907 103.33535246700784 193.7876535286813 101.57204167577879 197.79999999999995 101.39999999999996 C 201.83633661672988 101.20644505878754 205.78702711454488 102.60714441710377 208.79999999999995 105.29999999999995 L 208.79999999999995 105.49999999999997 L 248.79999999999995 145.59999999999997 C 251.9271435948339 148.37699491880073 253.7719281213114 152.31976969107612 253.89999999999995 156.49999999999994 L 253.89999999999995 156.89999999999998 C 253.81189002321616 160.8497182935031 252.19937533199612 164.61225257301646 249.39999999999995 167.39999999999998 L 207.99999999999994 208.89999999999998 C 205.2261322331729 211.39559994272201 201.6312326023565 212.78372950313627 197.9 212.8 Z M 194.2 119.49999999999999 L 194.29999999999998 119.49999999999999 L 231.5 156.7 L 194.4 193.89999999999998 C 192.33132213884159 195.80649042457742 192.19709145617614 199.02802680854825 194.1 201.09999999999997 C 195.97480946983347 203.17621030097905 199.15620781885661 203.39714074188345 201.29999999999998 201.59999999999997 L 242.5 160.39999999999998 C 243.42971058657383 159.38783425885293 243.96241213197442 158.07383711353145 244 156.7 C 243.9462168052416 155.2686165352506 243.29297066540084 153.92583280335575 242.2 153 L 242 152.7 L 202 112.6 C 200.95502483849276 111.75019715717359 199.64686640351607 111.29057392326287 198.3 111.3 C 196.90082797231827 111.36918925232781 195.59485461847132 112.02217592925129 194.70000000000002 113.1 C 193.04319973550264 114.8477171249835 192.83472581490432 117.51618330864203 194.2 119.5 Z" stroke-linecap="round" />
</g>
		<g transform="matrix(0.05 0 0 0.05 -508.97 39.41)"  >
<path style="stroke: none; stroke-width: 1; stroke-dasharray: none; stroke-linecap: butt; stroke-dashoffset: 0; stroke-linejoin: miter; stroke-miterlimit: 4; fill: rgb(0,0,0); fill-rule: nonzero; opacity: 0.4;" vector-effect="non-scaling-stroke"  transform=" translate(-224.85, -190.9)" d="M 244 148.1 C 244.1493461538544 148.96023274156923 244.1493461538544 149.83976725843075 244 150.7 C 246.08489546217686 151.67055650841436 247.60005523283834 153.5552674426518 248.1 155.79999999999998 C 249.29999999999998 159.79999999999998 246.7 165.39999999999998 242.2 166.1 C 237.7 166.8 235.39999999999998 169.2 232.5 172.5 C 229.65865677596963 175.94081996233848 226.54890790033534 179.15088331783195 223.2 182.1 C 219.62736950109192 185.17278175286933 216.43774437846645 188.66458188711195 213.69999999999996 192.50000000000003 C 211 195.9 207.1 198.1 204.5 201.5 C 201.9 204.9 197.3 207.1 193 204.5 C 188.7 201.9 187.2 196.7 190 193 C 192.8 189.3 197.9 185.4 201.4 181 C 204.6487531597819 176.63522709143237 208.3715027231878 172.64417125318644 212.5 169.10000000000002 C 217.5 164.9 221.2 159.7 225.9 155.7 C 224.4930587829368 155.21333109039278 223.24745528055305 154.34832865818186 222.3 153.2 L 220.4 151.2 C 218.3912535538045 151.15303155477096 216.46966717147401 150.37016302863634 215 149 C 205.91970056764288 140.57910394486558 198.07542384745275 130.91684034531806 191.7 120.29999999999997 C 187.7 113.89999999999999 193.39999999999998 107.89999999999999 199.2 107.8 L 174 82.8 L 173.4 82.8 C 173.8187292856713 83.51473984387167 174.12244004035716 84.2908895502911 174.3 85.1 C 175.46730821079512 86.288353760046 176.0208343126085 87.94893206548612 175.8 89.6 C 175 103.39999999999999 172 117 168.9 130.39999999999998 C 167.8 134.7 166.70000000000002 139.09999999999997 165.8 143.39999999999998 L 164.3 153.49999999999997 C 163.9 156.89999999999998 163.70000000000002 160.39999999999998 163.3 163.79999999999998 L 163.3 163.79999999999998 C 163.10000000000002 166.29999999999998 162.8 168.89999999999998 162.4 171.39999999999998 C 162.3270632190413 171.88184735255246 162.19263340996847 172.35235168430742 162 172.79999999999998 C 161.4797930052751 175.61134100873477 161.11258605987044 178.4488492232252 160.9 181.29999999999998 C 160.70000000000002 186.49999999999997 160.8 191.7 160.1 196.89999999999998 C 159.39999999999998 202.09999999999997 159.6 206.79999999999998 158.1 211.29999999999998 C 158.18343751363108 212.00625763824502 158.1152535619536 212.72218913085823 157.9 213.39999999999998 C 156.3 218.79999999999998 153.9 231.49999999999997 147.20000000000002 232.7 L 213.7 299 C 256.59999999999997 284 290.4 249 302.5 204.9 Z" stroke-linecap="round" />
</g>
		<g transform="matrix(0.05 0 0 0.05 -514.23 37.84)"  >
<path style="stroke: none; stroke-width: 1; stroke-dasharray: none; stroke-linecap: butt; stroke-dashoffset: 0; stroke-linejoin: miter; stroke-miterlimit: 4; fill: rgb(0,0,0); fill-rule: nonzero; opacity: 0.4;" vector-effect="non-scaling-stroke"  transform=" translate(-122.05, -166.05)" d="M 146.6 170.6 C 149.6 159.7 150.9 148.5 152.6 137.39999999999998 L 125.8 110.59999999999998 C 127.13884467552167 113.04685120560173 126.94404003906504 116.04684260703374 125.3 118.29999999999998 C 119.3 127.59999999999998 112.39999999999999 135.6 103.3 142.1 C 100.3 144.2 97.2 146.2 94.3 148.29999999999998 L 93.3 148.99999999999997 C 93.08922809298659 151.2241219772693 92.47948991003935 153.3920799610817 91.5 155.39999999999998 L 91.5 155.59999999999997 C 91.72603028268084 156.04328692391212 91.89407696375892 156.51381763093076 92 156.99999999999997 C 92.8 159.89999999999998 95.7 161.69999999999996 97.8 163.69999999999996 C 99.89999999999999 165.69999999999996 102.7 169.89999999999995 105.1 173.09999999999997 C 109.3 178.59999999999997 114.8 185.49999999999997 120.39999999999999 189.69999999999996 C 123.99999999999999 192.49999999999997 125.89999999999999 196.89999999999995 123.39999999999999 201.29999999999995 C 122.39847900245476 202.81281189033183 120.9720190602596 203.99572989117658 119.3 204.69999999999996 L 136.2 221.49999999999997 C 135.7 213.09999999999997 141.29999999999998 202.59999999999997 144.1 196.49999999999997 L 144.29999999999998 196.29999999999998 C 144.6 193.49999999999997 144.6 190.7 144.89999999999998 187.89999999999998 C 145.19999999999996 185.09999999999997 146.39999999999998 179.49999999999997 147.29999999999998 175.29999999999998 C 146.4061516068938 173.90519736715666 146.15140283582883 172.19474133286334 146.6 170.6 Z" stroke-linecap="round" />
</g>
		<g transform="matrix(0.05 0 0 0.05 -512.05 37.63)"  >
<path style="stroke: none; stroke-width: 1; stroke-dasharray: none; stroke-linecap: butt; stroke-dashoffset: 0; stroke-linejoin: miter; stroke-miterlimit: 4; fill: rgb(15,112,173); fill-rule: nonzero; opacity: 1;" vector-effect="non-scaling-stroke"  transform=" translate(-157.5, -157.5)" d="M 147.4 239.4 L 145.20000000000002 239.4 C 141.22093324664596 238.82364463212986 137.62864249729122 236.70419309001056 135.20000000000002 233.5 C 132.9072481528079 230.50577257526257 131.83517990130198 226.75353369499177 132.20000000000002 223 C 132.08198263620798 222.23420472718217 132.115962734657 221.45266246285541 132.3 220.7 L 152.60000000000002 88.69999999999999 C 153.69056892853618 81.1942137678792 160.1154265634326 75.6203306541611 167.70000000000002 75.6 L 167.8 75.6 C 175.92559850853934 75.70254780705838 182.53333635851226 82.17813090003183 182.8 90.3 C 182.9161882677901 91.19933818037968 182.88239632971465 92.11172050841678 182.70000000000002 93 L 162.5 224.5 C 162.52307807168228 225.13958941601533 162.45574703344587 225.77923427926132 162.3 226.4 C 161.7657210292878 230.34192754141142 159.6773598291754 233.90654407263773 156.5 236.3 C 153.8819317108324 238.2906271809857 150.68883125209135 239.37838667791945 147.4 239.4 Z M 142.20000000000002 222.1 L 142.20000000000002 222.5 L 142.00000000000003 223.5 C 141.86341066503297 224.84587280658027 142.2186273321265 226.19569614153568 143.00000000000003 227.3 C 143.87150718293867 228.38559316236504 145.12226224416284 229.10031034020741 146.50000000000003 229.3 C 147.83590627325097 229.51603780005573 149.20290465888337 229.19227502451122 150.30000000000004 228.4 C 151.41538701982265 227.53906666943823 152.16524095295028 226.2893101142255 152.40000000000003 224.9 L 152.40000000000003 223.70000000000002 L 172.8 91.4 L 172.8 91.4 L 172.8 90.80000000000001 C 172.74892170363046 87.98807485822935 170.510403371805 85.7056640100936 167.70000000000002 85.60000000000001 C 165.04699773554069 85.58228677925477 162.8060633368168 87.56465182427974 162.50000000000003 90.2 Z M 117.90000000000002 213.5 C 113.2238429778523 213.50203775598072 108.80349602190785 211.36553672727422 105.90000000000002 207.7 L 67 168.8 L 66.9 168.8 L 65.4 167.3 C 62.62597340287728 164.43067492321757 61.08292029058309 160.59098462053203 61.10000000000001 156.60000000000002 C 61.068666734074675 152.56704153520354 62.69568986833379 148.69834208263185 65.6 145.90000000000003 L 106.30000000000001 105.20000000000003 C 109.1558559085507 102.46760815947451 112.94765736096325 100.92942455142037 116.9 100.90000000000003 L 117.10000000000001 100.90000000000003 C 121.08518068327214 101.04974310704502 124.8685782945368 102.6915949006127 127.69999999999999 105.50000000000003 L 128 105.70000000000003 C 130.70725665130476 108.63719777659483 132.17603744027366 112.50618131826897 132.1 116.50000000000003 C 131.9801677887077 120.4830518054545 130.29075718188625 124.25726699090667 127.39999999999999 127.00000000000003 L 97.7 156.7 L 128.1 187 C 128.78407363511323 187.5859094772921 129.38913642626838 188.25820146746446 129.9 189 L 130 189 C 135.00186274122967 195.72349264643617 133.6643772344593 205.21963974450594 127 210.3 C 124.41295660168635 212.35988083924343 121.20692315414465 213.48727721640094 117.9 213.5 Z M 72.1 159.7 L 113.69999999999999 201.39999999999998 C 114.53379018094982 202.50292556977098 115.77249256142379 203.22838430520514 117.1423243163276 203.4160324908084 C 118.5121560712314 203.60368067641167 119.90032046637458 203.23806670476068 120.99999999999999 202.39999999999998 C 122.09649468648078 201.58444608254757 122.81982516472591 200.3629654287642 123.00781770678452 199.0094191259423 C 123.19581024884313 197.65587282312035 122.83273681773974 196.28350273748302 121.99999999999999 195.2 C 121.91743955957094 194.97044933013422 121.78013891048029 194.76449835649825 121.59999999999998 194.6 L 121.19999999999997 194.2 L 120.49999999999997 193.5 L 83.49999999999997 156.7 L 120.49999999999997 119.69999999999999 C 121.47893209599819 118.79352533485942 122.05498553414233 117.53340843891911 122.09999999999997 116.19999999999999 C 122.09315711484074 114.86843146604664 121.59456696283496 113.58634250374608 120.69999999999996 112.6 L 120.69999999999996 112.6 C 119.61384072309812 111.64822592969517 118.24164632809295 111.08527438302639 116.79999999999995 111 C 115.45706126734032 111.0434770043089 114.17649082664826 111.57704802126392 113.19999999999996 112.5 L 72.6 153 C 70.8192637831101 154.81144183793117 70.60785546283061 157.64431332967635 72.1 159.7 Z M 197.89999999999998 212.79999999999998 C 193.59789154889117 212.79614382053472 189.4961900918458 210.9812316713996 186.59999999999997 207.79999999999998 C 181.03235455024011 201.61071181136174 181.5244047974787 192.08282975119647 187.69999999999996 186.49999999999997 L 217.29999999999995 156.69999999999996 L 187.79999999999995 127.19999999999996 C 187.2510058331028 126.71480909897538 186.74880002768808 126.17912290653302 186.29999999999995 125.59999999999997 C 181.97419179476051 119.75557779438454 182.3933380082434 111.66605587416484 187.29999999999995 106.29999999999998 C 190.00913040461907 103.33535246700784 193.7876535286813 101.57204167577879 197.79999999999995 101.39999999999996 C 201.83633661672988 101.20644505878754 205.78702711454488 102.60714441710377 208.79999999999995 105.29999999999995 L 208.79999999999995 105.49999999999997 L 248.79999999999995 145.59999999999997 C 251.9271435948339 148.37699491880073 253.7719281213114 152.31976969107612 253.89999999999995 156.49999999999994 L 253.89999999999995 156.89999999999998 C 253.81189002321616 160.8497182935031 252.19937533199612 164.61225257301646 249.39999999999995 167.39999999999998 L 207.99999999999994 208.89999999999998 C 205.2261322331729 211.39559994272201 201.6312326023565 212.78372950313627 197.9 212.8 Z M 194.2 119.49999999999999 L 194.29999999999998 119.49999999999999 L 231.5 156.7 L 194.4 193.89999999999998 C 192.33132213884159 195.80649042457742 192.19709145617614 199.02802680854825 194.1 201.09999999999997 C 195.97480946983347 203.17621030097905 199.15620781885661 203.39714074188345 201.29999999999998 201.59999999999997 L 242.5 160.39999999999998 C 243.42971058657383 159.38783425885293 243.96241213197442 158.07383711353145 244 156.7 C 243.9462168052416 155.2686165352506 243.29297066540084 153.92583280335575 242.2 153 L 242 152.7 L 202 112.6 C 200.95502483849276 111.75019715717359 199.64686640351607 111.29057392326287 198.3 111.3 C 196.90082797231827 111.36918925232781 195.59485461847132 112.02217592925129 194.70000000000002 113.1 C 193.04319973550264 114.8477171249835 192.83472581490432 117.51618330864203 194.2 119.5 Z" stroke-linecap="round" />
</g>
</g>
</g>
</svg>