<svg xmlns="http://www.w3.org/2000/svg" xmlns:xlink="http://www.w3.org/1999/xlink" width="500" zoomAndPan="magnify" viewBox="0 0 375 119.999999" height="160" preserveAspectRatio="xMidYMid meet" version="1.0"><defs><g/><clipPath id="704a691a98"><path d="M 33 56 L 58.683594 56 L 58.683594 74 L 33 74 Z M 33 56 " clip-rule="nonzero"/></clipPath><clipPath id="17b08af07e"><path d="M 6 14.917969 L 58.683594 14.917969 L 58.683594 38 L 6 38 Z M 6 14.917969 " clip-rule="nonzero"/></clipPath><clipPath id="f990d51847"><path d="M 0 53 L 44 53 L 44 79.714844 L 0 79.714844 Z M 0 53 " clip-rule="nonzero"/></clipPath></defs><g fill="#00a19a" fill-opacity="1"><g transform="translate(188.751079, 68.099694)"><g><path d="M 4.632812 0 L 35.199219 0 L 35.199219 -11.710938 L 17.285156 -11.710938 L 17.285156 -43.839844 L 4.632812 -43.839844 Z M 4.632812 0 "/></g></g></g><g fill="#00a19a" fill-opacity="1"><g transform="translate(225.515067, 68.099694)"><g><path d="M 21.230469 0.941406 C 32.691406 0.941406 40.460938 -6.136719 40.460938 -16.597656 C 40.460938 -26.992188 32.691406 -34.070312 21.230469 -34.070312 C 9.707031 -34.070312 1.941406 -26.992188 1.941406 -16.597656 C 1.941406 -6.136719 9.707031 0.941406 21.230469 0.941406 Z M 13.714844 -16.597656 C 13.714844 -20.980469 16.847656 -24.113281 21.230469 -24.113281 C 25.617188 -24.113281 28.683594 -20.980469 28.683594 -16.597656 C 28.683594 -12.148438 25.617188 -9.019531 21.230469 -9.019531 C 16.847656 -9.019531 13.714844 -12.148438 13.714844 -16.597656 Z M 13.714844 -16.597656 "/></g></g></g><g fill="#00a19a" fill-opacity="1"><g transform="translate(267.915801, 68.099694)"><g><path d="M 21.230469 0.941406 C 32.691406 0.941406 40.460938 -6.136719 40.460938 -16.597656 C 40.460938 -26.992188 32.691406 -34.070312 21.230469 -34.070312 C 9.707031 -34.070312 1.941406 -26.992188 1.941406 -16.597656 C 1.941406 -6.136719 9.707031 0.941406 21.230469 0.941406 Z M 13.714844 -16.597656 C 13.714844 -20.980469 16.847656 -24.113281 21.230469 -24.113281 C 25.617188 -24.113281 28.683594 -20.980469 28.683594 -16.597656 C 28.683594 -12.148438 25.617188 -9.019531 21.230469 -9.019531 C 16.847656 -9.019531 13.714844 -12.148438 13.714844 -16.597656 Z M 13.714844 -16.597656 "/></g></g></g><g fill="#00a19a" fill-opacity="1"><g transform="translate(310.316534, 68.099694)"><g><path d="M 4.195312 0 L 16.222656 0 L 16.222656 -18.226562 C 16.222656 -21.921875 18.164062 -24.113281 21.355469 -24.113281 C 24.425781 -24.113281 26.304688 -21.921875 26.304688 -18.351562 L 26.304688 0 L 38.140625 0 L 38.140625 -18.226562 C 38.140625 -21.921875 40.082031 -24.113281 43.277344 -24.113281 C 46.347656 -24.113281 48.226562 -21.921875 48.226562 -18.351562 L 48.226562 0 L 60.25 0 L 60.25 -19.539062 C 60.25 -28.496094 54.800781 -34.070312 46.347656 -34.070312 C 41.335938 -34.070312 37.265625 -32.191406 34.695312 -28.933594 C 32.316406 -32.253906 28.558594 -34.070312 24.050781 -34.070312 C 19.917969 -34.070312 16.410156 -32.566406 14.027344 -29.875 L 12.839844 -33.132812 L 4.195312 -33.132812 Z M 4.195312 0 "/></g></g></g><g fill="#38b6ff" fill-opacity="1"><g transform="translate(60.45378, 68.099694)"><g><path d="M 21.230469 0.941406 C 32.691406 0.941406 40.460938 -6.136719 40.460938 -16.597656 C 40.460938 -26.992188 32.691406 -34.070312 21.230469 -34.070312 C 9.707031 -34.070312 1.941406 -26.992188 1.941406 -16.597656 C 1.941406 -6.136719 9.707031 0.941406 21.230469 0.941406 Z M 13.714844 -16.597656 C 13.714844 -20.980469 16.847656 -24.113281 21.230469 -24.113281 C 25.617188 -24.113281 28.683594 -20.980469 28.683594 -16.597656 C 28.683594 -12.148438 25.617188 -9.019531 21.230469 -9.019531 C 16.847656 -9.019531 13.714844 -12.148438 13.714844 -16.597656 Z M 13.714844 -16.597656 "/></g></g></g><g fill="#38b6ff" fill-opacity="1"><g transform="translate(102.854514, 68.099694)"><g><path d="M 18.851562 0.941406 C 23.550781 0.941406 27.496094 -0.625 30.4375 -3.320312 L 31.628906 0 L 40.269531 0 L 40.269531 -46.347656 L 28.246094 -46.347656 L 28.246094 -31.441406 C 25.617188 -33.132812 22.421875 -34.070312 18.851562 -34.070312 C 8.894531 -34.070312 1.941406 -26.867188 1.941406 -16.597656 C 1.941406 -6.199219 8.894531 0.941406 18.851562 0.941406 Z M 13.714844 -16.597656 C 13.714844 -20.980469 16.785156 -24.113281 21.230469 -24.113281 C 25.617188 -24.113281 28.683594 -20.980469 28.683594 -16.597656 C 28.683594 -12.148438 25.617188 -9.019531 21.230469 -9.019531 C 16.785156 -9.019531 13.714844 -12.148438 13.714844 -16.597656 Z M 13.714844 -16.597656 "/></g></g></g><g fill="#38b6ff" fill-opacity="1"><g transform="translate(147.322032, 68.099694)"><g><path d="M 20.667969 0.941406 C 29.25 0.941406 35.824219 -3.320312 38.769531 -10.710938 L 27.117188 -10.710938 C 25.804688 -9.144531 23.488281 -8.140625 20.917969 -8.140625 C 17.535156 -8.140625 14.71875 -9.957031 13.839844 -13.589844 L 39.394531 -13.589844 C 40.019531 -25.929688 32.566406 -34.070312 20.730469 -34.070312 C 9.644531 -34.070312 1.941406 -26.929688 1.941406 -16.597656 C 1.941406 -6.199219 9.582031 0.941406 20.667969 0.941406 Z M 13.902344 -20.105469 C 14.90625 -23.296875 17.535156 -25.050781 20.855469 -25.050781 C 24.488281 -25.050781 26.929688 -23.171875 27.933594 -20.105469 Z M 13.902344 -20.105469 "/></g></g></g><g fill="#737373" fill-opacity="1"><g transform="translate(126.999659, 107.958219)"><g><path d="M 1.125 -2.3125 L 15.046875 -3.53125 L 13.921875 -8.59375 L 3.140625 -7.34375 L 1.84375 -8.546875 L 2.1875 -16.84375 L 3.46875 -17.953125 L 16.59375 -16.734375 L 16.390625 -14.390625 L 4.484375 -15.484375 L 4.234375 -9.84375 L 14.6875 -11.015625 L 15.96875 -10.109375 L 17.640625 -2.734375 L 16.5625 -1.296875 L 1.34375 0 Z M 1.125 -2.3125 "/></g></g></g><g fill="#737373" fill-opacity="1"><g transform="translate(155.719441, 107.958219)"><g><path d="M 2.1875 -1.5 L 1.25 -2.8125 L 2.4375 -11.6875 L 3.484375 -12.671875 L 10.78125 -13.28125 L 11.9375 -12.65625 L 14.046875 -8.46875 L 13.21875 -6.796875 L 5.484375 -5.1875 L 4.984375 -7.453125 L 11.234375 -8.796875 L 10.1875 -10.859375 L 4.609375 -10.4375 L 3.71875 -3.59375 L 12.28125 -2 L 11.828125 0.296875 Z M 2.1875 -1.5 "/></g></g></g><g fill="#737373" fill-opacity="1"><g transform="translate(179.981037, 107.958219)"><g><path d="M 1.25 -0.09375 L 3.390625 -15.140625 L 5.703125 -14.84375 L 3.59375 0.21875 Z M 1.25 -0.09375 "/></g></g></g><g fill="#737373" fill-opacity="1"><g transform="translate(196.148152, 107.958219)"><g><path d="M 1.25 -0.09375 L 3.390625 -15.140625 L 5.703125 -14.84375 L 3.59375 0.21875 Z M 1.25 -0.09375 "/></g></g></g><g fill="#737373" fill-opacity="1"><g transform="translate(212.315267, 107.958219)"><g><path d="M 11.859375 -7.640625 L 12.28125 -5.3125 L 5.15625 -4.109375 L 3.015625 0.59375 L 0.875 -0.34375 L 9.171875 -18.484375 L 11.3125 -18.5 L 18.875 -2.59375 L 16.765625 -1.5625 L 10.234375 -15.21875 L 6.34375 -6.703125 Z M 11.859375 -7.640625 "/></g></g></g><g fill="#737373" fill-opacity="1"><g transform="translate(242.031292, 107.958219)"><g><path d="M 1.625 -0.46875 L 2.46875 -17.578125 L 4.828125 -17.453125 L 3.953125 -0.34375 Z M 1.625 -0.46875 "/></g></g></g><g clip-path="url(#704a691a98)"><path fill="#00a19a" d="M 47.359375 59.414062 C 47.359375 60.160156 46.75 60.765625 46.007812 60.765625 C 45.265625 60.765625 44.660156 60.160156 44.660156 59.414062 C 44.660156 58.671875 45.265625 58.066406 46.007812 58.066406 C 46.75 58.066406 47.359375 58.671875 47.359375 59.414062 Z M 58.824219 59.414062 C 58.824219 58.207031 57.84375 57.226562 56.636719 57.226562 C 55.644531 57.226562 54.808594 57.886719 54.539062 58.789062 L 48.851562 58.789062 C 48.566406 57.480469 47.402344 56.503906 46.007812 56.503906 C 44.398438 56.503906 43.09375 57.804688 43.09375 59.414062 C 43.09375 60.152344 43.371094 60.828125 43.824219 61.34375 C 42.191406 62.867188 40.320312 64.082031 38.296875 64.945312 C 38.046875 64.011719 37.195312 63.324219 36.183594 63.324219 C 34.972656 63.324219 33.996094 64.300781 33.996094 65.511719 C 33.996094 66.71875 34.972656 67.699219 36.183594 67.699219 C 37.101562 67.699219 37.886719 67.132812 38.210938 66.332031 C 40.664062 65.371094 42.917969 63.9375 44.855469 62.089844 C 45.023438 62.164062 45.199219 62.21875 45.382812 62.257812 L 45.382812 68.183594 C 44.773438 68.320312 44.234375 68.644531 43.832031 69.09375 L 39.515625 66.679688 L 38.90625 67.769531 L 43.21875 70.1875 C 43.140625 70.453125 43.09375 70.734375 43.09375 71.03125 C 43.09375 72.636719 44.398438 73.941406 46.007812 73.941406 C 47.617188 73.941406 48.921875 72.636719 48.921875 71.03125 C 48.921875 69.636719 47.941406 68.472656 46.632812 68.183594 L 46.632812 62.257812 C 47.722656 62.019531 48.585938 61.171875 48.839844 60.085938 L 54.554688 60.085938 C 54.707031 60.558594 55.015625 60.960938 55.414062 61.230469 C 53.785156 64.105469 51.679688 66.632812 49.226562 68.738281 C 49.480469 69.09375 49.675781 69.488281 49.800781 69.914062 C 52.570312 67.585938 54.882812 64.769531 56.640625 61.601562 C 57.847656 61.601562 58.824219 60.621094 58.824219 59.414062 " fill-opacity="1" fill-rule="nonzero"/></g><g clip-path="url(#17b08af07e)"><path fill="#1976d2" d="M 57.261719 34.609375 C 57.261719 35.351562 56.65625 35.957031 55.914062 35.957031 C 55.167969 35.957031 54.5625 35.351562 54.5625 34.609375 C 54.5625 33.863281 55.167969 33.257812 55.914062 33.257812 C 56.65625 33.257812 57.261719 33.863281 57.261719 34.609375 Z M 44.933594 23.71875 C 43.886719 23.71875 43.03125 22.867188 43.03125 21.816406 C 43.03125 20.769531 43.886719 19.917969 44.933594 19.917969 C 45.984375 19.917969 46.835938 20.769531 46.835938 21.816406 C 46.835938 22.867188 45.984375 23.71875 44.933594 23.71875 Z M 27.839844 17.832031 C 27.839844 18.578125 27.234375 19.179688 26.492188 19.179688 C 25.75 19.179688 25.144531 18.578125 25.144531 17.832031 C 25.144531 17.089844 25.75 16.484375 26.492188 16.484375 C 27.234375 16.484375 27.839844 17.089844 27.839844 17.832031 Z M 24.40625 29.035156 C 24.40625 30.085938 23.554688 30.9375 22.507812 30.9375 C 21.457031 30.9375 20.605469 30.085938 20.605469 29.035156 C 20.605469 27.988281 21.457031 27.136719 22.507812 27.136719 C 23.554688 27.136719 24.40625 27.988281 24.40625 29.035156 Z M 58.824219 34.609375 C 58.824219 33 57.519531 31.695312 55.914062 31.695312 C 54.355469 31.695312 53.085938 32.917969 53.003906 34.453125 L 48.011719 34.453125 C 47.730469 33.820312 47.160156 33.339844 46.464844 33.195312 L 45.871094 25.691406 C 46.359375 25.574219 46.816406 25.367188 47.21875 25.085938 L 52.550781 30.613281 L 53.449219 29.746094 L 48.117188 24.214844 C 48.621094 23.550781 48.921875 22.71875 48.921875 21.816406 C 48.921875 19.617188 47.136719 17.832031 44.933594 17.832031 C 43.507812 17.832031 42.253906 18.585938 41.550781 19.714844 C 38.132812 18.375 34.476562 17.675781 30.746094 17.675781 C 30.296875 17.675781 29.847656 17.6875 29.402344 17.707031 C 29.335938 16.15625 28.058594 14.921875 26.492188 14.921875 C 24.882812 14.921875 23.578125 16.222656 23.578125 17.832031 C 23.578125 18.070312 23.609375 18.304688 23.664062 18.527344 C 19.148438 19.632812 14.957031 21.789062 11.390625 24.882812 C 11.65625 25.230469 11.855469 25.628906 11.964844 26.066406 C 15.414062 23.007812 19.609375 20.773438 24.242188 19.683594 C 24.441406 19.925781 24.683594 20.132812 24.949219 20.300781 L 23.238281 25.117188 C 23 25.074219 22.757812 25.050781 22.507812 25.050781 C 20.738281 25.050781 19.238281 26.203125 18.71875 27.796875 L 11 26.5625 C 10.855469 25.488281 9.941406 24.660156 8.832031 24.660156 C 7.621094 24.660156 6.644531 25.640625 6.644531 26.847656 C 6.644531 28.058594 7.621094 29.035156 8.832031 29.035156 C 9.699219 29.035156 10.445312 28.53125 10.800781 27.796875 L 18.519531 29.03125 L 18.519531 29.035156 C 18.519531 31.238281 20.304688 33.023438 22.507812 33.023438 C 24.707031 33.023438 26.492188 31.238281 26.492188 29.035156 C 26.492188 27.527344 25.652344 26.214844 24.414062 25.539062 L 26.128906 20.722656 C 26.246094 20.734375 26.367188 20.746094 26.492188 20.746094 C 27.140625 20.746094 27.742188 20.53125 28.226562 20.171875 L 34.363281 25.523438 L 35.1875 24.578125 L 29.046875 19.230469 C 29.09375 19.148438 29.136719 19.0625 29.171875 18.972656 C 29.695312 18.945312 30.21875 18.929688 30.746094 18.929688 C 34.332031 18.929688 37.824219 19.613281 41.058594 20.886719 C 40.988281 21.183594 40.949219 21.496094 40.949219 21.816406 C 40.949219 23.914062 42.566406 25.632812 44.625 25.789062 L 45.175781 32.765625 C 43.578125 31.171875 41.746094 29.867188 39.757812 28.890625 C 39.769531 28.800781 39.777344 28.710938 39.777344 28.617188 C 39.777344 27.410156 38.796875 26.429688 37.589844 26.429688 C 36.820312 26.429688 36.144531 26.824219 35.753906 27.425781 C 34.140625 27.019531 32.460938 26.8125 30.746094 26.8125 C 29.523438 26.8125 28.324219 26.917969 27.15625 27.128906 C 27.3125 27.511719 27.425781 27.917969 27.484375 28.339844 C 28.546875 28.15625 29.636719 28.0625 30.746094 28.0625 C 32.339844 28.0625 33.898438 28.253906 35.402344 28.628906 C 35.40625 29.832031 36.386719 30.804688 37.589844 30.804688 C 38.253906 30.804688 38.851562 30.507812 39.253906 30.035156 C 41.164062 30.980469 42.921875 32.25 44.445312 33.804688 C 44.058594 34.199219 43.820312 34.738281 43.820312 35.332031 C 43.820312 36.542969 44.800781 37.519531 46.007812 37.519531 C 47.089844 37.519531 47.984375 36.734375 48.164062 35.707031 L 53.214844 35.707031 C 53.648438 36.769531 54.691406 37.519531 55.914062 37.519531 C 57.519531 37.519531 58.824219 36.21875 58.824219 34.609375 " fill-opacity="1" fill-rule="nonzero"/></g><path fill="#1976d2" d="M 3.351562 39.710938 C 3.351562 40.339844 2.835938 40.855469 2.203125 40.855469 C 1.574219 40.855469 1.058594 40.339844 1.058594 39.710938 C 1.058594 39.078125 1.574219 38.5625 2.203125 38.5625 C 2.835938 38.5625 3.351562 39.078125 3.351562 39.710938 Z M 10.628906 46.515625 C 11.675781 46.515625 12.53125 47.367188 12.53125 48.417969 C 12.53125 49.464844 11.675781 50.320312 10.628906 50.320312 C 9.578125 50.320312 8.726562 49.464844 8.726562 48.417969 C 8.726562 47.367188 9.578125 46.515625 10.628906 46.515625 Z M 18.703125 32.320312 C 18.429688 32.003906 18.195312 31.652344 18.007812 31.273438 C 16.652344 32.355469 15.4375 33.605469 14.394531 34.992188 C 14.042969 34.75 13.621094 34.609375 13.160156 34.609375 C 11.976562 34.609375 11.011719 35.554688 10.976562 36.730469 L 4.066406 38.566406 C 4.007812 38.46875 3.941406 38.375 3.867188 38.289062 C 4.875 35.28125 6.375 32.496094 8.269531 30.027344 C 7.824219 29.949219 7.410156 29.78125 7.046875 29.539062 C 5.199219 32.003906 3.761719 34.71875 2.769531 37.597656 C 2.589844 37.550781 2.398438 37.519531 2.203125 37.519531 C 0.996094 37.519531 0.015625 38.5 0.015625 39.710938 C 0.015625 40.699219 0.675781 41.535156 1.578125 41.804688 L 1.578125 52.402344 L 2.828125 52.402344 L 2.828125 41.804688 C 3.710938 41.542969 4.359375 40.738281 4.390625 39.777344 L 11.296875 37.9375 C 11.503906 38.277344 11.800781 38.554688 12.152344 38.738281 C 11.335938 40.515625 10.765625 42.429688 10.484375 44.433594 C 8.351562 44.511719 6.644531 46.265625 6.644531 48.417969 C 6.644531 50.617188 8.425781 52.402344 10.628906 52.402344 C 12.828125 52.402344 14.613281 50.617188 14.613281 48.417969 C 14.613281 46.597656 13.394531 45.0625 11.726562 44.585938 C 12.003906 42.601562 12.589844 40.710938 13.429688 38.96875 C 14.511719 38.835938 15.347656 37.914062 15.347656 36.796875 C 15.347656 36.519531 15.292969 36.253906 15.199219 36.007812 C 16.199219 34.628906 17.378906 33.386719 18.703125 32.320312 " fill-opacity="1" fill-rule="nonzero"/><g clip-path="url(#f990d51847)"><path fill="#00a19a" d="M 34.097656 75.769531 C 34.097656 76.816406 33.246094 77.671875 32.195312 77.671875 C 31.148438 77.671875 30.296875 76.816406 30.296875 75.769531 C 30.296875 74.722656 31.148438 73.867188 32.195312 73.867188 C 33.246094 73.867188 34.097656 74.722656 34.097656 75.769531 Z M 27.636719 65.929688 C 27.636719 66.5625 27.125 67.074219 26.492188 67.074219 C 25.859375 67.074219 25.347656 66.5625 25.347656 65.929688 C 25.347656 65.296875 25.859375 64.78125 26.492188 64.78125 C 27.125 64.78125 27.636719 65.296875 27.636719 65.929688 Z M 3.730469 57.851562 C 2.988281 57.851562 2.382812 57.246094 2.382812 56.503906 C 2.382812 55.757812 2.988281 55.152344 3.730469 55.152344 C 4.472656 55.152344 5.078125 55.757812 5.078125 56.503906 C 5.078125 57.246094 4.472656 57.851562 3.730469 57.851562 Z M 14 59.414062 C 14 58.671875 14.605469 58.066406 15.347656 58.066406 C 16.09375 58.066406 16.699219 58.671875 16.699219 59.414062 C 16.699219 60.160156 16.09375 60.765625 15.347656 60.765625 C 14.605469 60.765625 14 60.160156 14 59.414062 Z M 43.421875 74.019531 C 43.089844 73.730469 42.808594 73.390625 42.585938 73.007812 C 40.535156 73.953125 38.367188 74.65625 36.125 75.09375 C 35.804688 73.214844 34.167969 71.785156 32.195312 71.785156 C 31.691406 71.785156 31.207031 71.878906 30.765625 72.050781 L 28.082031 67.429688 C 28.453125 67.035156 28.679688 66.511719 28.679688 65.929688 C 28.679688 64.722656 27.699219 63.742188 26.492188 63.742188 C 25.398438 63.742188 24.492188 64.546875 24.332031 65.597656 L 14.441406 66.960938 C 13.945312 65.324219 12.425781 64.132812 10.628906 64.132812 C 9.832031 64.132812 9.089844 64.367188 8.46875 64.769531 C 7.105469 63.039062 5.9375 61.144531 5.003906 59.121094 C 5.582031 58.839844 6.050781 58.375 6.335938 57.800781 L 12.4375 59.328125 C 12.4375 59.359375 12.4375 59.386719 12.4375 59.414062 C 12.4375 61.023438 13.742188 62.328125 15.347656 62.328125 C 16.957031 62.328125 18.261719 61.023438 18.261719 59.414062 C 18.261719 57.804688 16.957031 56.503906 15.347656 56.503906 C 15.207031 56.503906 15.070312 56.511719 14.933594 56.53125 L 13.746094 53.371094 L 12.574219 53.808594 L 13.761719 56.972656 C 13.328125 57.253906 12.976562 57.648438 12.742188 58.117188 L 6.640625 56.585938 C 6.640625 56.558594 6.644531 56.53125 6.644531 56.503906 C 6.644531 54.894531 5.339844 53.589844 3.730469 53.589844 C 2.121094 53.589844 0.816406 54.894531 0.816406 56.503906 C 0.816406 58.109375 2.121094 59.414062 3.730469 59.414062 C 3.734375 59.414062 3.742188 59.414062 3.746094 59.414062 C 4.738281 61.617188 6 63.699219 7.523438 65.621094 C 6.972656 66.304688 6.644531 67.171875 6.644531 68.117188 C 6.644531 70.320312 8.425781 72.101562 10.628906 72.101562 C 11.878906 72.101562 12.992188 71.527344 13.722656 70.628906 L 18.582031 73.433594 C 18.542969 73.597656 18.519531 73.765625 18.519531 73.941406 C 18.519531 75.152344 19.5 76.128906 20.710938 76.128906 C 21.917969 76.128906 22.898438 75.152344 22.898438 73.941406 C 22.898438 72.734375 21.917969 71.753906 20.710938 71.753906 C 20.128906 71.753906 19.601562 71.984375 19.207031 72.351562 L 14.347656 69.546875 C 14.511719 69.125 14.601562 68.671875 14.613281 68.199219 L 24.503906 66.835938 C 24.847656 67.589844 25.605469 68.117188 26.492188 68.117188 C 26.667969 68.117188 26.839844 68.09375 27.003906 68.054688 L 29.683594 72.679688 C 28.851562 73.355469 28.296875 74.363281 28.222656 75.5 C 26.722656 75.367188 25.257812 75.117188 23.835938 74.757812 C 23.722656 75.183594 23.527344 75.574219 23.265625 75.914062 C 24.917969 76.34375 26.613281 76.628906 28.339844 76.769531 C 28.78125 78.484375 30.339844 79.753906 32.195312 79.753906 C 34.195312 79.753906 35.847656 78.285156 36.136719 76.371094 C 38.660156 75.90625 41.105469 75.117188 43.421875 74.019531 " fill-opacity="1" fill-rule="nonzero"/></g></svg>