<!DOCTYPE svg PUBLIC "-//W3C//DTD SVG 1.1//EN" "http://www.w3.org/Graphics/SVG/1.1/DTD/svg11.dtd">
<svg xmlns="http://www.w3.org/2000/svg" viewBox="0 0 660 223">
<path fill="#fbfbfb" stroke="#fbfbfb" d="M421 25.588c0 1.423-2.721 13.461-6.047 26.75-3.326 13.289-5.864 24.873-5.639 25.741.225.868-.203 2.417-.952 3.441-.749 1.024-1.362 2.932-1.362 4.239 0 1.977-.361 2.261-2.152 1.693-2.865-.91-8.331-.749-13.848.408-8.989 1.883-16.966 3.656-24.625 5.473-1.169.277-3.844.979-5.944 1.558-2.1.58-3.938.935-4.085.788-.711-.71 1.003-4.582 1.808-4.084.536.331.653-.516.278-2.011-.406-1.615-.233-2.584.46-2.584.609 0 1.108-1.093 1.108-2.429 0-1.335.707-3.135 1.571-4 .865-.864 1.26-1.571.878-1.571s-.15-.655.515-1.456c.664-.801.876-1.994.469-2.652-.423-.685.048-1.771 1.105-2.544 1.015-.741 1.347-1.348.74-1.348-.799 0-.792-.828.028-3 .623-1.65 1.51-3 1.972-3 .462 0 .568-.441.235-.979-.333-.539-.024-2.001.686-3.25 1.246-2.191 1.436-2.812 1.686-5.521.063-.687.817-1.25 1.674-1.25.885 0 1.263-.478.875-1.107-.456-.738-.004-.891 1.357-.459 1.122.356 2.346.153 2.72-.452.39-.631 2.022-.862 3.834-.543 2.333.411 2.634.327 1.155-.322-2.462-1.081 4.182-2.695 7.511-1.824 1.093.285 2.207.163 2.476-.271.268-.435 2.508-1.094 4.977-1.464 2.469-.371 4.751-1.098 5.072-1.616.32-.518 2.34-.942 4.488-.942 2.931 0 4.183-.519 5.018-2.078.636-1.189 1.72-1.844 2.535-1.531.783.3 1.457.223 1.5-.172.042-.396.242-1.609.444-2.696.515-2.764-2.824-5.523-6.686-5.523-3.649 0-21.471 2.641-26.835 3.977-7.181 1.788-17.051 3.048-19.351 2.471-1.641-.412-2.565-.109-2.982.978-.332.866-1.407 1.574-2.388 1.574-2.601 0-22.42 7.712-24.077 9.369-2.741 2.742 1.662 12.636 5.621 12.627.922-.002 3.167-.912 4.987-2.022 1.821-1.11 3.693-1.781 4.16-1.493 1.248.772 4.112-.539 3.465-1.586-.304-.492.647-.895 2.113-.895 2.144 0 2.526.342 1.952 1.75-2.187 5.359-9.5 27.402-9.5 28.633 0 .798-.872 3.485-1.937 5.97-1.76 4.107-2.284 4.547-5.75 4.833-3.646.3-3.802.459-3.552 3.616.143 1.816 1.043 4.497 2 5.958 1.409 2.151 1.739 4.943 1.739 14.698 0 13.49.466 14.907 7.639 23.215 6.512 7.541 10.282 9.696 16.673 9.527 2.977-.078 5.994-.624 6.703-1.213.919-.762 1.395-.758 1.652.015.218.653 1.153.356 2.348-.746 1.092-1.007 2.885-1.852 3.985-1.878 2.982-.069 9.723-2.14 12-3.687 1.1-.748 4.148-1.946 6.774-2.662 3.946-1.076 4.671-1.626 4.183-3.166-.914-2.879.038-2.224 2.77 1.904 7.679 11.603 20.799 14.478 34.51 7.561 5.534-2.792 10.788-7.405 6.763-5.938-1.568.571-1.739.466-.792-.488.948-.956 1.543-.938 2.773.082 1.335 1.109 1.466 1.042.891-.458-.551-1.434-.287-1.634 1.429-1.089 1.785.566 2.041.318 1.69-1.635-.374-2.074-.196-2.004 1.793.698 9.795 13.31 27.822 17.038 37.537 7.762.727-.694 1.917-1.262 2.643-1.262.727 0 1.581-.675 1.898-1.5.316-.825 1.295-1.5 2.174-1.5 1.12 0 1.417-.573.991-1.916-.335-1.054-.129-2.212.457-2.574.586-.362.942-.119.791.541-.151.659.35 1.426 1.114 1.704.764.277 1.141.103.838-.388-.303-.491.068-2.011.825-3.38.758-1.368 1.393-2.063 1.413-1.546.019.518.7.068 1.513-1 1.487-1.951.027 4.472-2.567 11.292-2.373 6.243.519 12.129 5.364 10.913 1.92-.482 2.802-2.03 4.768-8.369 1.326-4.277 3.851-11.222 5.611-15.433 1.76-4.211 2.933-7.924 2.606-8.25-.326-.327-.161-.594.368-.594s1.781-1.986 2.782-4.413c2.171-5.264 1.961-5.196 16.931-5.489 6.513-.127 12.539-.498 13.392-.826 1.28-.491 1.442 0 .929 2.817-2.905 15.945-1.563 32.238 2.791 33.893 1.294.492 2.636 1.353 2.982 1.913.346.56 1.29.764 2.097.454 1.148-.44 1.474-2.668 1.494-10.206.031-11.655 1.643-29.212 2.787-30.356.456-.456 3.947-1.15 7.758-1.543 6.916-.712 6.921-.715 2.429-1.329-4.321-.59-4.356-.621-.864-.765 4.464-.184 8.963-2.372 8.019-3.9-.38-.614-4.058-1.426-8.173-1.804-4.115-.378-7.597-.785-7.736-.904-.14-.12 2.23-10.753 5.267-23.63 3.037-12.877 5.792-26.787 6.121-30.912l.6-7.5-4.202-4.75c-2.311-2.612-4.872-4.75-5.691-4.75-4.982 0-26.638 30.173-44.226 61.621l-6.22 11.122-4.587.628c-2.523.346-5.874.629-7.448.629-5.04 0-2.69 10.252 2.658 11.594 1.365.343 2.482 1.012 2.482 1.488 0 2.312-4.584 9.918-5.977 9.918-.869 0-4.861 1.573-8.873 3.495-15.921 7.63-31.379 12.58-33.345 10.678-1.443-1.396-.88-20.924.869-30.173.365-1.925.591-3.826.503-4.225-.088-.398.498-3.559 1.301-7.025.804-3.465 1.729-8.089 2.056-10.275.327-2.186 3.743-16.702 7.592-32.257l6.998-28.281-2.158-3.493c-2.127-3.44-6.473-6.444-9.324-6.444-1.036 0-1.583 1.518-1.893 5.25-.24 2.888-1.38 8.625-2.533 12.75s-2.279 8.625-2.502 10c-.224 1.375-.664 3.175-.979 4-.315.825-.808 2.625-1.095 4-.287 1.375-1.28 5.65-2.205 9.5-.925 3.85-1.742 7.9-1.816 9-.073 1.1-.486 2.55-.917 3.222-1.258 1.958-7.061 34.525-8.179 45.899l-.7 7.12-5.893 2.63c-3.241 1.446-6.154 2.629-6.474 2.629-.319 0-2.914 1.103-5.768 2.45-7.854 3.71-16.47 4.826-17.817 2.31-3.269-6.11 3.984-49.86 15.153-91.402 5.435-20.212 5.427-19.852.537-24.956-4.916-5.131-8.561-5.903-8.561-1.814M306 29.95c-1.375.427-5.65 2.288-9.5 4.135-3.85 1.847-7.45 3.221-8 3.053-.55-.167-.695.001-.321.374.373.374-4.127 4.533-10 9.243-5.874 4.71-10.83 8.945-11.014 9.411-.185.465-.817.549-1.405.186-.621-.384-.778-.191-.375.462.381.617-.562 2.487-2.096 4.156-4.164 4.529-5.289 5.895-5.289 6.423 0 .262-.525 1.744-1.166 3.292-.642 1.548-1.204 3.115-1.25 3.482-.046.366-.422 1.004-.834 1.416-3.941 3.942 4.341 26.042 10.491 27.994 4.687 1.487 12.368.579 28.884-3.417 4.194-1.015 10.944-1.961 15-2.103 4.056-.142 8.5-.325 9.875-.408 4.014-.239 2.986 1.727-5.244 10.034-9.723 9.815-10.32 10.317-12.273 10.317-.88 0-1.323.45-.983 1 .34.55.029 1.001-.691 1.001-.72.001-2.616 1.126-4.215 2.5-1.598 1.375-3.623 2.5-4.5 2.5-.876.001-2.944 1.17-4.594 2.599-3.772 3.266-13.803 8.4-16.412 8.4-1.084 0-2.252.456-2.597 1.014-1.233 1.996-8.478 4.986-12.081 4.986h-3.67l.532 4.717c.292 2.595 1.026 4.882 1.63 5.084.604.201 1.098.841 1.098 1.422 0 2.653 3.311 3.579 7.452 2.085 2.226-.803 4.767-1.612 5.645-1.797 4.567-.964 35.038-17.946 39.125-21.804.703-.664 3.285-2.557 5.738-4.207 10.521-7.077 19.24-18.015 19.24-24.135 0-5.631-7.686-17.365-11.374-17.365-1.004 0-1.826-.45-1.826-1s-2.277-1-5.059-1c-3.118 0-4.822.384-4.441 1 .34.55-.084 1-.941 1S307 85.498 307 84.883c0-.705-1.011-.882-2.75-.479-1.512.35-5.164.83-8.114 1.065-2.951.235-6.101 1.051-7 1.813-2.261 1.916-16.771 4.973-21.636 4.559-3.525-.301-4.038-.669-4.318-3.103-.649-5.652 9.321-21.835 17.546-28.477 17.457-14.097 29.81-19.724 39.297-17.9 5.517 1.061 6.732 2.164 5.165 4.692-2.262 3.647 1.013 7.623 4.296 5.217 5.337-3.913 3.336-12.584-4.547-19.706-4.128-3.73-11.904-4.803-18.939-2.614m321.006 3.712c-9.001 2.352-9.64 2.395-12.302.822-3.471-2.05-5.704-1.316-5.704 1.876 0 2.766-1.197 3.217-12.205 4.599-10.212 1.283-12.375 4.821-6.683 10.931 2.212 2.374 5.389 2.514 14.751.652 2.804-.558 2.873-1.854-1.98 37.458-1.664 13.475-3.331 29-3.704 34.5l-.679 10-6.369.702c-7.362.812-7.565.933-6.79 4.022 1.254 4.995 6.433 8.776 12.028 8.78 3.362.002 6.26.692 8.405 2 4.697 2.863 6.048 2.589 5.873-1.191-.142-3.079.039-3.227 5.353-4.397 3.025-.666 6.85-1.701 8.5-2.301 1.65-.599 5.56-1.775 8.689-2.612 9.069-2.428 11.673-7.378 5.447-10.353-2.79-1.333-7.435-.761-26.964 3.322-2.187.457-1.996-3.109 1.842-34.472 1.312-10.725 2.651-22.425 2.974-26 .324-3.575 1.021-10.088 1.55-14.474.529-4.385.962-8.349.962-8.809 0-.459.403-.586.896-.281.493.304 2.18-.116 3.75-.935 1.57-.819 3.417-1.491 4.104-1.495.688-.003 1.25-.414 1.25-.912 0-.499.857-.683 1.905-.409 1.048.275 3.411-.165 5.25-.975 1.84-.811 5.932-2.009 9.095-2.664 6.475-1.34 7.24-2.881 3.677-7.411-2.718-3.456-9.618-3.448-22.921.027M280 43.059c0 .582.45.781 1 .441s1-.816 1-1.059-.45-.441-1-.441-1 .477-1 1.059m-129.382 6.75c-1.268 2.052.574 3.802 6.468 6.143 21.634 8.593 40.636 29.024 48.406 52.048 1.674 4.961 2.645 6.5 4.101 6.5 6.421 0-5.515-26.419-18.231-40.352-12.37-13.553-37.962-28.841-40.744-24.339m416.373 2.336c-.82 1.211-3.066 3.974-4.991 6.14-1.925 2.167-5.376 6.926-7.67 10.577-6.374 10.147-18.932 31.251-20.711 34.805l-1.585 3.168 5.733-.384c3.153-.211 8.79-.399 12.527-.417 4.864-.024 6.735-.389 6.587-1.284-.114-.687.079-2.375.428-3.75s.829-3.937 1.067-5.694c.237-1.756.919-4.681 1.515-6.5.596-1.818 1.981-7.356 3.078-12.306 1.098-4.95 2.925-12.535 4.061-16.856 2.264-8.609 2.252-10.881-.039-7.499M145.7 76.341c-.792 2.063.279 3.052 7.3 6.737 9.679 5.08 19.658 15.485 24.888 25.951 5.146 10.297 5.647 10.864 7.747 8.765 3.017-3.017-5.012-17.415-15.521-27.833-11.034-10.938-22.903-17.559-24.414-13.62m-77.2 2.66c-10.199 3.178-19.892 12.72-23.312 22.951-1.744 5.216-2.024 5.503-6.479 6.64C22.58 112.706 12.501 125.938 12.501 143c0 17.058 9.341 29.408 26.083 34.487 5.814 1.764 80.613 2.206 90.803.537 33.603-5.503 47.206-46.562 23.335-70.433-10.463-10.462-26.816-15.292-39.479-11.661-1.783.512-3.243.548-3.243.081 0-2.257-10.637-12.175-15.729-14.667-6.124-2.996-19.71-4.231-25.771-2.343m2.5 4.934c-11.548 3.525-19.871 12.842-21.855 24.463-.681 3.988-.812 4.101-5.521 4.775-25.069 3.586-35.17 33.736-17.165 51.236C35.23 172.932 35.697 173 85.671 173c47.204 0 48.203-.097 56.829-5.518 34.769-21.848 11.294-76.255-28.502-66.06-3.559.912-6.607 1.251-6.773.754C102.944 89.332 84.214 79.901 71 83.935M398 96.73c-1.925.927-3.775 2.08-4.112 2.563-.336.483-.906.789-1.266.681-2.043-.612-9.58 1.285-8.977 2.26.438.71.098.882-.949.48-.898-.345-1.881-.224-2.185.268-.304.492-1.434.725-2.511.518-1.077-.207-2.219.045-2.538.561-.319.517-1.453.939-2.521.939-1.068 0-1.828.563-1.691 1.25.155.773-1.085 1.349-3.25 1.511-6.58.49-7 .573-7 1.391 0 .451-2.06 1.338-4.577 1.972-4.644 1.169-7.205 4.395-5.995 7.548.28.731.028 1.328-.56 1.328-.654 0-.93 1.749-.711 4.5.196 2.475.129 4.502-.15 4.503-1.296.009-.972 10.663.381 12.512 2.468 3.376 12.852 2.599 25.612-1.914 5.775-2.043 11.706-3.901 13.18-4.13 1.475-.229 4.175-1.326 6-2.44 3.728-2.273 5.287-2.596 4.225-.876-.414.668-.278.884.323.513.57-.352 1.341-3.684 1.714-7.404.737-7.353 3.29-24.35 4.205-27.995.707-2.815-1.54-2.997-6.647-.539m-111.702 88.02c-2.402 5.629-3.058 19.25-.926 19.25 1.302 0 1.628-1.075 1.628-5.375 0-6.717.969-11.762 2.122-11.05.483.299.878 2.287.878 4.419 0 4.701 1.615 9.301 3.093 8.808.594-.198 1.889-2.655 2.877-5.461 3.404-9.666 4.027-9.59 3.354.409-.56 8.301-.448 9.25 1.085 9.25.94 0 1.522-.338 1.294-.75-.229-.412-.034-4.35.434-8.75 1.014-9.556.525-12.5-2.08-12.5-1.313 0-2.676 1.625-4.391 5.234l-2.488 5.233-.653-3.983c-1.488-9.085-3.665-10.739-6.227-4.734M358 182.175c-7.46 2.12-12.87 9.059-8.249 10.58.734.242 1.031-.159.72-.969-.291-.76.652-2.485 2.098-3.834l2.627-2.452-.785 7c-1.119 9.982-1.07 11.75.339 12.236.84.289 1.25-.691 1.25-2.992 0-4.96 3.96-6.775 6.265-2.873 1.942 3.288 5.546 6.651 6.31 5.888.309-.309-1.01-2.621-2.93-5.137l-3.492-4.574 2.924-3.13c4.066-4.353 3.833-7.35-.761-9.768-1.202-.633-2.327-1.109-2.5-1.06L358 182.175m34.294.689c-4.514.943-8.496 2.005-8.85 2.359-1.348 1.348.749 2.688 3.382 2.162l2.749-.55-.401 7.093c-.266 4.702.016 7.596.835 8.583 2.091 2.52 2.505 1.709 2.138-4.193-.619-9.96.9-12.927 6.987-13.647 5.785-.686 6.98-1.355 4.837-2.71-1.838-1.163-1.769-1.168-11.677.903m113.21 7.481c-1.95 9.921-1.759 11.913 1.299 13.55 1.514.81 2.629.484 5.307-1.55 3.477-2.641 1.855-3.059-3.36-.867-2.239.941-2.323-2.477-.27-10.978 1.823-7.55 1.862-9.5.191-9.5-.88 0-1.951 3.161-3.167 9.345m-248.209-6.124c-4.05 2.881-5.705 5.913-4.793 8.785.661 2.082 1.113 2.197 6.249 1.593 6.692-.786 6.147.658-1.687 4.473-5.044 2.456-6.638 4.928-3.177 4.928 2.681 0 11.527-6.15 11.936-8.298.807-4.241-2.408-5.218-10.073-3.06-2.672.752-2.095-1.143 1.418-4.656 2.568-2.568 3.719-3.059 6.072-2.588 2.383.477 2.844.269 2.573-1.159-.495-2.607-4.864-2.617-8.518-.018m188 0c-4.05 2.881-5.705 5.913-4.793 8.785.661 2.082 1.113 2.197 6.249 1.593 6.692-.786 6.147.658-1.687 4.473-5.044 2.456-6.638 4.928-3.177 4.928 2.681 0 11.527-6.15 11.936-8.298.807-4.241-2.408-5.218-10.073-3.06-2.672.752-2.095-1.143 1.418-4.656 2.568-2.568 3.719-3.059 6.072-2.588 2.383.477 2.844.269 2.573-1.159-.495-2.607-4.864-2.617-8.518-.018m91.431-.747c-6.738 1.37-9.442 3.264-5.959 4.175 2.614.684 2.553.453 1.059 4.036-3.623 8.686 1.074 15.115 8.24 11.28 4.852-2.597.572-3.705-5.396-1.397-1.547.598-1.778.268-1.5-2.137.281-2.424 1.031-3.06 5.08-4.313 5.799-1.794 6.271-3.585.75-2.845-4.255.571-4.53.251-3.072-3.583.653-1.718 1.975-2.637 4.465-3.104 1.945-.365 3.775-1.049 4.066-1.52.965-1.562-1.887-1.78-7.733-.592m26.569.747c-4.05 2.881-5.705 5.913-4.793 8.785.661 2.082 1.113 2.197 6.249 1.593 6.692-.786 6.147.658-1.687 4.473-5.044 2.456-6.638 4.928-3.177 4.928 2.681 0 11.527-6.15 11.936-8.298.807-4.241-2.408-5.218-10.073-3.06-2.751.775-2.052-1.557 1.447-4.826 2.528-2.362 3.799-2.867 6.072-2.412 2.354.471 2.814.26 2.544-1.165-.495-2.607-4.864-2.617-8.518-.018m-235.254 2.88c-1.634 2.256-3.226 4.908-3.539 5.893-.313.984-1.527 2.041-2.7 2.347-1.644.431-1.878.862-1.024 1.892.708.852.773 1.864.18 2.801-1.143 1.807-1.244 4.966-.159 4.966.44 0 1.369-1.575 2.065-3.5 1.73-4.786 6.136-5.145 6.136-.5 0 1.65.45 3 1 3s1-1.328 1-2.95c0-1.751.712-3.37 1.75-3.982 1.279-.754 1.427-1.246.55-1.828-.903-.599-.936-1.835-.134-4.995 2.007-7.906-.542-9.469-5.125-3.144m153.282-1.78c-1.003 1.277-2.697 3.947-3.765 5.934-1.067 1.986-2.829 3.844-3.914 4.128-1.516.396-1.716.825-.866 1.85.708.852.773 1.864.18 2.801-1.2 1.898-1.222 4.966-.036 4.966.508 0 1.443-1.575 2.078-3.5 1.582-4.793 6-5.161 6-.5 0 1.65.45 3 1 3s1-1.093 1-2.429c0-1.335.748-3.176 1.662-4.09 1.142-1.142 1.314-1.878.55-2.35-.806-.498-.819-1.843-.046-4.886 1.721-6.781-.326-9.403-3.843-4.924m-122.772-.404c-1.284 2.078-1.88 10.404-.692 9.67.645-.399.935-1.112.642-1.585-.292-.472.443-1.004 1.634-1.181 2.558-.379 6.403-5.142 5.427-6.721-.822-1.329-6.215-1.47-7.011-.183m-30.417 6.333c-1.225 1.929-1.636 3.397-1.011 3.613 1.436.494 2.495-.84 3.267-4.113.849-3.601.264-3.471-2.256.5m152.024.207c-1.985 3.364-1.997 3.543-.238 3.543 1.322 0 1.995-.931 2.348-3.25.669-4.396.338-4.442-2.11-.293" fill-rule="evenodd"/>
<path fill="#197ac0" stroke="#197ac0" d="M421.94 24.25c-.119 2.507-1.77 10.395-3.399 16.25-.919 3.3-2.052 7.8-2.518 10-.466 2.2-2.038 8.725-3.492 14.5-1.455 5.775-2.457 11.51-2.228 12.744.229 1.234-.195 2.751-.943 3.372S408 83.299 408 84.587c0 1.319-.874 2.81-2 3.413-1.222.654-2 .693-2 .101 0-2.093-28.44 2.359-31.548 4.938-.625.519-1.366.714-1.647.433-.281-.281-3.555.195-7.276 1.057-3.72.863-7.04 1.293-7.378.956-.337-.338 2.017-8.122 5.233-17.299 8.144-23.246 8.273-23.572 9.517-23.986.611-.204.93-.67.708-1.035-.221-.366.75-1.529 2.159-2.586 1.409-1.056 2.236-1.394 1.838-.75-.46.744-.003 1.171 1.252 1.171 1.086 0 2.126-.452 2.31-1.005.184-.552 3.001-1.209 6.259-1.459 5.855-.449 10.184-1.144 14.073-2.259l2-.573-2-.745c-1.905-.709-1.912-.78-.149-1.497 1.018-.415 2.143-.35 2.5.142.979 1.351 3.149 1.549 3.149.288 0-.683.96-.868 2.5-.481 1.926.483 2.5.24 2.5-1.059 0-.927.284-1.401.631-1.054.348.347 1.575.127 2.728-.49 2.062-1.104 2.064-1.135.119-1.895-1.691-.66-1.724-.783-.228-.843 2.443-.098 2.204-2.07-.25-2.07-1.1 0-2-.512-2-1.138 0-1.936-27.22 1.151-34 3.857-.825.329-1.906.504-2.401.389-.496-.115-3.161.276-5.924.868-3.435.737-5.346.753-6.048.051-1.439-1.439-2.627-1.278-2.627.354 0 .813-1.95 1.872-4.737 2.574-2.605.656-5.192 1.548-5.75 1.981-.557.434-2.348 1.108-3.981 1.5-4.34 1.04-13.532 5.556-13.532 6.648 0 1.997 4.22 9.786 5.585 10.31.792.304 3.429-.558 5.86-1.915 2.519-1.407 5.202-2.215 6.238-1.879 1.273.412 1.435.314.542-.33-.919-.663-.316-1.213 2.164-1.974l3.438-1.056-.314 3.13c-.173 1.722-1.881 7.425-3.796 12.674-1.915 5.248-4.06 12.131-4.768 15.295-.708 3.164-1.661 5.983-2.118 6.266-.457.282-.831 1.398-.831 2.479 0 2.096-3.452 3.916-7.426 3.916-2.935 0-2.465 3.962 1.027 8.649 2.15 2.886 2.279 3.704 1.543 9.821-1.602 13.303.37 20.331 8.14 29.013 6.849 7.652 18.232 11.215 21.86 6.843.832-1.002 1.383-1.091 1.872-.299.48.776 1.209.605 2.369-.555.922-.922 3.755-1.87 6.295-2.108 4.263-.398 9.51-2.262 6.57-2.334-1.794-.043-1.55-2.03.25-2.03.825 0 1.5.436 1.5.969 0 .532.713.695 1.584.36 1.275-.489 1.324-.772.25-1.453-.907-.575-.415-.85 1.538-.861 2.369-.012 2.666-.264 1.693-1.436-.963-1.161-.821-1.328.776-.91 1.075.281 3.204-.308 4.731-1.308 2.231-1.462 2.865-1.55 3.232-.448 1.913 5.739 14.522 14.087 21.278 14.087 4.281 0 14.075-2.937 13.405-4.021-.25-.404.909-1.008 2.576-1.342 2.21-.442 3.315-1.422 4.081-3.621.579-1.659 1.484-3.016 2.013-3.016.528 0 .683-.45.343-1s-.141-1.056.441-1.125c2.568-.303 2.933-.416 3.642-1.125 1.233-1.233 2.417-.853 2.417.776C452 146.11 466.576 156 473.33 156c3.696 0 12.651-2.44 13.58-3.7.325-.44 1.899-1.475 3.5-2.3 1.6-.825 3.038-2.392 3.196-3.482.157-1.09.762-2.141 1.346-2.335.583-.195.806-.765.495-1.268-.535-.867.049-1.084 3.553-1.321.825-.056 1.503-.927 1.507-1.936.004-1.131 1.295-2.376 3.367-3.247 3.1-1.304 3.315-1.277 2.784.338-5.91 17.986-6.232 20.787-2.646 23.026 3.426 2.14 5.554.024 7.541-7.497.985-3.728 2.856-9.236 4.158-12.24 1.301-3.004 2.486-6.154 2.633-7 .147-.846 1.048-3.014 2.002-4.817.955-1.804 1.423-3.786 1.04-4.405-.424-.686-.245-.847.459-.411.685.422 1.155.078 1.155-.846 0-2.742.117-3.045 1.467-3.801 2.819-1.577 30.534-2.18 30.517-.663-.009.773-.456 6.715-.993 13.206-1.164 14.039-.34 19.023 3.688 22.319 4.726 3.867 4.963 3.393 5.688-11.37.821-16.7 2.127-26.319 3.707-27.296.65-.402.873-1.231.495-1.842-.475-.769 1.181-1.112 5.372-1.112 3.373 0 6.059-.443 6.059-1 0-.55.873-1 1.941-1s2.184-.393 2.48-.872c.63-1.019-5.082-2.101-11.171-2.117-5.46-.014-5.484.725.822-25.511 7.83-32.58 7.707-40.483-.713-46.001-2.059-1.348-2.497-1.254-5.364 1.158-7.869 6.622-28.161 36.709-42.889 63.593L519.86 108h-5.848c-9.567 0-10.871 1.439-7.023 7.75 1.425 2.336 2.719 3.25 4.603 3.25 2.847 0 2.857-.24-.312 7.564-1.335 3.287-2.389 4.295-5.508 5.269-2.122.662-6.201 2.344-9.065 3.739-13.433 6.539-25.871 10.762-30.237 10.266l-2.97-.338.099-11.5c.054-6.325.361-13.075.681-15a2580.68 2580.68 0 0 0 1.659-10.175c1.881-11.672 4.785-24.67 11.006-49.264C480.275 46.395 483 34.764 483 33.716c0-2.697-3.641-7.479-7.029-9.231-3.755-1.942-3.971-1.897-3.971.817 0 1.266-1.368 7.806-3.039 14.532-1.672 6.726-2.77 12.665-2.441 13.198.329.532.185.968-.32.968-.992 0-6.496 21.998-6.05 24.179.148.727-.318 2.384-1.035 3.683-.718 1.299-1.1 3.437-.849 4.75.251 1.313.125 2.388-.28 2.388s-.802 1.125-.882 2.5c-.311 5.333-.429 6.016-1.128 6.5-1.196.829-3.769 18-2.697 18 .531 0 .443.63-.195 1.399-.639.77-1.397 4.458-1.684 8.195-.639 8.304-.369 7.869-6.707 10.808-16.182 7.504-19.134 8.524-26.943 9.312l-4.75.479-.118-7.346c-.066-4.041-.052-7.725.03-8.188.082-.462.342-3.668.579-7.123.624-9.106 5.599-33.2 13.119-63.536 6.536-26.367 6.56-26.516 4.809-29.774-2.408-4.48-9.341-8.852-9.479-5.976m-113.073 5.768c-12.436 2.101-37.502 20.013-46.456 33.196-1.601 2.357-3.248 4.436-3.661 4.619-.413.184-.75.987-.75 1.786 0 .798-.734 2.571-1.63 3.939-3.138 4.79-1.46 16.467 3.345 23.27l4.006 5.672 6.389.644c5.244.528 8.453.114 17.89-2.308 12.687-3.256 33.141-5.035 34.403-2.993 1.856 3.003-24.942 26.679-31.243 27.604-.853.125-1.726.751-1.939 1.39-.213.64-.988 1.163-1.721 1.163-.733 0-1.483.397-1.667.882-.432 1.145-27.605 14.219-29.153 14.027-4.204-.521-4.783.023-4.084 3.841.377 2.063 1.297 4.11 2.045 4.55.747.44 1.359 1.422 1.359 2.182 0 1.847 3.481 2.866 5.712 1.672.984-.526 2.238-1.058 2.788-1.183 4.223-.954 9.5-3.158 9.5-3.967 0-.415 1.238-1.023 2.75-1.351 3.298-.715 19.784-10.037 27.438-15.514 2.028-1.451 6.303-4.506 9.5-6.789 10.195-7.279 18.301-17.198 18.308-22.404.006-3.738-4.668-12.492-8.302-15.55-4.418-3.718-19.844-3.102-40.187 1.602-17.446 4.035-21.134 3.639-20.791-2.23.268-4.584 3.829-11.748 9.247-18.603 2.268-2.868 3.899-5.579 3.624-6.024-.274-.444.052-.808.725-.808.673 0 5.041-2.929 9.706-6.509 11.733-9.005 17.25-12 24.677-13.396 8.51-1.599 17.064.275 15.749 3.451-2.233 5.395-.495 8.246 3.374 5.536 3.622-2.537 2.95-8.017-1.798-14.647-5.346-7.465-8.448-8.559-19.153-6.75M634 32.57c-3.575.734-8.846 1.962-11.713 2.727-4.77 1.273-5.451 1.235-8-.446-3.649-2.406-4.287-2.327-4.287.527 0 3.622-2.076 4.661-12.026 6.022-11.462 1.568-12.902 3.438-7.654 9.946 2.189 2.715 6.542 2.745 15.688.108 1.3-.375 1.415.838.834 8.805-.68 9.329-4.528 40.966-5.321 43.741-.236.825-.675 5.325-.976 10-1.464 22.707-1.106 22-11.111 22-4.422 0-5.006 1.338-2.415 5.531 2.706 4.379 4.722 5.466 10.165 5.481 2.747.008 5.898.916 8.668 2.5 5.449 3.115 5.339 3.132 4.962-.739-.3-3.079-.109-3.273 4.186-4.25 2.475-.563 4.981-1.337 5.568-1.72.588-.383 4.269-1.424 8.181-2.314 3.912-.89 7.649-2.264 8.305-3.053.655-.79 1.605-1.436 2.111-1.436 1.71 0 3.535-2.431 3.093-4.12-.737-2.82-7.689-3.158-18.632-.906-13.967 2.874-13.168 3.136-12.894-4.224.245-6.566 1.439-17.691 3.11-28.955.547-3.688.753-7.627.458-8.755-.295-1.128.017-2.717.694-3.532.701-.845.96-2.557.602-3.983-.346-1.375-.194-3.294.337-4.263.531-.969 1.497-7.751 2.147-15.071 1.195-13.474 2.339-16.735 5.449-15.542.809.311 1.471.138 1.471-.384 0-1.228 5.464-2.832 15.651-4.593 9.393-1.623 11.599-3.03 10.058-6.412-.567-1.243-1.633-2.26-2.37-2.26-.736 0-1.339-.45-1.339-1 0-1.307-4.918-1.092-13 .57m-226.434 7.328c-1.339.524-1.567.983-.742 1.493.655.405 1.895.033 2.755-.827 1.677-1.678 1.077-1.876-2.013-.666M393 45c-1.169.755-.893.973 1.25.985 1.512.008 2.75-.435 2.75-.985 0-1.264-2.043-1.264-4 0m-241.333 4.667c-1.745 1.745-.12 3.34 6.081 5.97 22.921 9.724 40.907 29.354 48.711 53.167 1.282 3.914 2.171 5.215 3.389 4.964 2.098-.433 1.785-2.199-2.168-12.241-8.153-20.71-24.553-38.115-45.341-48.118-9.976-4.801-9.708-4.707-10.672-3.742m411.312 6.583c-2.926 3.438-5.948 6.772-6.716 7.409-.768.637-1.363 1.537-1.321 2 .041.463-.492 1.548-1.184 2.412-.692.864-1.407 2.212-1.59 2.996-.496 2.129-2.235 3.933-3.79 3.933-1.943 0-1.804-.431 2.122-6.567 4.738-7.406 4.461-8.388-.332-1.179-2.104 3.165-4.2 5.415-4.657 5-.458-.415-.508-.191-.112.496.458.797.064 1.279-1.09 1.329-1.132.049-1.322.274-.509.6 1.024.41.954 1.048-.33 3.008-.897 1.367-1.402 2.714-1.124 2.993.279.278 1.253-.938 2.165-2.702 2.278-4.404 4.067-2.488 1.957 2.095-2.545 5.529-6.231 11.28-8.107 12.653-.959.7-1.426 1.274-1.038 1.274.388 0-.651 2.687-2.309 5.971-1.658 3.285-3.014 6.21-3.014 6.5 0 .818 22.36.594 23.574-.236 1.14-.78 2.051-4.021 5.404-19.235 1.152-5.225 2.504-10.85 3.004-12.5 2.724-8.978 5.74-24.5 4.761-24.5-.244 0-2.837 2.813-5.764 6.25m-6.423 1.306c-.944 1.439-1.491 2.843-1.216 3.118.275.275 1.272-.679 2.216-2.118.943-1.44 1.49-2.843 1.215-3.118-.275-.275-1.272.678-2.215 2.118M147.25 75.707c-2.425.891-1.202 2.918 3 4.973 12.33 6.031 23.068 17.049 29.304 30.07 3.115 6.502 6.446 9.588 6.446 5.972 0-2.387-6.705-15.198-10.762-20.563-7.034-9.301-24.199-21.844-27.988-20.452M69.5 79.334c-12.54 4.169-21.467 13.07-24.446 24.376-.999 3.79-1.481 4.276-4.832 4.871-32.083 5.697-37.933 51.109-8.453 65.627l6.684 3.292 44.883.289c54.547.352 56.825-.045 68.749-11.969 28.013-28.013 2.681-77.128-36.003-69.802-5.482 1.038-5.618 1.007-7.582-1.731-9.106-12.691-26.149-19.226-39-14.953m468.878 2.864c-.437.707-.228.827.575.331.945-.584 1.078-.184.53 1.596-.402 1.306-.548 2.15-.324 1.875 2.729-3.351 2.866-3.776 1.399-4.34-.822-.315-1.803-.073-2.18.538m-464.458.909c-12.526 1.856-23.026 12.262-25.33 25.105-.6 3.341-1.037 3.772-4.378 4.314-11.773 1.91-22.327 10.284-25.68 20.376-5.01 15.087 2.398 31.553 17.292 38.437 6.404 2.959 85.66 3.934 96.39 1.185 33.3-8.531 37.911-53.485 7.085-69.081-6.982-3.533-20.107-4.573-27.079-2.146l-4.279 1.489-1.579-3.143c-5.793-11.53-19.404-18.468-32.442-16.536M354.638 87.5c.317.825.753 1.5.969 1.5.216 0 .393-.675.393-1.5s-.436-1.5-.969-1.5c-.532 0-.709.675-.393 1.5m180.827 3.75-1.585 3.25 2.038-2.5c1.962-2.407 2.602-4 1.608-4-.261 0-1.188 1.463-2.061 3.25m-136.386 2.64c-.107 1.878-3.108 4.039-5.662 4.078-1.146.018-2.387.335-2.758.706-.37.371-1.683.778-2.916.905-1.234.127-4.943 1.206-8.243 2.399-3.3 1.192-7.075 2.38-8.389 2.64-1.315.259-3.957 1.127-5.873 1.927-1.915.8-4.295 1.455-5.289 1.455-.993 0-2.513.707-3.378 1.571-1.027 1.028-1.571 1.154-1.571.364 0-.664-1.071-.134-2.38 1.179-4.768 4.779-7.118 28.535-3.12 31.537 1.978 1.486 11.283 1.479 17.422-.014 3.334-.81 15.363-4.78 16.533-5.456.525-.304 2.173-.686 3.662-.849 1.489-.163 4.307-1.24 6.262-2.393 1.956-1.154 4.07-1.779 4.7-1.39 1.845 1.14 2.889-1.641 2.906-7.74.008-3.13.391-5.924.851-6.208.46-.284.896-2.079.967-3.989.218-5.795 2.08-15.895 3.122-16.937 1.916-1.916-.655-4.728-3.377-3.693-1.687.641-2.562.556-2.902-.282-.332-.817-.513-.756-.567.19M390.5 96c-.34.55.11 1 1 1s1.34-.45 1-1c-.34-.55-.79-1-1-1-.21 0-.66.45-1 1M532 97c-.589 1.1-.845 2-.57 2s.981-.9 1.57-2c.589-1.1.845-2 .57-2s-.981.9-1.57 2m-237 0c0 .55.423 1 .941 1s1.219-.45 1.559-1c.34-.55-.084-1-.941-1S295 96.45 295 97m233.583 5.643c-.952 2.483.098 2.822 1.371.443.614-1.148.699-2.086.188-2.086-.51 0-1.212.739-1.559 1.643m-10.421 21.9c-1.675 3.677-1.355 4.462.456 1.119.846-1.562 1.351-3.026 1.123-3.255-.229-.228-.939.733-1.579 2.136m-121.557 15.596-2.895 2.858 3.147-1.097c3.491-1.217 4.818-2.672 3.506-3.847-.475-.424-2.166.514-3.758 2.086m44.854 5.928c-.363.586-.445 1.281-.183 1.543s.743-.218 1.069-1.067c.676-1.762.1-2.072-.886-.476m50.208-.4c-.932.932-.832 2.333.166 2.333.459 0 .834-.675.834-1.5 0-1.699-.073-1.76-1-.833M488 147c-1.282.828-1.246.972.25.985.962.008 1.75-.435 1.75-.985 0-1.22-.113-1.22-2 0m-122 7c0 .55.477 1 1.059 1s.781-.45.441-1-.816-1-1.059-1-.441.45-.441 1m139.94 36.537c-2.387 10.329-2.077 12.686 1.743 13.26 1.088.164 3.067-.661 4.398-1.833 2.058-1.813 2.12-2.025.419-1.419-6.354 2.263-6.777 2.076-6.028-2.657.382-2.413 1.316-6.856 2.077-9.872.785-3.11 1.007-5.86.513-6.354-.493-.493-1.845 3.348-3.122 8.875m-247.44-6.695c-4.322 2.642-5.688 4.657-5.322 7.848.315 2.749.442 2.803 5.822 2.469l5.5-.341-2.305 2.464c-1.268 1.355-4.095 3.271-6.283 4.258-2.403 1.083-3.616 2.156-3.064 2.708 1.162 1.162 7.861-2.206 10.93-5.495 3.796-4.069 2.093-6.131-4.431-5.364-6.621.778-7.101-.797-1.619-5.316 3.781-3.117 7.272-4.032 7.272-1.906 0 .641.289.877.643.524.821-.821-1.527-3.692-3.015-3.687-.621.002-2.478.829-4.128 1.838m28.655-.092c-1.302 2.488-3.155 11.733-3.155 15.74 0 6.236 1.708 4.538 2.282-2.269.313-3.697 1.134-8.071 1.826-9.721 1.219-2.908 1.295-2.754 2.449 5 .655 4.4 1.248 8.168 1.317 8.372.338 1 3.128-2.328 3.139-3.744.007-.896 1.136-3.878 2.509-6.628l2.497-5-.539 9.172c-.31 5.261-.141 9.42.397 9.752 1.089.673 2.675-17.544 1.739-19.981-1.071-2.793-3.013-1.082-6.342 5.591l-3.227 6.466-.023-4.685c-.04-7.911-2.67-12.267-4.869-8.065m68.345-.338c-4.467 1.985-8.176 6.312-6.687 7.801.916.916 1.187.804 1.187-.49 0-1.554 4.613-5.474 5.423-4.608.199.212-.014 2.635-.471 5.385-.458 2.75-.824 6.8-.813 9 .02 4.129.246 3.991 1.303-.791.339-1.535 1.022-2.54 1.518-2.234.496.307 1.184.1 1.53-.459 1.091-1.765 2.16-1.129 5.01 2.984 1.525 2.2 3.472 4 4.327 4 1.397 0 1.399-.127.019-1.25-.845-.687-2.543-2.723-3.775-4.522l-2.239-3.273 3.084-3.512c3.562-4.057 3.604-4.256 1.527-7.22-1.803-2.575-6.235-2.904-10.943-.811m40-.946c-.55.17-3.587.881-6.75 1.581-6.196 1.371-8.085 3.594-2.25 2.647l3.5-.568v8.378c0 4.608.45 8.656 1 8.996.635.392 1-2.296 1-7.359 0-10.517.236-10.971 6.121-11.751 5.958-.791 7.501-2.421 2.188-2.311-2.095.043-4.259.218-4.809.387m50.804 1.49c-8.477 5.169-7.863 11.583.996 10.412 6.348-.839 5.504.99-2.59 5.613-2.883 1.646-4.429 3.075-3.769 3.483 1.273.786 8.668-3.269 11.334-6.216 3.262-3.604 1.252-5.585-4.928-4.859-6.551.77-7.051-.686-1.812-5.285 3.54-3.109 7.465-4.127 7.465-1.937 0 .641.289.877.643.524.821-.821-1.527-3.692-3.015-3.687-.621.002-2.566.88-4.324 1.952m118 0c-8.474 5.167-7.862 11.572.996 10.428 5.173-.669 5.191-.662 3.394 1.363-.994 1.119-3.806 3.096-6.25 4.392-4.409 2.339-5.647 3.861-3.14 3.861 1.616 0 9.743-5.106 11.463-7.202 2.668-3.251.404-5.093-5.42-4.409-6.551.77-7.051-.686-1.812-5.285 3.54-3.109 7.465-4.127 7.465-1.937 0 .641.289.877.643.524.821-.821-1.527-3.692-3.015-3.687-.621.002-2.566.88-4.324 1.952m-237.23 5.544c-2.258 3.575-4.596 6.5-5.196 6.5-.601 0-.82.708-.489 1.572.332.865.126 2.465-.457 3.556-.584 1.091-.889 2.501-.678 3.134.211.633 1.253-.629 2.315-2.805 2.53-5.184 6.431-6.146 6.431-1.586 0 1.656.45 3.289 1 3.629.595.368 1-.823 1-2.941 0-1.957.408-3.559.906-3.559.499 0 .698-.797.444-1.77-.255-.974-.062-3.562.429-5.75 1.906-8.505-.326-8.497-5.705.02m32.677-5.808c-1.737.451-2.082 1.362-3.236 8.543-.498 3.098-.337 3.634.943 3.143.848-.326 1.542-1.294 1.542-2.152 0-.857.306-1.253.681-.879 1.023 1.024 6.319-4.452 6.319-6.534 0-.997-.413-1.813-.918-1.813-.505 0-1.518-.172-2.25-.381-.733-.21-2.119-.177-3.081.073m119.351 5.764c-2.273 3.599-4.528 6.544-5.012 6.544-.483 0-.837 1.012-.786 2.25.051 1.238-.252 3.262-.673 4.5-.443 1.302-.362 2.25.193 2.25.528 0 1.269-1.235 1.648-2.744 1.475-5.877 6.528-7.669 6.528-2.315 0 1.618.45 3.219 1 3.559.595.368 1-.823 1-2.941 0-1.957.337-3.562.75-3.566.413-.004.88-1.916 1.04-4.25.159-2.334.384-5.322.5-6.642.396-4.517-2.056-3.188-6.188 3.355m55.972-5.126c-2.434.644-4.625 1.78-4.868 2.525-.327 1 .152 1.166 1.827.635 1.937-.615 2.158-.448 1.505 1.145a42.53 42.53 0 0 0-1.268 3.615c-.277.963-.89 1.75-1.362 1.75-.982 0-.097 5.582 1.325 8.357 1.136 2.217 6.29 1.616 8.754-1.021 1.367-1.463 1.32-1.551-.487-.908-3.926 1.398-7.267 1.759-7.83.846-.781-1.263.344-5.274 1.479-5.274 1.74 0 8.156-3.028 7.598-3.586-.308-.308-2.177-.113-4.153.432-1.977.546-3.594.871-3.594.723 0-4.134 3.439-8.531 6.691-8.554 1.205-.008 2.469-.465 2.809-1.015.8-1.295-2.81-1.154-8.426.33m-206.502 5.556c-3 4.753-3.239 6.389-.864 5.932 1.573-.303 4.888-8.555 3.852-9.591-.228-.229-1.573 1.418-2.988 3.659m152 0c-3 4.753-3.239 6.389-.864 5.932 1.573-.303 4.888-8.555 3.852-9.591-.228-.229-1.573 1.418-2.988 3.659" fill-rule="evenodd"/>
</svg>