<?xml version="1.0" encoding="UTF-8" standalone="no"?>
<svg xmlns="http://www.w3.org/2000/svg" version="1.2" baseProfile="tiny" viewBox="0.00 0.00 220.00 150.00">
<g fill="#1ba2e5">
<path d="
  M 211.70 74.61
  C 209.76 75.83 207.67 75.20 206.97 72.89
  Q 193.92 29.77 152.01 13.93
  C 148.04 12.44 150.21 8.00 153.91 9.16
  C 180.25 17.44 200.83 39.61 210.17 65.06
  Q 211.73 69.32 212.10 73.82
  Q 212.14 74.33 211.70 74.61
  Z"
/>
<path d="
  M 152.05 36.46
  C 167.66 43.99 179.56 56.70 185.67 72.88
  C 186.60 75.34 187.96 77.25 184.89 79.04
  A 1.85 1.84 -33.5 0 1 182.50 78.56
  Q 181.07 76.66 180.27 74.63
  Q 170.66 50.13 146.63 39.75
  Q 146.13 39.53 145.86 39.06
  Q 144.56 36.79 146.64 35.04
  Q 147.06 34.69 147.60 34.82
  Q 149.68 35.31 152.05 36.46
  Z"
/>
<path d="
  M 43.65 66.79
  C 51.32 33.28 92.40 27.13 110.13 56.20
  Q 110.40 56.64 110.91 56.50
  C 142.22 47.60 172.04 75.36 163.77 107.38
  C 159.89 122.39 146.95 134.61 131.99 137.73
  Q 126.51 138.88 118.19 138.91
  Q 85.35 139.04 52.51 138.99
  Q 43.42 138.98 38.63 137.63
  C 15.08 131.00 4.25 104.70 17.27 84.00
  Q 25.73 70.55 42.99 67.42
  Q 43.53 67.32 43.65 66.79
  Z
  M 46.11 132.86
  C 71.54 133.19 96.99 133.01 122.42 133.05
  Q 129.06 133.06 133.44 131.73
  C 161.29 123.23 168.77 87.61 146.45 68.70
  Q 132.74 57.09 113.03 61.42
  C 111.57 61.74 109.81 62.78 108.02 63.05
  Q 107.44 63.14 107.21 62.60
  C 93.83 31.96 51.49 39.09 48.65 71.69
  A 1.10 1.09 0.9 0 1 47.61 72.69
  C 31.33 73.60 18.21 84.55 17.26 101.07
  C 16.29 117.71 29.21 132.65 46.11 132.86
  Z"
/>
</g>
</svg>
